<svg version="1.1" viewBox="0.0 0.0 550.5354330708661 192.36745406824147" fill="none" stroke="none" stroke-linecap="square" stroke-miterlimit="10" xmlns:xlink="http://www.w3.org/1999/xlink" xmlns="http://www.w3.org/2000/svg"><clipPath id="p.0"><path d="m0 0l550.53546 0l0 192.36745l-550.53546 0l0 -192.36745z" clip-rule="nonzero"/></clipPath><g clip-path="url(#p.0)"><path fill="#000000" fill-opacity="0.0" d="m0 0l550.53546 0l0 192.36745l-550.53546 0z" fill-rule="evenodd"/><path fill="#d9d9d9" d="m6.4120736 29.244095l216.59842 0l0 44.88189l-216.59842 0z" fill-rule="evenodd"/><path stroke="#000000" stroke-width="2.0" stroke-linejoin="round" stroke-linecap="butt" d="m6.4120736 29.244095l216.59842 0l0 44.88189l-216.59842 0z" fill-rule="evenodd"/><path fill="#000000" d="m33.10191 56.95129q-0.71875 0.359375 -1.2812519 0.546875q-0.546875 0.171875 -1.15625 0.25q-0.59375 0.09375 -1.296875 0.09375q-2.921875 0 -4.28125 -1.734375q-1.359375 -1.734375 -1.359375 -4.34375q0 -2.65625 1.40625 -4.359375q1.40625 -1.71875 4.3125 -1.71875q1.546875 0 3.640627 0.515625l0 1.53125q-1.7500019 -0.59375 -2.421877 -0.703125q-0.65625 -0.109375 -1.25 -0.109375q-2.078125 0 -3.015625 1.40625q-0.921875 1.40625 -0.921875 3.453125q0 2.140625 1.0625 3.453125q1.078125 1.3125 3.046875 1.3125q0.546875 0 1.09375 -0.09375q0.546875 -0.09375 1.078125 -0.28125q0.5468769 -0.203125 1.3437519 -0.625l0 1.40625zm7.7265625 0.59375l0 -1.59375q-0.59375 0.859375 -1.375 1.328125q-0.765625 0.46875 -1.59375 0.46875q-1.078125 0 -1.75 -0.6875q-0.671875 -0.6875 -0.671875 -1.90625l0 -6.09375l1.53125 0l0 5.59375q0 0.875 0.15625 1.15625q0.15625 0.28125 0.4375 0.4375q0.28125 0.15625 0.609375 0.15625q0.5625 0 1.21875 -0.34375q0.671875 -0.359375 1.4375 -1.5l0 -5.5l1.546875 0l0 8.484375l-1.546875 0zm4.3203125 -0.296875l0 -1.421875q1.5 0.75 2.625 0.75q0.65625 0 1.09375 -0.359375q0.4375 -0.359375 0.4375 -0.890625q0 -0.34375 -0.21875 -0.65625q-0.21875 -0.328125 -1.0 -0.65625l-0.90625 -0.375q-1.03125 -0.4375 -1.515625 -1.0q-0.46875 -0.5625 -0.46875 -1.390625q0 -1.015625 0.734375 -1.6875q0.75 -0.6875 2.203125 -0.6875q0.703125 0 1.75 0.1875l0.328125 0.0625l0 1.28125q-1.296875 -0.375 -2.0625 -0.375q-0.734375 0 -1.109375 0.328125q-0.359375 0.3125 -0.359375 0.75q0 0.34375 0.25 0.609375q0.234375 0.28125 0.875 0.5625l0.734375 0.3125q1.5 0.625 1.90625 1.25q0.40625 0.609375 0.40625 1.34375q0 0.6875 -0.390625 1.28125q-0.375 0.59375 -1.109375 0.9375q-0.734375 0.34375 -1.640625 0.34375q-1.0625 0 -2.5625 -0.5zm12.25 0.296875q-0.71875 0.203125 -1.234375 0.203125q-1.140625 0 -1.8125 -0.65625q-0.671875 -0.671875 -0.671875 -1.890625l0 -4.984375l-1.0625 0l0 -1.15625l1.0625 0l0 -1.546875l1.53125 -0.140625l0 1.6875l2.21875 0l0 1.15625l-2.21875 0l0 4.703125q0 0.890625 0.34375 1.28125q0.34375 0.375 1.09375 0.375q0.3125 0 0.75 -0.09375l0 1.0625zm5.578125 0.203125q-1.21875 0 -2.109375 -0.5q-0.890625 -0.5 -1.421875 -1.5625q-0.515625 -1.078125 -0.515625 -2.390625q0 -1.234375 0.46875 -2.28125q0.484375 -1.0625 1.390625 -1.59375q0.90625 -0.546875 2.1875 -0.546875q1.2031212 0 2.0937462 0.5q0.90625 0.484375 1.421875 1.5625q0.53125 1.0625 0.53125 2.359375q0 1.25 -0.484375 2.3125q-0.484375 1.0625 -1.390625 1.609375q-0.90625 0.53125 -2.1718712 0.53125zm0 -1.171875q1.1406212 0 1.7656212 -0.84375q0.640625 -0.859375 0.640625 -2.4375q0 -1.578125 -0.640625 -2.421875q-0.625 -0.84375 -1.7656212 -0.84375q-1.140625 0 -1.78125 0.84375q-0.625 0.84375 -0.625 2.421875q0 1.578125 0.625 2.4375q0.640625 0.84375 1.78125 0.84375zm6.453121 0.96875l0 -8.484375l1.53125 0l0 1.59375q0.46875 -0.75 1.203125 -1.265625q0.734375 -0.515625 1.6875 -0.515625q0.5625 0 0.96875 0.1875q0.421875 0.171875 0.75 0.5q0.34375 0.328125 0.609375 1.09375q0.46875 -0.765625 1.1875 -1.28125q0.71875 -0.515625 1.65625 -0.515625q0.90625 0 1.625 0.5625q0.734375 0.5625 0.734375 1.953125l0 6.171875l-1.546875 0l0 -5.9375q0 -0.84375 -0.359375 -1.140625q-0.359375 -0.3125 -0.796875 -0.3125q-0.546875 0 -1.140625 0.34375q-0.578125 0.34375 -1.359375 1.359375l0 5.6875l-1.546875 0l0 -5.9375q0 -0.84375 -0.359375 -1.140625q-0.359375 -0.3125 -0.8125 -0.3125q-0.5625 0 -1.125 0.34375q-0.5625 0.328125 -1.375 1.359375l0 5.6875l-1.53125 0zm21.15625 -0.28125q-1.546875 0.484375 -2.65625 0.484375q-1.96875 0 -3.109375 -1.328125q-1.125 -1.34375 -1.125 -3.15625q0 -1.203125 0.5 -2.28125q0.5 -1.078125 1.296875 -1.59375q0.8125 -0.53125 1.90625 -0.53125q1.46875 0 2.34375 1.0625q0.875 1.046875 0.875 3.15625l0 0.46875l-5.359375 0q0.125 1.125 0.484375 1.734375q0.359375 0.609375 0.953125 0.953125q0.609375 0.328125 1.53125 0.328125q0.46875 0 0.921875 -0.078125q0.46875 -0.078125 1.4375 -0.4375l0 1.21875zm-5.25 -4.875l3.734375 0q0 -1.28125 -0.5 -1.828125q-0.484375 -0.546875 -1.265625 -0.546875q-0.875 0 -1.375 0.59375q-0.5 0.59375 -0.59375 1.78125zm7.9453125 5.15625l0 -8.484375l1.53125 0l0 1.59375q0.4375 -0.859375 1.140625 -1.3125q0.703125 -0.46875 1.515625 -0.46875q0.234375 0 0.5 0.03125l0 1.4375q-0.390625 -0.125 -0.703125 -0.125q-0.734375 0 -1.34375 0.4375q-0.609375 0.421875 -1.109375 1.296875l0 5.59375l-1.53125 0zm6.5 0l0 -11.5625l3.0 0q1.953125 0 2.765625 0.75q0.8125 0.75 0.8125 1.796875q0 0.84375 -0.546875 1.671875q-0.546875 0.828125 -1.828125 1.3125q1.125 0.34375 1.671875 0.796875q0.5625 0.4375 0.859375 1.0625q0.3125 0.609375 0.3125 1.28125q0 0.796875 -0.421875 1.5q-0.40625 0.6875 -1.09375 1.046875q-0.671875 0.34375 -2.125 0.34375l-3.40625 0zm1.625 -1.234375l0.328125 0q1.734375 0 2.25 -0.1875q0.53125 -0.1875 0.8125 -0.625q0.296875 -0.453125 0.296875 -1.0q0 -1.0 -0.921875 -1.703125q-0.921875 -0.703125 -2.3125 -0.703125l-0.453125 0l0 4.21875zm0 -5.25l0.515625 0q1.4375 0 2.09375 -0.609375q0.671875 -0.625 0.671875 -1.5625q0 -0.8125 -0.59375 -1.25q-0.59375 -0.4375 -2.046875 -0.4375l-0.640625 0l0 3.859375zm12.921875 6.484375l0 -1.59375q-0.59375 0.859375 -1.375 1.328125q-0.765625 0.46875 -1.59375 0.46875q-1.078125 0 -1.75 -0.6875q-0.671875 -0.6875 -0.671875 -1.90625l0 -6.09375l1.53125 0l0 5.59375q0 0.875 0.15625 1.15625q0.15625 0.28125 0.4375 0.4375q0.28125 0.15625 0.609375 0.15625q0.5625 0 1.21875 -0.34375q0.671875 -0.359375 1.4375 -1.5l0 -5.5l1.546875 0l0 8.484375l-1.546875 0zm4.3203125 -0.296875l0 -1.421875q1.5 0.75 2.625 0.75q0.65625 0 1.09375 -0.359375q0.4375 -0.359375 0.4375 -0.890625q0 -0.34375 -0.21875 -0.65625q-0.21875 -0.328125 -1.0 -0.65625l-0.90625 -0.375q-1.03125 -0.4375 -1.515625 -1.0q-0.46875 -0.5625 -0.46875 -1.390625q0 -1.015625 0.734375 -1.6875q0.75 -0.6875 2.203125 -0.6875q0.703125 0 1.75 0.1875l0.328125 0.0625l0 1.28125q-1.296875 -0.375 -2.0625 -0.375q-0.734375 0 -1.109375 0.328125q-0.359375 0.3125 -0.359375 0.75q0 0.34375 0.25 0.609375q0.234375 0.28125 0.875 0.5625l0.734375 0.3125q1.5 0.625 1.90625 1.25q0.40625 0.609375 0.40625 1.34375q0 0.6875 -0.390625 1.28125q-0.375 0.59375 -1.109375 0.9375q-0.734375 0.34375 -1.640625 0.34375q-1.0625 0 -2.5625 -0.5zm8.46875 0.296875l0 -8.484375l1.5312576 0l0 8.484375l-1.5312576 0zm0 -10.03125l0 -1.53125l1.5312576 0l0 1.53125l-1.5312576 0zm4.6250076 10.03125l0 -8.484375l1.53125 0l0 1.59375q0.59375 -0.859375 1.359375 -1.3125q0.78125 -0.46875 1.625 -0.46875q1.078125 0 1.75 0.6875q0.671875 0.671875 0.671875 1.890625l0 6.09375l-1.546875 0l0 -5.59375q0 -0.890625 -0.15625 -1.171875q-0.15625 -0.28125 -0.4375 -0.421875q-0.28125 -0.15625 -0.59375 -0.15625q-0.578125 0 -1.234375 0.359375q-0.65625 0.34375 -1.4375 1.484375l0 5.5l-1.53125 0zm16.148438 -0.28125q-1.546875 0.484375 -2.65625 0.484375q-1.96875 0 -3.109375 -1.328125q-1.125 -1.34375 -1.125 -3.15625q0 -1.203125 0.5 -2.28125q0.5 -1.078125 1.296875 -1.59375q0.8125 -0.53125 1.90625 -0.53125q1.46875 0 2.34375 1.0625q0.875 1.046875 0.875 3.15625l0 0.46875l-5.359375 0q0.125 1.125 0.484375 1.734375q0.359375 0.609375 0.953125 0.953125q0.609375 0.328125 1.53125 0.328125q0.46875 0 0.921875 -0.078125q0.46875 -0.078125 1.4375 -0.4375l0 1.21875zm-5.25 -4.875l3.734375 0q0 -1.28125 -0.5 -1.828125q-0.484375 -0.546875 -1.265625 -0.546875q-0.875 0 -1.375 0.59375q-0.5 0.59375 -0.59375 1.78125zm7.6328125 4.859375l0 -1.421875q1.5 0.75 2.625 0.75q0.65625 0 1.09375 -0.359375q0.4375 -0.359375 0.4375 -0.890625q0 -0.34375 -0.21875 -0.65625q-0.21875 -0.328125 -1.0 -0.65625l-0.90625 -0.375q-1.03125 -0.4375 -1.515625 -1.0q-0.46875 -0.5625 -0.46875 -1.390625q0 -1.015625 0.734375 -1.6875q0.75 -0.6875 2.203125 -0.6875q0.703125 0 1.75 0.1875l0.328125 0.0625l0 1.28125q-1.296875 -0.375 -2.0625 -0.375q-0.734375 0 -1.109375 0.328125q-0.359375 0.3125 -0.359375 0.75q0 0.34375 0.25 0.609375q0.234375 0.28125 0.875 0.5625l0.734375 0.3125q1.5 0.625 1.90625 1.25q0.40625 0.609375 0.40625 1.34375q0 0.6875 -0.390625 1.28125q-0.375 0.59375 -1.109375 0.9375q-0.734375 0.34375 -1.640625 0.34375q-1.0625 0 -2.5625 -0.5zm8.15625 0l0 -1.421875q1.5 0.75 2.625 0.75q0.65625 0 1.09375 -0.359375q0.4375 -0.359375 0.4375 -0.890625q0 -0.34375 -0.21875 -0.65625q-0.21875 -0.328125 -1.0 -0.65625l-0.90625 -0.375q-1.03125 -0.4375 -1.515625 -1.0q-0.46875 -0.5625 -0.46875 -1.390625q0 -1.015625 0.734375 -1.6875q0.75 -0.6875 2.203125 -0.6875q0.703125 0 1.75 0.1875l0.328125 0.0625l0 1.28125q-1.296875 -0.375 -2.0625 -0.375q-0.734375 0 -1.109375 0.328125q-0.359375 0.3125 -0.359375 0.75q0 0.34375 0.25 0.609375q0.234375 0.28125 0.875 0.5625l0.734375 0.3125q1.5 0.625 1.90625 1.25q0.40625 0.609375 0.40625 1.34375q0 0.6875 -0.390625 1.28125q-0.375 0.59375 -1.109375 0.9375q-0.734375 0.34375 -1.640625 0.34375q-1.0625 0 -2.5625 -0.5zm8.421875 0.296875l0 -11.5625l1.640625 0l0 10.328125l5.203125 0l0 1.234375l-6.84375 0zm11.953125 0.203125q-1.21875 0 -2.109375 -0.5q-0.890625 -0.5 -1.421875 -1.5625q-0.515625 -1.078125 -0.515625 -2.390625q0 -1.234375 0.46875 -2.28125q0.484375 -1.0625 1.390625 -1.59375q0.90625 -0.546875 2.1875 -0.546875q1.203125 0 2.09375 0.5q0.90625 0.484375 1.421875 1.5625q0.53125 1.0625 0.53125 2.359375q0 1.25 -0.484375 2.3125q-0.484375 1.0625 -1.390625 1.609375q-0.90625 0.53125 -2.171875 0.53125zm0 -1.171875q1.140625 0 1.765625 -0.84375q0.640625 -0.859375 0.640625 -2.4375q0 -1.578125 -0.640625 -2.421875q-0.625 -0.84375 -1.765625 -0.84375q-1.140625 0 -1.78125 0.84375q-0.625 0.84375 -0.625 2.421875q0 1.578125 0.625 2.4375q0.640625 0.84375 1.78125 0.84375zm6.484375 3.796875l0.171875 -1.34375q1.34375 0.640625 2.640625 0.640625q1.46875 0 2.03125 -0.75q0.5625 -0.75 0.5625 -2.015625l0 -1.34375q-0.328125 0.703125 -1.046875 1.25q-0.703125 0.53125 -1.734375 0.53125q-1.734375 0 -2.53125 -1.25q-0.796875 -1.25 -0.796875 -2.84375q0 -1.21875 0.46875 -2.265625q0.46875 -1.046875 1.296875 -1.578125q0.828125 -0.53125 1.90625 -0.53125q0.46875 0 0.875 0.109375q0.421875 0.109375 0.765625 0.328125q0.359375 0.21875 0.796875 0.71875l0 -0.96875l1.546875 0l0 6.171875q0 2.703125 -0.453125 3.6875q-0.4375 1.0 -1.40625 1.453125q-0.953125 0.453125 -2.265625 0.453125q-0.4375 0 -0.9375 -0.046875q-0.484375 -0.046875 -0.875 -0.125q-0.390625 -0.078125 -1.015625 -0.28125zm5.40625 -5.765625l0 -3.53125q-0.5 -0.53125 -1.0625 -0.78125q-0.546875 -0.265625 -1.140625 -0.265625q-1.03125 0 -1.65625 0.828125q-0.609375 0.8125 -0.609375 2.375q0 1.234375 0.453125 2.0q0.46875 0.765625 1.5 0.765625q0.671875 0 1.296875 -0.34375q0.640625 -0.359375 1.21875 -1.046875zm4.5390625 2.9375l0 -8.484375l1.53125 0l0 8.484375l-1.53125 0zm0 -10.03125l0 -1.53125l1.53125 0l0 1.53125l-1.53125 0zm10.515625 9.765625q-1.5 0.46875 -2.578125 0.46875q-1.140625 0 -2.09375 -0.609375q-0.9375 -0.625 -1.421875 -1.625q-0.46875 -1.0 -0.46875 -2.265625q0 -1.875 1.03125 -3.125q1.046875 -1.25 3.21875 -1.25q1.0 0 2.21875 0.265625l0 1.296875q-1.3125 -0.390625 -2.125 -0.390625q-1.296875 0 -1.953125 0.96875q-0.65625 0.96875 -0.65625 2.28125q0 1.4375 0.734375 2.328125q0.734375 0.875 1.921875 0.875q1.046875 0 2.171875 -0.546875l0 1.328125z" fill-rule="nonzero"/><path fill="#000000" fill-opacity="0.0" d="m126.65092 87.14304l65.32284 0l0 34.456696l-65.32284 0z" fill-rule="evenodd"/><path fill="#000000" d="m139.18343 100.37202l0.328125 -1.59375l1.40625 0l-0.328125 1.59375l-1.40625 0zm-2.0625 9.859375l1.734375 -8.296875l1.40625 0l-1.734375 8.296875l-1.40625 0zm3.6015625 0l1.734375 -8.296875l1.28125 0l-0.296875 1.4375q0.828125 -0.84375 1.546875 -1.234375q0.734375 -0.390625 1.5 -0.390625q1.0 0 1.578125 0.546875q0.578125 0.546875 0.578125 1.453125q0 0.46875 -0.203125 1.453125l-1.0625 5.03125l-1.40625 0l1.09375 -5.265625q0.171875 -0.765625 0.171875 -1.125q0 -0.421875 -0.296875 -0.671875q-0.28125 -0.265625 -0.8125 -0.265625q-1.09375 0 -1.9375 0.78125q-0.84375 0.78125 -1.25 2.6875l-0.796875 3.859375l-1.421875 0zm10.9140625 -9.859375l0.328125 -1.59375l1.40625 0l-0.34375 1.59375l-1.390625 0zm-4.484375 12.984375l0.25 -1.203125q0.484375 0.125 0.859375 0.125q0.453125 0 0.734375 -0.296875q0.265625 -0.296875 0.546875 -1.671875l1.75 -8.375l1.40625 0l-1.796875 8.640625q-0.328125 1.609375 -0.765625 2.203125q-0.59375 0.78125 -1.640625 0.78125q-0.5625 0 -1.34375 -0.203125zm12.1171875 -5.953125l1.375 0.140625q-0.296875 1.03125 -1.359375 1.953125q-1.0625 0.921875 -2.546875 0.921875q-0.921875 0 -1.6875 -0.421875q-0.765625 -0.4375 -1.171875 -1.25q-0.40625 -0.8125 -0.40625 -1.84375q0 -1.359375 0.625 -2.640625q0.640625 -1.28125 1.640625 -1.890625q1.0 -0.625 2.15625 -0.625q1.484375 0 2.375 0.921875q0.890625 0.921875 0.890625 2.515625q0 0.609375 -0.109375 1.25l-6.109375 0q-0.03125 0.234375 -0.03125 0.4375q0 1.15625 0.53125 1.78125q0.53125 0.609375 1.3125 0.609375q0.71875 0 1.421875 -0.46875q0.703125 -0.484375 1.09375 -1.390625zm-4.109375 -2.046875l4.65625 0q0.015625 -0.21875 0.015625 -0.3125q0 -1.0625 -0.53125 -1.625q-0.53125 -0.578125 -1.375 -0.578125q-0.90625 0 -1.65625 0.625q-0.734375 0.625 -1.109375 1.890625zm12.6484375 1.84375l1.40625 0.15625q-0.53125 1.546875 -1.515625 2.3125q-0.96875 0.75 -2.21875 0.75q-1.359375 0 -2.203125 -0.875q-0.828125 -0.875 -0.828125 -2.453125q0 -1.359375 0.53125 -2.671875q0.546875 -1.3125 1.546875 -1.984375q1.0 -0.6875 2.296875 -0.6875q1.328125 0 2.109375 0.75q0.78125 0.75 0.78125 2.0l-1.390625 0.09375q0 -0.796875 -0.453125 -1.234375q-0.453125 -0.453125 -1.1875 -0.453125q-0.84375 0 -1.46875 0.546875q-0.625 0.53125 -0.984375 1.640625q-0.359375 1.09375 -0.359375 2.109375q0 1.0625 0.46875 1.59375q0.46875 0.53125 1.15625 0.53125q0.6875 0 1.3125 -0.515625q0.640625 -0.53125 1.0 -1.609375zm5.578125 1.875l-0.234375 1.171875q-0.515625 0.125 -0.984375 0.125q-0.84375 0 -1.34375 -0.421875q-0.375 -0.3125 -0.375 -0.84375q0 -0.28125 0.203125 -1.265625l1.0 -4.8125l-1.109375 0l0.21875 -1.09375l1.125 0l0.421875 -2.046875l1.625 -0.96875l-0.640625 3.015625l1.390625 0l-0.234375 1.09375l-1.375 0l-0.96875 4.578125q-0.171875 0.875 -0.171875 1.046875q0 0.25 0.140625 0.390625q0.140625 0.125 0.46875 0.125q0.46875 0 0.84375 -0.09375zm1.2734375 -1.6875l1.40625 -0.078125q0 0.609375 0.1875 1.046875q0.1875 0.421875 0.6875 0.703125q0.515625 0.265625 1.1875 0.265625q0.9375 0 1.40625 -0.375q0.46875 -0.375 0.46875 -0.890625q0 -0.359375 -0.28125 -0.6875q-0.296875 -0.328125 -1.421875 -0.8125q-1.109375 -0.484375 -1.421875 -0.671875q-0.53125 -0.328125 -0.796875 -0.75q-0.265625 -0.4375 -0.265625 -1.0q0 -0.984375 0.78125 -1.6875q0.78125 -0.703125 2.1875 -0.703125q1.5625 0 2.375 0.71875q0.828125 0.71875 0.859375 1.90625l-1.390625 0.09375q-0.03125 -0.75 -0.53125 -1.1875q-0.5 -0.4375 -1.40625 -0.4375q-0.734375 0 -1.140625 0.34375q-0.40625 0.328125 -0.40625 0.71875q0 0.390625 0.34375 0.6875q0.234375 0.203125 1.21875 0.625q1.625 0.703125 2.046875 1.109375q0.671875 0.640625 0.671875 1.578125q0 0.609375 -0.390625 1.203125q-0.375 0.59375 -1.15625 0.953125q-0.765625 0.359375 -1.828125 0.359375q-1.4375 0 -2.4375 -0.71875q-1.015625 -0.703125 -0.953125 -2.3125z" fill-rule="nonzero"/><path fill="#000000" fill-opacity="0.0" d="m275.6123 121.601204l-160.91339 -47.46457" fill-rule="evenodd"/><path stroke="#000000" stroke-width="2.0" stroke-linejoin="round" stroke-linecap="butt" d="m275.6123 121.601204l-149.40366 -44.06955" fill-rule="evenodd"/><path fill="#000000" stroke="#000000" stroke-width="2.0" stroke-linecap="butt" d="m127.14325 74.36316l-9.639992 0.6006775l7.770767 5.7363205z" fill-rule="evenodd"/><path fill="#d9d9d9" d="m167.31308 121.601204l216.59842 0l0 44.88189l-216.59842 0z" fill-rule="evenodd"/><path stroke="#000000" stroke-width="2.0" stroke-linejoin="round" stroke-linecap="butt" d="m167.31308 121.601204l216.59842 0l0 44.88189l-216.59842 0z" fill-rule="evenodd"/><path fill="#000000" d="m221.06932 149.3084q-0.71875 0.359375 -1.28125 0.546875q-0.546875 0.171875 -1.15625 0.25q-0.59375 0.09375 -1.296875 0.09375q-2.921875 0 -4.28125 -1.734375q-1.359375 -1.734375 -1.359375 -4.34375q0 -2.65625 1.40625 -4.359375q1.40625 -1.71875 4.3125 -1.71875q1.546875 0 3.640625 0.515625l0 1.53125q-1.75 -0.59375 -2.421875 -0.703125q-0.65625 -0.109375 -1.25 -0.109375q-2.078125 0 -3.015625 1.40625q-0.921875 1.40625 -0.921875 3.453125q0 2.140625 1.0625 3.453125q1.078125 1.3125 3.046875 1.3125q0.546875 0 1.09375 -0.09375q0.546875 -0.09375 1.078125 -0.28125q0.546875 -0.203125 1.34375 -0.625l0 1.40625zm7.7265625 0.59375l0 -1.59375q-0.59375 0.859375 -1.375 1.328125q-0.765625 0.46875 -1.59375 0.46875q-1.078125 0 -1.75 -0.6875q-0.671875 -0.6875 -0.671875 -1.90625l0 -6.09375l1.53125 0l0 5.59375q0 0.875 0.15625 1.15625q0.15625 0.28125 0.4375 0.4375q0.28125 0.15625 0.609375 0.15625q0.5625 0 1.21875 -0.34375q0.671875 -0.359375 1.4375 -1.5l0 -5.5l1.546875 0l0 8.484375l-1.546875 0zm4.3203125 -0.296875l0 -1.421875q1.5 0.75 2.625 0.75q0.65625 0 1.09375 -0.359375q0.4375 -0.359375 0.4375 -0.890625q0 -0.34375 -0.21875 -0.65625q-0.21875 -0.328125 -1.0 -0.65625l-0.90625 -0.375q-1.03125 -0.4375 -1.515625 -1.0q-0.46875 -0.5625 -0.46875 -1.390625q0 -1.015625 0.734375 -1.6875q0.75 -0.6875 2.203125 -0.6875q0.703125 0 1.75 0.1875l0.328125 0.0625l0 1.28125q-1.296875 -0.375 -2.0625 -0.375q-0.734375 0 -1.109375 0.328125q-0.359375 0.3125 -0.359375 0.75q0 0.34375 0.25 0.609375q0.234375 0.28125 0.875 0.5625l0.734375 0.3125q1.5 0.625 1.90625 1.25q0.40625 0.609375 0.40625 1.34375q0 0.6875 -0.390625 1.28125q-0.375 0.59375 -1.109375 0.9375q-0.734375 0.34375 -1.640625 0.34375q-1.0625 0 -2.5625 -0.5zm12.25 0.296875q-0.71875 0.203125 -1.234375 0.203125q-1.140625 0 -1.8125 -0.65625q-0.671875 -0.671875 -0.671875 -1.890625l0 -4.984375l-1.0625 0l0 -1.15625l1.0625 0l0 -1.546875l1.53125 -0.140625l0 1.6875l2.21875 0l0 1.15625l-2.21875 0l0 4.703125q0 0.890625 0.34375 1.28125q0.34375 0.375 1.09375 0.375q0.3125 0 0.75 -0.09375l0 1.0625zm5.578125 0.203125q-1.21875 0 -2.109375 -0.5q-0.890625 -0.5 -1.421875 -1.5625q-0.515625 -1.078125 -0.515625 -2.390625q0 -1.234375 0.46875 -2.28125q0.484375 -1.0625 1.390625 -1.59375q0.90625 -0.546875 2.1875 -0.546875q1.203125 0 2.09375 0.5q0.90625 0.484375 1.421875 1.5625q0.53125 1.0625 0.53125 2.359375q0 1.25 -0.484375 2.3125q-0.484375 1.0625 -1.390625 1.609375q-0.90625 0.53125 -2.171875 0.53125zm0 -1.171875q1.140625 0 1.765625 -0.84375q0.640625 -0.859375 0.640625 -2.4375q0 -1.578125 -0.640625 -2.421875q-0.625 -0.84375 -1.765625 -0.84375q-1.140625 0 -1.78125 0.84375q-0.625 0.84375 -0.625 2.421875q0 1.578125 0.625 2.4375q0.640625 0.84375 1.78125 0.84375zm6.4531403 0.96875l0 -8.484375l1.53125 0l0 1.59375q0.46875 -0.75 1.203125 -1.265625q0.734375 -0.515625 1.6875 -0.515625q0.5625 0 0.96875 0.1875q0.421875 0.171875 0.75 0.5q0.34375 0.328125 0.609375 1.09375q0.46875 -0.765625 1.1875 -1.28125q0.71875 -0.515625 1.65625 -0.515625q0.90625 0 1.625 0.5625q0.734375 0.5625 0.734375 1.953125l0 6.171875l-1.546875 0l0 -5.9375q0 -0.84375 -0.359375 -1.140625q-0.359375 -0.3125 -0.796875 -0.3125q-0.546875 0 -1.140625 0.34375q-0.578125 0.34375 -1.359375 1.359375l0 5.6875l-1.546875 0l0 -5.9375q0 -0.84375 -0.359375 -1.140625q-0.359375 -0.3125 -0.8125 -0.3125q-0.5625 0 -1.125 0.34375q-0.5625 0.328125 -1.375 1.359375l0 5.6875l-1.53125 0zm21.15625 -0.28125q-1.546875 0.484375 -2.65625 0.484375q-1.96875 0 -3.109375 -1.328125q-1.125 -1.34375 -1.125 -3.15625q0 -1.203125 0.5 -2.28125q0.5 -1.078125 1.296875 -1.59375q0.8125 -0.53125 1.90625 -0.53125q1.46875 0 2.34375 1.0625q0.875 1.046875 0.875 3.15625l0 0.46875l-5.359375 0q0.125 1.125 0.484375 1.734375q0.359375 0.609375 0.953125 0.953125q0.609375 0.328125 1.53125 0.328125q0.46875 0 0.921875 -0.078125q0.46875 -0.078125 1.4375 -0.4375l0 1.21875zm-5.25 -4.875l3.734375 0q0 -1.28125 -0.5 -1.828125q-0.484375 -0.546875 -1.265625 -0.546875q-0.875 0 -1.375 0.59375q-0.5 0.59375 -0.59375 1.78125zm7.9453125 5.15625l0 -8.484375l1.53125 0l0 1.59375q0.4375 -0.859375 1.140625 -1.3125q0.703125 -0.46875 1.515625 -0.46875q0.234375 0 0.5 0.03125l0 1.4375q-0.390625 -0.125 -0.703125 -0.125q-0.734375 0 -1.34375 0.4375q-0.609375 0.421875 -1.109375 1.296875l0 5.59375l-1.53125 0zm5.78125 -0.21875l0 -1.625q1.390625 0.640625 2.03125 0.78125q0.640625 0.125 1.1875 0.125q1.0 0 1.5625 -0.546875q0.578125 -0.546875 0.578125 -1.296875q0 -0.578125 -0.296875 -1.0625q-0.296875 -0.46875 -1.515625 -1.15625l-0.796875 -0.46875q-1.59375 -0.90625 -2.140625 -1.65625q-0.546875 -0.75 -0.546875 -1.65625q0 -0.828125 0.4375 -1.546875q0.4375 -0.71875 1.15625 -1.125q0.734375 -0.40625 1.84375 -0.40625q1.34375 0 2.828125 0.453125l0 1.5q-1.296875 -0.515625 -1.78125 -0.609375q-0.46875 -0.109375 -0.953125 -0.109375q-1.0 0 -1.484375 0.53125q-0.46875 0.515625 -0.46875 1.0625q0 0.375 0.21875 0.765625q0.234375 0.375 0.609375 0.65625q0.390625 0.28125 1.0625 0.65625l0.828125 0.46875q1.609375 0.921875 2.140625 1.671875q0.546875 0.765625 0.546875 1.765625q0 1.34375 -1.03125 2.34375q-1.03125 1.0 -3.03125 1.0q-0.609375 0 -1.1875 -0.09375q-0.578125 -0.078125 -1.796875 -0.421875zm15.6015625 -0.0625q-1.546875 0.484375 -2.65625 0.484375q-1.96875 0 -3.109375 -1.328125q-1.125 -1.34375 -1.125 -3.15625q0 -1.203125 0.5 -2.28125q0.5 -1.078125 1.296875 -1.59375q0.8125 -0.53125 1.90625 -0.53125q1.46875 0 2.34375 1.0625q0.875 1.046875 0.875 3.15625l0 0.46875l-5.359375 0q0.125 1.125 0.484375 1.734375q0.359375 0.609375 0.953125 0.953125q0.609375 0.328125 1.53125 0.328125q0.46875 0 0.921875 -0.078125q0.46875 -0.078125 1.4375 -0.4375l0 1.21875zm-5.25 -4.875l3.734375 0q0 -1.28125 -0.5 -1.828125q-0.484375 -0.546875 -1.265625 -0.546875q-0.875 0 -1.375 0.59375q-0.5 0.59375 -0.59375 1.78125zm7.9453125 5.15625l0 -8.484375l1.53125 0l0 1.59375q0.4375 -0.859375 1.140625 -1.3125q0.703125 -0.46875 1.515625 -0.46875q0.234375 0 0.5 0.03125l0 1.4375q-0.390625 -0.125 -0.703125 -0.125q-0.734375 0 -1.34375 0.4375q-0.609375 0.421875 -1.109375 1.296875l0 5.59375l-1.53125 0zm8.296875 0l-3.15625 -8.484375l1.546875 0l2.46875 6.59375l2.59375 -6.59375l1.4375 0l-3.34375 8.484375l-1.546875 0zm6.53125 0l0 -8.484375l1.53125 0l0 8.484375l-1.53125 0zm0 -10.03125l0 -1.53125l1.53125 0l0 1.53125l-1.53125 0zm10.515625 9.765625q-1.5 0.46875 -2.578125 0.46875q-1.140625 0 -2.09375 -0.609375q-0.9375 -0.625 -1.421875 -1.625q-0.46875 -1.0 -0.46875 -2.265625q0 -1.875 1.03125 -3.125q1.046875 -1.25 3.21875 -1.25q1.0 0 2.21875 0.265625l0 1.296875q-1.3125 -0.390625 -2.125 -0.390625q-1.296875 0 -1.953125 0.96875q-0.65625 0.96875 -0.65625 2.28125q0 1.4375 0.734375 2.328125q0.734375 0.875 1.921875 0.875q1.046875 0 2.171875 -0.546875l0 1.328125zm8.5234375 -0.015625q-1.546875 0.484375 -2.65625 0.484375q-1.96875 0 -3.109375 -1.328125q-1.125 -1.34375 -1.125 -3.15625q0 -1.203125 0.5 -2.28125q0.5 -1.078125 1.296875 -1.59375q0.8125 -0.53125 1.90625 -0.53125q1.46875 0 2.34375 1.0625q0.875 1.046875 0.875 3.15625l0 0.46875l-5.359375 0q0.125 1.125 0.484375 1.734375q0.359375 0.609375 0.953125 0.953125q0.609375 0.328125 1.53125 0.328125q0.46875 0 0.921875 -0.078125q0.46875 -0.078125 1.4375 -0.4375l0 1.21875zm-5.25 -4.875l3.734375 0q0 -1.28125 -0.5 -1.828125q-0.484375 -0.546875 -1.265625 -0.546875q-0.875 0 -1.375 0.59375q-0.5 0.59375 -0.59375 1.78125z" fill-rule="nonzero"/><path fill="#d9d9d9" d="m328.20853 29.238058l216.59842 0l0 44.88189l-216.59842 0z" fill-rule="evenodd"/><path stroke="#000000" stroke-width="2.0" stroke-linejoin="round" stroke-linecap="butt" d="m328.20853 29.238058l216.59842 0l0 44.88189l-216.59842 0z" fill-rule="evenodd"/><path fill="#000000" d="m364.86322 56.94525q-0.71875 0.359375 -1.28125 0.546875q-0.546875 0.171875 -1.15625 0.25q-0.59375 0.09375 -1.296875 0.09375q-2.921875 0 -4.28125 -1.734375q-1.359375 -1.734375 -1.359375 -4.34375q0 -2.65625 1.40625 -4.359375q1.40625 -1.71875 4.3125 -1.71875q1.546875 0 3.640625 0.515625l0 1.53125q-1.75 -0.59375 -2.421875 -0.703125q-0.65625 -0.109375 -1.25 -0.109375q-2.078125 0 -3.015625 1.40625q-0.921875 1.40625 -0.921875 3.453125q0 2.140625 1.0625 3.453125q1.078125 1.3125 3.046875 1.3125q0.546875 0 1.09375 -0.09375q0.546875 -0.09375 1.078125 -0.28125q0.546875 -0.203125 1.34375 -0.625l0 1.40625zm7.7265625 0.59375l0 -1.59375q-0.59375 0.859375 -1.375 1.328125q-0.765625 0.46875 -1.59375 0.46875q-1.078125 0 -1.75 -0.6875q-0.671875 -0.6875 -0.671875 -1.90625l0 -6.09375l1.53125 0l0 5.59375q0 0.875 0.15625 1.15625q0.15625 0.28125 0.4375 0.4375q0.28125 0.15625 0.609375 0.15625q0.5625 0 1.21875 -0.34375q0.671875 -0.359375 1.4375 -1.5l0 -5.5l1.546875 0l0 8.484375l-1.546875 0zm4.3203125 -0.296875l0 -1.421875q1.5 0.75 2.625 0.75q0.65625 0 1.09375 -0.359375q0.4375 -0.359375 0.4375 -0.890625q0 -0.34375 -0.21875 -0.65625q-0.21875 -0.328125 -1.0 -0.65625l-0.90625 -0.375q-1.03125 -0.4375 -1.515625 -1.0q-0.46875 -0.5625 -0.46875 -1.390625q0 -1.015625 0.734375 -1.6875q0.75 -0.6875 2.203125 -0.6875q0.703125 0 1.75 0.1875l0.328125 0.0625l0 1.28125q-1.296875 -0.375 -2.0625 -0.375q-0.734375 0 -1.109375 0.328125q-0.359375 0.3125 -0.359375 0.75q0 0.34375 0.25 0.609375q0.234375 0.28125 0.875 0.5625l0.734375 0.3125q1.5 0.625 1.90625 1.25q0.40625 0.609375 0.40625 1.34375q0 0.6875 -0.390625 1.28125q-0.375 0.59375 -1.109375 0.9375q-0.734375 0.34375 -1.640625 0.34375q-1.0625 0 -2.5625 -0.5zm12.25 0.296875q-0.71875 0.203125 -1.234375 0.203125q-1.140625 0 -1.8125 -0.65625q-0.671875 -0.671875 -0.671875 -1.890625l0 -4.984375l-1.0625 0l0 -1.15625l1.0625 0l0 -1.546875l1.53125 -0.140625l0 1.6875l2.21875 0l0 1.15625l-2.21875 0l0 4.703125q0 0.890625 0.34375 1.28125q0.34375 0.375 1.09375 0.375q0.3125 0 0.75 -0.09375l0 1.0625zm5.578125 0.203125q-1.21875 0 -2.109375 -0.5q-0.890625 -0.5 -1.421875 -1.5625q-0.515625 -1.078125 -0.515625 -2.390625q0 -1.234375 0.46875 -2.28125q0.484375 -1.0625 1.390625 -1.59375q0.90625 -0.546875 2.1875 -0.546875q1.203125 0 2.09375 0.5q0.90625 0.484375 1.421875 1.5625q0.53125 1.0625 0.53125 2.359375q0 1.25 -0.484375 2.3125q-0.484375 1.0625 -1.390625 1.609375q-0.90625 0.53125 -2.171875 0.53125zm0 -1.171875q1.140625 0 1.765625 -0.84375q0.640625 -0.859375 0.640625 -2.4375q0 -1.578125 -0.640625 -2.421875q-0.625 -0.84375 -1.765625 -0.84375q-1.140625 0 -1.78125 0.84375q-0.625 0.84375 -0.625 2.421875q0 1.578125 0.625 2.4375q0.640625 0.84375 1.78125 0.84375zm6.453125 0.96875l0 -8.484375l1.53125 0l0 1.59375q0.46875 -0.75 1.203125 -1.265625q0.734375 -0.515625 1.6875 -0.515625q0.5625 0 0.96875 0.1875q0.421875 0.171875 0.75 0.5q0.34375 0.328125 0.609375 1.09375q0.46875 -0.765625 1.1875 -1.28125q0.71875 -0.515625 1.65625 -0.515625q0.90625 0 1.625 0.5625q0.734375 0.5625 0.734375 1.953125l0 6.171875l-1.546875 0l0 -5.9375q0 -0.84375 -0.359375 -1.140625q-0.359375 -0.3125 -0.796875 -0.3125q-0.546875 0 -1.140625 0.34375q-0.578125 0.34375 -1.359375 1.359375l0 5.6875l-1.546875 0l0 -5.9375q0 -0.84375 -0.359375 -1.140625q-0.359375 -0.3125 -0.8125 -0.3125q-0.5625 0 -1.125 0.34375q-0.5625 0.328125 -1.375 1.359375l0 5.6875l-1.53125 0zm21.15625 -0.28125q-1.546875 0.484375 -2.65625 0.484375q-1.96875 0 -3.109375 -1.328125q-1.125 -1.34375 -1.125 -3.15625q0 -1.203125 0.5 -2.28125q0.5 -1.078125 1.296875 -1.59375q0.8125 -0.53125 1.90625 -0.53125q1.46875 0 2.34375 1.0625q0.875 1.046875 0.875 3.15625l0 0.46875l-5.359375 0q0.125 1.125 0.484375 1.734375q0.359375 0.609375 0.953125 0.953125q0.609375 0.328125 1.53125 0.328125q0.46875 0 0.921875 -0.078125q0.46875 -0.078125 1.4375 -0.4375l0 1.21875zm-5.25 -4.875l3.734375 0q0 -1.28125 -0.5 -1.828125q-0.484375 -0.546875 -1.265625 -0.546875q-0.875 0 -1.375 0.59375q-0.5 0.59375 -0.59375 1.78125zm7.9453125 5.15625l0 -8.484375l1.53125 0l0 1.59375q0.4375 -0.859375 1.140625 -1.3125q0.703125 -0.46875 1.515625 -0.46875q0.234375 0 0.5 0.03125l0 1.4375q-0.390625 -0.125 -0.703125 -0.125q-0.734375 0 -1.34375 0.4375q-0.609375 0.421875 -1.109375 1.296875l0 5.59375l-1.53125 0zm6.5 0l0 -11.5625l3.84375 0q2.21875 0 3.359375 0.640625q1.15625 0.640625 1.8125 1.890625q0.65625 1.234375 0.65625 2.96875q0 1.65625 -0.609375 3.03125q-0.59375 1.375 -1.8125 2.203125q-1.21875 0.828125 -3.390625 0.828125l-3.859375 0zm1.640625 -1.234375l2.09375 0q1.640625 0 2.453125 -0.515625q0.828125 -0.515625 1.28125 -1.640625q0.46875 -1.125 0.46875 -2.515625q0 -1.21875 -0.40625 -2.21875q-0.390625 -1.0 -1.28125 -1.609375q-0.890625 -0.609375 -3.265625 -0.609375l-1.34375 0l0 9.109375zm14.765625 0.15625q-0.6875 0.625 -1.359375 0.953125q-0.671875 0.328125 -1.3125 0.328125q-0.890625 0 -1.671875 -0.59375q-0.765625 -0.609375 -0.765625 -1.75q0 -1.25 1.078125 -2.0625q1.078125 -0.8125 3.4375 -0.8125l0.359375 0l0 -1.03125q0 -0.609375 -0.171875 -0.875q-0.15625 -0.28125 -0.5 -0.4375q-0.34375 -0.15625 -0.859375 -0.15625q-1.203125 0 -2.609375 0.75l0 -1.28125q1.546875 -0.625 2.921875 -0.625q0.75 0 1.375 0.234375q0.640625 0.234375 1.015625 0.75q0.375 0.515625 0.375 1.640625l0 3.84375q0 0.640625 0.09375 0.875q0.109375 0.21875 0.28125 0.34375q0.1875 0.109375 0.4375 0.109375q0.09375 0 0.296875 -0.03125l0.109375 0.84375q-0.53125 0.265625 -1.15625 0.265625q-0.421875 0 -0.8125 -0.28125q-0.390625 -0.28125 -0.5625 -1.0zm-0.234375 -0.84375l0 -2.1875l-0.484375 -0.015625q-1.21875 0 -2.046875 0.46875q-0.8125 0.46875 -0.8125 1.265625q0 0.5625 0.40625 0.953125q0.40625 0.375 0.9375 0.375q0.484375 0 0.984375 -0.21875q0.5 -0.21875 1.015625 -0.640625zm8.4765625 1.921875q-0.71875 0.203125 -1.234375 0.203125q-1.140625 0 -1.8125 -0.65625q-0.671875 -0.671875 -0.671875 -1.890625l0 -4.984375l-1.0625 0l0 -1.15625l1.0625 0l0 -1.546875l1.53125 -0.140625l0 1.6875l2.21875 0l0 1.15625l-2.21875 0l0 4.703125q0 0.890625 0.34375 1.28125q0.34375 0.375 1.09375 0.375q0.3125 0 0.75 -0.09375l0 1.0625zm6.578125 -1.078125q-0.6875 0.625 -1.359375 0.953125q-0.671875 0.328125 -1.3125 0.328125q-0.890625 0 -1.671875 -0.59375q-0.765625 -0.609375 -0.765625 -1.75q0 -1.25 1.078125 -2.0625q1.078125 -0.8125 3.4375 -0.8125l0.359375 0l0 -1.03125q0 -0.609375 -0.171875 -0.875q-0.15625 -0.28125 -0.5 -0.4375q-0.34375 -0.15625 -0.859375 -0.15625q-1.203125 0 -2.609375 0.75l0 -1.28125q1.546875 -0.625 2.921875 -0.625q0.75 0 1.375 0.234375q0.640625 0.234375 1.015625 0.75q0.375 0.515625 0.375 1.640625l0 3.84375q0 0.640625 0.09375 0.875q0.109375 0.21875 0.28125 0.34375q0.1875 0.109375 0.4375 0.109375q0.09375 0 0.296875 -0.03125l0.109375 0.84375q-0.53125 0.265625 -1.15625 0.265625q-0.421875 0 -0.8125 -0.28125q-0.390625 -0.28125 -0.5625 -1.0zm-0.234375 -0.84375l0 -2.1875l-0.484375 -0.015625q-1.21875 0 -2.046875 0.46875q-0.8125 0.46875 -0.8125 1.265625q0 0.5625 0.40625 0.953125q0.40625 0.375 0.9375 0.375q0.484375 0 0.984375 -0.21875q0.5 -0.21875 1.015625 -0.640625zm3.2890625 1.921875l4.578125 -11.5625l1.625 0l4.515625 11.5625l-1.765625 0l-1.265625 -3.203125l-4.890625 0l-1.28125 3.203125l-1.515625 0zm3.265625 -4.421875l3.953125 0l-1.96875 -4.984375l-1.984375 4.984375zm15.0703125 4.15625q-1.5 0.46875 -2.578125 0.46875q-1.140625 0 -2.09375 -0.609375q-0.9375 -0.625 -1.421875 -1.625q-0.46875 -1.0 -0.46875 -2.265625q0 -1.875 1.03125 -3.125q1.046875 -1.25 3.21875 -1.25q1.0 0 2.21875 0.265625l0 1.296875q-1.3125 -0.390625 -2.125 -0.390625q-1.296875 0 -1.953125 0.96875q-0.65625 0.96875 -0.65625 2.28125q0 1.4375 0.734375 2.328125q0.734375 0.875 1.921875 0.875q1.046875 0 2.171875 -0.546875l0 1.328125zm8.1953125 0q-1.5 0.46875 -2.578125 0.46875q-1.140625 0 -2.09375 -0.609375q-0.9375 -0.625 -1.421875 -1.625q-0.46875 -1.0 -0.46875 -2.265625q0 -1.875 1.03125 -3.125q1.046875 -1.25 3.21875 -1.25q1.0 0 2.21875 0.265625l0 1.296875q-1.3125 -0.390625 -2.125 -0.390625q-1.296875 0 -1.953125 0.96875q-0.65625 0.96875 -0.65625 2.28125q0 1.4375 0.734375 2.328125q0.734375 0.875 1.921875 0.875q1.046875 0 2.171875 -0.546875l0 1.328125zm8.5234375 -0.015625q-1.546875 0.484375 -2.65625 0.484375q-1.96875 0 -3.109375 -1.328125q-1.125 -1.34375 -1.125 -3.15625q0 -1.203125 0.5 -2.28125q0.5 -1.078125 1.296875 -1.59375q0.8125 -0.53125 1.90625 -0.53125q1.46875 0 2.34375 1.0625q0.875 1.046875 0.875 3.15625l0 0.46875l-5.359375 0q0.125 1.125 0.484375 1.734375q0.359375 0.609375 0.953125 0.953125q0.609375 0.328125 1.53125 0.328125q0.46875 0 0.921875 -0.078125q0.46875 -0.078125 1.4375 -0.4375l0 1.21875zm-5.25 -4.875l3.734375 0q0 -1.28125 -0.5 -1.828125q-0.484375 -0.546875 -1.265625 -0.546875q-0.875 0 -1.375 0.59375q-0.5 0.59375 -0.59375 1.78125zm7.6328125 4.859375l0 -1.421875q1.5 0.75 2.625 0.75q0.65625 0 1.09375 -0.359375q0.4375 -0.359375 0.4375 -0.890625q0 -0.34375 -0.21875 -0.65625q-0.21875 -0.328125 -1.0 -0.65625l-0.90625 -0.375q-1.03125 -0.4375 -1.515625 -1.0q-0.46875 -0.5625 -0.46875 -1.390625q0 -1.015625 0.734375 -1.6875q0.75 -0.6875 2.203125 -0.6875q0.703125 0 1.75 0.1875l0.328125 0.0625l0 1.28125q-1.296875 -0.375 -2.0625 -0.375q-0.734375 0 -1.109375 0.328125q-0.359375 0.3125 -0.359375 0.75q0 0.34375 0.25 0.609375q0.234375 0.28125 0.875 0.5625l0.734375 0.3125q1.5 0.625 1.90625 1.25q0.40625 0.609375 0.40625 1.34375q0 0.6875 -0.390625 1.28125q-0.375 0.59375 -1.109375 0.9375q-0.734375 0.34375 -1.640625 0.34375q-1.0625 0 -2.5625 -0.5zm8.15625 0l0 -1.421875q1.5 0.75 2.625 0.75q0.65625 0 1.09375 -0.359375q0.4375 -0.359375 0.4375 -0.890625q0 -0.34375 -0.21875 -0.65625q-0.21875 -0.328125 -1.0 -0.65625l-0.90625 -0.375q-1.03125 -0.4375 -1.515625 -1.0q-0.46875 -0.5625 -0.46875 -1.390625q0 -1.015625 0.734375 -1.6875q0.75 -0.6875 2.203125 -0.6875q0.703125 0 1.75 0.1875l0.328125 0.0625l0 1.28125q-1.296875 -0.375 -2.0625 -0.375q-0.734375 0 -1.109375 0.328125q-0.359375 0.3125 -0.359375 0.75q0 0.34375 0.25 0.609375q0.234375 0.28125 0.875 0.5625l0.734375 0.3125q1.5 0.625 1.90625 1.25q0.40625 0.609375 0.40625 1.34375q0 0.6875 -0.390625 1.28125q-0.375 0.59375 -1.109375 0.9375q-0.734375 0.34375 -1.640625 0.34375q-1.0625 0 -2.5625 -0.5z" fill-rule="nonzero"/><path fill="#000000" fill-opacity="0.0" d="m275.6123 121.601204l160.8819 -47.496063" fill-rule="evenodd"/><path stroke="#000000" stroke-width="2.0" stroke-linejoin="round" stroke-linecap="butt" stroke-dasharray="8.0,6.0" d="m275.6123 121.601204l149.37292 -44.09836" fill-rule="evenodd"/><path fill="#000000" stroke="#000000" stroke-width="2.0" stroke-linecap="butt" d="m425.9206 80.67113l7.7694397 -5.7381363l-9.640137 -0.5984268z" fill-rule="evenodd"/><path fill="#000000" fill-opacity="0.0" d="m223.0105 51.68504l105.19684 0" fill-rule="evenodd"/><path stroke="#000000" stroke-width="2.0" stroke-linejoin="round" stroke-linecap="butt" d="m223.0105 51.68504l93.19684 0" fill-rule="evenodd"/><path fill="#000000" stroke="#000000" stroke-width="2.0" stroke-linecap="butt" d="m316.20734 54.988503l9.076202 -3.303463l-9.076202 -3.3034668z" fill-rule="evenodd"/><path fill="#000000" fill-opacity="0.0" d="m222.99738 29.244095l99.1181 0l0 25.29134l-99.1181 0z" fill-rule="evenodd"/><path fill="#000000" d="m261.8611 46.249763q-1.5 1.6875 -3.0625 1.6875q-0.953125 0 -1.546875 -0.546875q-0.59375 -0.5625 -0.59375 -1.359375q0 -0.515625 0.265625 -1.796875l1.0 -4.78125l1.421875 0l-1.109375 5.296875q-0.140625 0.671875 -0.140625 1.03125q0 0.46875 0.28125 0.734375q0.28125 0.265625 0.84375 0.265625q0.59375 0 1.15625 -0.28125q0.5625 -0.296875 0.96875 -0.78125q0.421875 -0.5 0.671875 -1.171875q0.171875 -0.4375 0.40625 -1.515625l0.75 -3.578125l1.40625 0l-1.734375 8.296875l-1.296875 0l0.3125 -1.5zm3.3671875 -1.34375l1.40625 -0.078125q0 0.609375 0.1875 1.046875q0.1875 0.421875 0.6875 0.703125q0.515625 0.265625 1.1875 0.265625q0.9375 0 1.40625 -0.375q0.46875 -0.375 0.46875 -0.890625q0 -0.359375 -0.28125 -0.6875q-0.296875 -0.328125 -1.421875 -0.8125q-1.109375 -0.484375 -1.421875 -0.671875q-0.53125 -0.328125 -0.796875 -0.75q-0.265625 -0.4375 -0.265625 -1.0q0 -0.984375 0.78125 -1.6875q0.78125 -0.703125 2.1875 -0.703125q1.5625 0 2.375 0.71875q0.828125 0.71875 0.859375 1.90625l-1.390625 0.09375q-0.03125 -0.75 -0.53125 -1.1875q-0.5 -0.4375 -1.40625 -0.4375q-0.734375 0 -1.140625 0.34375q-0.40625 0.328125 -0.40625 0.71875q0 0.390625 0.34375 0.6875q0.234375 0.203125 1.21875 0.625q1.625 0.703125 2.046875 1.109375q0.671875 0.640625 0.671875 1.578125q0 0.609375 -0.390625 1.203125q-0.375 0.59375 -1.15625 0.953125q-0.765625 0.359375 -1.828125 0.359375q-1.4375 0 -2.4375 -0.71875q-1.015625 -0.703125 -0.953125 -2.3125zm13.953125 0.015625l1.375 0.140625q-0.296875 1.03125 -1.359375 1.953125q-1.0625 0.921875 -2.546875 0.921875q-0.921875 0 -1.6875 -0.421875q-0.765625 -0.4375 -1.171875 -1.25q-0.40625 -0.8125 -0.40625 -1.84375q0 -1.359375 0.625 -2.640625q0.640625 -1.28125 1.640625 -1.890625q1.0 -0.625 2.15625 -0.625q1.484375 0 2.375 0.921875q0.890625 0.921875 0.890625 2.515625q0 0.609375 -0.109375 1.25l-6.109375 0q-0.03125 0.234375 -0.03125 0.4375q0 1.15625 0.53125 1.78125q0.53125 0.609375 1.3125 0.609375q0.71875 0 1.421875 -0.46875q0.703125 -0.484375 1.09375 -1.390625zm-4.109375 -2.046875l4.65625 0q0.015625 -0.21875 0.015625 -0.3125q0 -1.0625 -0.53125 -1.625q-0.53125 -0.578125 -1.375 -0.578125q-0.90625 0 -1.65625 0.625q-0.734375 0.625 -1.109375 1.890625zm7.0546875 2.03125l1.40625 -0.078125q0 0.609375 0.1875 1.046875q0.1875 0.421875 0.6875 0.703125q0.515625 0.265625 1.1875 0.265625q0.9375 0 1.40625 -0.375q0.46875 -0.375 0.46875 -0.890625q0 -0.359375 -0.28125 -0.6875q-0.296875 -0.328125 -1.421875 -0.8125q-1.109375 -0.484375 -1.421875 -0.671875q-0.53125 -0.328125 -0.796875 -0.75q-0.265625 -0.4375 -0.265625 -1.0q0 -0.984375 0.78125 -1.6875q0.78125 -0.703125 2.1875 -0.703125q1.5625 0 2.375 0.71875q0.828125 0.71875 0.859375 1.90625l-1.390625 0.09375q-0.03125 -0.75 -0.53125 -1.1875q-0.5 -0.4375 -1.40625 -0.4375q-0.734375 0 -1.140625 0.34375q-0.40625 0.328125 -0.40625 0.71875q0 0.390625 0.34375 0.6875q0.234375 0.203125 1.21875 0.625q1.625 0.703125 2.046875 1.109375q0.671875 0.640625 0.671875 1.578125q0 0.609375 -0.390625 1.203125q-0.375 0.59375 -1.15625 0.953125q-0.765625 0.359375 -1.828125 0.359375q-1.4375 0 -2.4375 -0.71875q-1.015625 -0.703125 -0.953125 -2.3125z" fill-rule="nonzero"/><path fill="#000000" fill-opacity="0.0" d="m6.4120736 3.9475067l216.59842 0l0 25.29134l-216.59842 0z" fill-rule="evenodd"/><path fill="#000000" d="m103.914406 18.421925l1.515625 0.203125q-0.71875 1.984375 -2.09375 3.015625q-1.375 1.015625 -3.09375 1.015625q-2.078125 0 -3.3125 -1.28125q-1.21875 -1.28125 -1.21875 -3.65625q0 -3.093749 1.859375 -5.109374q1.65625 -1.8125 4.125 -1.8125q1.8125 0 2.9375 0.984375q1.140625 0.96875 1.3125 2.625l-1.421875 0.125q-0.234375 -1.234375 -0.9375 -1.84375q-0.703125 -0.625 -1.828125 -0.625q-2.09375 0 -3.390625 1.875q-1.125 1.609375 -1.125 3.812499q0 1.765625 0.859375 2.703125q0.875 0.921875 2.265625 0.921875q1.1875 0 2.140625 -0.765625q0.96875 -0.78125 1.40625 -2.1875zm2.3203125 4.03125l2.390625 -11.453124l1.421875 0l-2.390625 11.453124l-1.421875 0zm5.6796875 -9.859374l0.328125 -1.59375l1.40625 0l-0.328125 1.59375l-1.40625 0zm-2.0625 9.859374l1.734375 -8.296874l1.40625 0l-1.734375 8.296874l-1.40625 0zm9.6953125 -2.828125l1.375 0.140625q-0.296875 1.03125 -1.359375 1.953125q-1.0625 0.921875 -2.546875 0.921875q-0.921875 0 -1.6875 -0.421875q-0.765625 -0.4375 -1.171875 -1.25q-0.40625 -0.8125 -0.40625 -1.84375q0 -1.359375 0.625 -2.640625q0.640625 -1.281249 1.640625 -1.890624q1.0 -0.625 2.15625 -0.625q1.484375 0 2.375 0.921875q0.890625 0.921875 0.890625 2.515624q0 0.609375 -0.109375 1.25l-6.109375 0q-0.03125 0.234375 -0.03125 0.4375q0 1.15625 0.53125 1.78125q0.53125 0.609375 1.3125 0.609375q0.71875 0 1.421875 -0.46875q0.703125 -0.484375 1.09375 -1.390625zm-4.109375 -2.046875l4.65625 0q0.015625 -0.21875 0.015625 -0.3125q0 -1.0625 -0.53125 -1.624999q-0.53125 -0.578125 -1.375 -0.578125q-0.90625 0 -1.65625 0.625q-0.734375 0.62499905 -1.109375 1.890624zm6.9140625 4.875l1.734375 -8.296874l1.28125 0l-0.296875 1.4375q0.828125 -0.84375 1.546875 -1.234375q0.734375 -0.390625 1.5000076 -0.390625q1.0 0 1.578125 0.546875q0.578125 0.546875 0.578125 1.453125q0 0.46874905 -0.203125 1.453124l-1.0625 5.03125l-1.4062576 0l1.0937576 -5.265625q0.171875 -0.765625 0.171875 -1.125q0 -0.42187405 -0.296875 -0.67187405q-0.28125 -0.265625 -0.8125076 -0.265625q-1.09375 0 -1.9375 0.78125q-0.84375 0.78124905 -1.25 2.687499l-0.796875 3.859375l-1.421875 0zm12.210945 -1.15625l-0.234375 1.171875q-0.515625 0.125 -0.984375 0.125q-0.84375 0 -1.34375 -0.421875q-0.375 -0.3125 -0.375 -0.84375q0 -0.28125 0.203125 -1.265625l1.0 -4.812499l-1.109375 0l0.21875 -1.09375l1.125 0l0.421875 -2.046875l1.625 -0.96875l-0.640625 3.015625l1.390625 0l-0.234375 1.09375l-1.375 0l-0.96875 4.578124q-0.171875 0.875 -0.171875 1.046875q0 0.25 0.140625 0.390625q0.140625 0.125 0.46875 0.125q0.46875 0 0.84375 -0.09375z" fill-rule="nonzero"/><path fill="#000000" fill-opacity="0.0" d="m328.20734 3.9475067l216.59845 0l0 25.29134l-216.59845 0z" fill-rule="evenodd"/><path fill="#000000" d="m410.95578 18.75005l1.5 -0.140625l-0.015625 0.390625q0 0.671875 0.296875 1.21875q0.3125 0.546875 1.015625 0.859375q0.703125 0.296875 1.671875 0.296875q1.375 0 2.09375 -0.59375q0.734375 -0.609375 0.734375 -1.390625q0 -0.53125 -0.390625 -0.984375q-0.390625 -0.4375 -2.125 -1.1875q-1.359375 -0.578125 -1.84375 -0.890625q-0.78125 -0.51562405 -1.15625 -1.109374q-0.359375 -0.59375 -0.359375 -1.359375q0 -0.890625 0.484375 -1.59375q0.484375 -0.71875 1.421875 -1.09375q0.9375 -0.375 2.109375 -0.375q1.390625 0 2.34375 0.46875q0.96875 0.46875 1.40625 1.25q0.4375 0.78125 0.4375 1.5q0 0.0625 -0.015625 0.234375l-1.46875 0.109375q0 -0.484375 -0.09375 -0.75q-0.15625 -0.484375 -0.484375 -0.8125q-0.328125 -0.328125 -0.90625 -0.515625q-0.5625 -0.203125 -1.28125 -0.203125q-1.25 0 -1.9375 0.5625q-0.53125 0.421875 -0.53125 1.140625q0 0.421875 0.21875 0.75q0.21875 0.328125 0.78125 0.65625q0.40625 0.21875 1.9375 0.89062405q1.234375 0.546875 1.703125 0.859375q0.625 0.421875 0.953125 1.015625q0.34375 0.578125 0.34375 1.328125q0 0.9375 -0.578125 1.71875q-0.5625 0.78125 -1.5625 1.21875q-1.0 0.4375 -2.28125 0.4375q-1.953125 0 -3.1875 -0.84375q-1.21875 -0.859375 -1.234375 -3.0625zm16.171875 0.875l1.375 0.140625q-0.296875 1.03125 -1.359375 1.953125q-1.0625 0.921875 -2.546875 0.921875q-0.921875 0 -1.6875 -0.421875q-0.765625 -0.4375 -1.171875 -1.25q-0.40625 -0.8125 -0.40625 -1.84375q0 -1.359375 0.625 -2.640625q0.640625 -1.281249 1.640625 -1.890624q1.0 -0.625 2.15625 -0.625q1.484375 0 2.375 0.921875q0.890625 0.921875 0.890625 2.515624q0 0.609375 -0.109375 1.25l-6.109375 0q-0.03125 0.234375 -0.03125 0.4375q0 1.15625 0.53125 1.78125q0.53125 0.609375 1.3125 0.609375q0.71875 0 1.421875 -0.46875q0.703125 -0.484375 1.09375 -1.390625zm-4.109375 -2.046875l4.65625 0q0.015625 -0.21875 0.015625 -0.3125q0 -1.0625 -0.53125 -1.624999q-0.53125 -0.578125 -1.375 -0.578125q-0.90625 0 -1.65625 0.625q-0.734375 0.62499905 -1.109375 1.890624zm6.9140625 4.875l1.734375 -8.296874l1.25 0l-0.34375 1.6875q0.640625 -0.953125 1.25 -1.40625q0.609375 -0.46875 1.25 -0.46875q0.421875 0 1.046875 0.296875l-0.578125 1.3125q-0.375 -0.265625 -0.8125 -0.265625q-0.734375 0 -1.515625 0.82812405q-0.78125 0.828125 -1.234375 2.984375l-0.703125 3.328125l-1.34375 0zm7.421875 0l-1.359375 -8.296874l1.375 0l0.71875 4.562499q0.109375 0.75 0.28125 2.453125q0.40625 -0.890625 1.046875 -2.03125l2.765625 -4.984374l1.5 0l-4.75 8.296874l-1.578125 0zm7.921875 -9.859374l0.328125 -1.59375l1.40625 0l-0.328125 1.59375l-1.40625 0zm-2.0625 9.859374l1.734375 -8.296874l1.40625 0l-1.734375 8.296874l-1.40625 0zm9.3359375 -3.03125l1.40625 0.15625q-0.53125 1.546875 -1.515625 2.3125q-0.96875 0.75 -2.21875 0.75q-1.359375 0 -2.203125 -0.875q-0.828125 -0.875 -0.828125 -2.453125q0 -1.359375 0.53125 -2.671875q0.546875 -1.312499 1.546875 -1.984374q1.0 -0.6875 2.296875 -0.6875q1.328125 0 2.109375 0.75q0.78125 0.75 0.78125 1.999999l-1.390625 0.09375q0 -0.796875 -0.453125 -1.234374q-0.453125 -0.453125 -1.1875 -0.453125q-0.84375 0 -1.46875 0.546875q-0.625 0.53124905 -0.984375 1.640624q-0.359375 1.09375 -0.359375 2.109375q0 1.0625 0.46875 1.59375q0.46875 0.53125 1.15625 0.53125q0.6875 0 1.3125 -0.515625q0.640625 -0.53125 1.0 -1.609375zm8.359375 0.203125l1.375 0.140625q-0.296875 1.03125 -1.359375 1.953125q-1.0625 0.921875 -2.546875 0.921875q-0.921875 0 -1.6875 -0.421875q-0.765625 -0.4375 -1.171875 -1.25q-0.40625 -0.8125 -0.40625 -1.84375q0 -1.359375 0.625 -2.640625q0.640625 -1.281249 1.640625 -1.890624q1.0 -0.625 2.15625 -0.625q1.484375 0 2.375 0.921875q0.890625 0.921875 0.890625 2.515624q0 0.609375 -0.109375 1.25l-6.109375 0q-0.03125 0.234375 -0.03125 0.4375q0 1.15625 0.53125 1.78125q0.53125 0.609375 1.3125 0.609375q0.71875 0 1.421875 -0.46875q0.703125 -0.484375 1.09375 -1.390625zm-4.109375 -2.046875l4.65625 0q0.015625 -0.21875 0.015625 -0.3125q0 -1.0625 -0.53125 -1.624999q-0.53125 -0.578125 -1.375 -0.578125q-0.90625 0 -1.65625 0.625q-0.734375 0.62499905 -1.109375 1.890624z" fill-rule="nonzero"/><path fill="#000000" fill-opacity="0.0" d="m167.31233 166.48294l216.59843 0l0 25.291336l-216.59843 0z" fill-rule="evenodd"/><path fill="#000000" d="m250.29904 184.9886l2.390625 -11.453125l1.53125 0l-2.390625 11.453125l-1.53125 0zm4.0546875 0l1.734375 -8.296875l1.28125 0l-0.296875 1.4375q0.828125 -0.84375 1.546875 -1.234375q0.734375 -0.390625 1.5 -0.390625q1.0 0 1.578125 0.546875q0.578125 0.546875 0.578125 1.453125q0 0.46875 -0.203125 1.453125l-1.0625 5.03125l-1.40625 0l1.09375 -5.265625q0.171875 -0.765625 0.171875 -1.125q0 -0.421875 -0.296875 -0.671875q-0.28125 -0.265625 -0.8125 -0.265625q-1.09375 0 -1.9375 0.78125q-0.84375 0.78125 -1.25 2.6875l-0.796875 3.859375l-1.421875 0zm10.9140625 -9.859375l0.328125 -1.59375l1.40625 0l-0.34375 1.59375l-1.390625 0zm-4.484375 12.984375l0.25 -1.203125q0.484375 0.125 0.859375 0.125q0.453125 0 0.734375 -0.296875q0.265625 -0.296875 0.546875 -1.671875l1.75 -8.375l1.40625 0l-1.796875 8.640625q-0.328125 1.609375 -0.765625 2.203125q-0.59375 0.78125 -1.640625 0.78125q-0.5625 0 -1.34375 -0.203125zm12.1171875 -5.953125l1.375 0.140625q-0.296875 1.03125 -1.359375 1.953125q-1.0625 0.921875 -2.546875 0.921875q-0.921875 0 -1.6875 -0.421875q-0.765625 -0.4375 -1.171875 -1.25q-0.40625 -0.8125 -0.40625 -1.84375q0 -1.359375 0.625 -2.640625q0.640625 -1.28125 1.640625 -1.890625q1.0 -0.625 2.15625 -0.625q1.484375 0 2.375 0.921875q0.890625 0.921875 0.890625 2.515625q0 0.609375 -0.109375 1.25l-6.109375 0q-0.03125 0.234375 -0.03125 0.4375q0 1.15625 0.53125 1.78125q0.53125 0.609375 1.3125 0.609375q0.71875 0 1.421875 -0.46875q0.703125 -0.484375 1.09375 -1.390625zm-4.109375 -2.046875l4.65625 0q0.015625 -0.21875 0.015625 -0.3125q0 -1.0625 -0.53125 -1.625q-0.53125 -0.578125 -1.375 -0.578125q-0.90625 0 -1.65625 0.625q-0.734375 0.625 -1.109375 1.890625zm12.6484375 1.84375l1.40625 0.15625q-0.53125 1.546875 -1.515625 2.3125q-0.96875 0.75 -2.21875 0.75q-1.359375 0 -2.203125 -0.875q-0.828125 -0.875 -0.828125 -2.453125q0 -1.359375 0.53125 -2.671875q0.546875 -1.3125 1.546875 -1.984375q1.0 -0.6875 2.296875 -0.6875q1.328125 0 2.109375 0.75q0.78125 0.75 0.78125 2.0l-1.390625 0.09375q0 -0.796875 -0.453125 -1.234375q-0.453125 -0.453125 -1.1875 -0.453125q-0.84375 0 -1.46875 0.546875q-0.625 0.53125 -0.984375 1.640625q-0.359375 1.09375 -0.359375 2.109375q0 1.0625 0.46875 1.59375q0.46875 0.53125 1.15625 0.53125q0.6875 0 1.3125 -0.515625q0.640625 -0.53125 1.0 -1.609375zm5.578125 1.875l-0.234375 1.171875q-0.515625 0.125 -0.984375 0.125q-0.84375 0 -1.34375 -0.421875q-0.375 -0.3125 -0.375 -0.84375q0 -0.28125 0.203125 -1.265625l1.0 -4.8125l-1.109375 0l0.21875 -1.09375l1.125 0l0.421875 -2.046875l1.625 -0.96875l-0.640625 3.015625l1.390625 0l-0.234375 1.09375l-1.375 0l-0.96875 4.578125q-0.171875 0.875 -0.171875 1.046875q0 0.25 0.140625 0.390625q0.140625 0.125 0.46875 0.125q0.46875 0 0.84375 -0.09375zm1.3828125 -2.0q0 -2.421875 1.4375 -4.015625q1.171875 -1.3125 3.09375 -1.3125q1.5 0 2.40625 0.9375q0.921875 0.9375 0.921875 2.53125q0 1.421875 -0.578125 2.65625q-0.578125 1.234375 -1.640625 1.890625q-1.0625 0.65625 -2.25 0.65625q-0.96875 0 -1.765625 -0.40625q-0.78125 -0.421875 -1.203125 -1.171875q-0.421875 -0.765625 -0.421875 -1.765625zm1.421875 -0.140625q0 1.171875 0.5625 1.78125q0.5625 0.609375 1.421875 0.609375q0.453125 0 0.890625 -0.1875q0.453125 -0.1875 0.828125 -0.5625q0.390625 -0.375 0.65625 -0.84375q0.28125 -0.484375 0.4375 -1.046875q0.25 -0.765625 0.25 -1.484375q0 -1.125 -0.578125 -1.734375q-0.5625 -0.625 -1.421875 -0.625q-0.65625 0 -1.203125 0.3125q-0.546875 0.3125 -1.0 0.921875q-0.4375 0.609375 -0.640625 1.421875q-0.203125 0.8125 -0.203125 1.4375zm7.2265625 3.296875l1.734375 -8.296875l1.25 0l-0.34375 1.6875q0.640625 -0.953125 1.25 -1.40625q0.609375 -0.46875 1.25 -0.46875q0.421875 0 1.046875 0.296875l-0.578125 1.3125q-0.375 -0.265625 -0.8125 -0.265625q-0.734375 0 -1.515625 0.828125q-0.78125 0.828125 -1.234375 2.984375l-0.703125 3.328125l-1.34375 0z" fill-rule="nonzero"/></g></svg>