<svg version="1.1" viewBox="0.0 0.0 519.0 153.0" fill="none" stroke="none" stroke-linecap="square" stroke-miterlimit="10" xmlns:xlink="http://www.w3.org/1999/xlink" xmlns="http://www.w3.org/2000/svg"><clipPath id="p.0"><path d="m0 0l519.0 0l0 153.0l-519.0 0l0 -153.0z" clip-rule="nonzero"/></clipPath><g clip-path="url(#p.0)"><path fill="#000000" fill-opacity="0.0" d="m0 0l519.0 0l0 153.0l-519.0 0z" fill-rule="evenodd"/><path fill="#d9d9d9" d="m6.6299214 9.5800495l204.0315 0l0 44.88189l-204.0315 0z" fill-rule="evenodd"/><path stroke="#000000" stroke-width="2.0" stroke-linejoin="round" stroke-linecap="butt" d="m6.6299214 9.5800495l204.0315 0l0 44.88189l-204.0315 0z" fill-rule="evenodd"/><path fill="#000000" d="m96.23551 37.037247q-0.421875 0.1875 -0.78125 0.359375q-0.34375 0.15625 -0.90625 0.328125q-0.46875 0.15625 -1.03125 0.265625q-0.5625 0.109375 -1.234375 0.109375q-1.265625 0 -2.296875 -0.359375q-1.03125 -0.359375 -1.796875 -1.125q-0.75 -0.734375 -1.171875 -1.875q-0.421875 -1.15625 -0.421875 -2.671875q0 -1.4375019 0.40625 -2.562502q0.40625 -1.140625 1.171875 -1.921875q0.734375 -0.75 1.78125 -1.140625q1.0625 -0.40625 2.34375 -0.40625q0.9375 0 1.859375 0.234375q0.9375 0.21875 2.078125 0.78125l0 1.84375l-0.109375 0q-0.96875 -0.8125 -1.921875 -1.171875q-0.9375 -0.375 -2.015625 -0.375q-0.875 0 -1.59375 0.296875q-0.703125 0.28125 -1.25 0.875q-0.546875 0.59375 -0.84375 1.484375q-0.296875 0.890625 -0.296875 2.062502q0 1.234375 0.328125 2.125q0.328125 0.875 0.859375 1.421875q0.546875 0.578125 1.265625 0.859375q0.734375 0.28125 1.546875 0.28125q1.125 0 2.09375 -0.375q0.984375 -0.390625 1.828125 -1.15625l0.109375 0l0 1.8125zm3.5625 0.84375l-1.46875 0l0 -12.156252l1.46875 0l0 12.156252zm4.484375 -10.187502l-1.65625 0l0 -1.53125l1.65625 0l0 1.53125zm-0.09375 10.187502l-1.46875 0l0 -8.734377l1.46875 0l0 8.734377zm10.203125 -4.21875l-6.421875 0q0 0.8125 0.234375 1.40625q0.25 0.59375 0.671875 0.984375q0.40625 0.375 0.953125 0.5625q0.5625 0.1875 1.234375 0.1875q0.890625 0 1.796875 -0.359375q0.90625 -0.359375 1.28125 -0.703125l0.078125 0l0 1.609375q-0.734375 0.3125 -1.515625 0.53125q-0.765625 0.203125 -1.625 0.203125q-2.171875 0 -3.390625 -1.171875q-1.21875 -1.1875 -1.21875 -3.34375q0 -2.140627 1.171875 -3.390627q1.171875 -1.265625 3.078125 -1.265625q1.765625 0 2.71875 1.03125q0.953125 1.03125 0.953125 2.921877l0 0.796875zm-1.421875 -1.125q-0.015625 -1.1562519 -0.59375 -1.7812519q-0.5625 -0.640625 -1.734375 -0.640625q-1.1875 0 -1.890625 0.703125q-0.6875 0.6875 -0.78125 1.7187519l5.0 0zm10.953125 5.34375l-1.46875 0l0 -4.96875q0 -0.609375 -0.078125 -1.1250019q-0.0625 -0.53125 -0.25 -0.828125q-0.203125 -0.328125 -0.578125 -0.484375q-0.359375 -0.171875 -0.9375 -0.171875q-0.609375 0 -1.265625 0.296875q-0.65625 0.296875 -1.25 0.765625l0 6.515627l-1.46875 0l0 -8.734377l1.46875 0l0 0.96875q0.6875 -0.5625 1.421875 -0.875q0.734375 -0.328125 1.5 -0.328125q1.421875 0 2.15625 0.859375q0.75 0.84375 0.75 2.437502l0 5.671875zm7.3593826 -0.078125q-0.421875 0.109375 -0.90625 0.171875q-0.484375 0.078125 -0.875 0.078125q-1.328125 0 -2.0312576 -0.71875q-0.6875 -0.71875 -0.6875 -2.3125l0 -4.640627l-1.0 0l0 -1.234375l1.0 0l0 -2.5l1.4687576 0l0 2.5l3.03125 0l0 1.234375l-3.03125 0l0 3.984377q0 0.6875 0.03125 1.078125q0.03125 0.375 0.21875 0.71875q0.171875 0.3125 0.46875 0.453125q0.296875 0.140625 0.921875 0.140625q0.359375 0 0.75 -0.09375q0.390625 -0.109375 0.5625 -0.1875l0.078125 0l0 1.328125z" fill-rule="nonzero"/><path fill="#000000" fill-opacity="0.0" d="m114.314964 67.479004l65.32284 0l0 34.456688l-65.32284 0z" fill-rule="evenodd"/><path fill="#000000" d="m126.84747 80.70798l0.328125 -1.59375l1.40625 0l-0.328125 1.59375l-1.40625 0zm-2.0625 9.859375l1.734375 -8.296875l1.40625 0l-1.734375 8.296875l-1.40625 0zm3.6015625 0l1.734375 -8.296875l1.28125 0l-0.296875 1.4375q0.828125 -0.84375 1.546875 -1.234375q0.734375 -0.390625 1.5 -0.390625q1.0 0 1.578125 0.546875q0.578125 0.546875 0.578125 1.453125q0 0.46875 -0.203125 1.453125l-1.0625 5.03125l-1.40625 0l1.09375 -5.265625q0.171875 -0.765625 0.171875 -1.125q0 -0.421875 -0.296875 -0.671875q-0.28125 -0.265625 -0.8125 -0.265625q-1.09375 0 -1.9375 0.78125q-0.84375 0.78125 -1.25 2.6875l-0.796875 3.859375l-1.421875 0zm10.9140625 -9.859375l0.328125 -1.59375l1.40625 0l-0.34375 1.59375l-1.390625 0zm-4.484375 12.984375l0.25 -1.203125q0.484375 0.125 0.859375 0.125q0.453125 0 0.734375 -0.296875q0.265625 -0.296875 0.546875 -1.671875l1.75 -8.375l1.40625 0l-1.796875 8.640625q-0.328125 1.609375 -0.765625 2.203125q-0.59375 0.78125 -1.640625 0.78125q-0.5625 0 -1.34375 -0.203125zm12.1171875 -5.953125l1.375 0.140625q-0.296875 1.03125 -1.359375 1.953125q-1.0625 0.921875 -2.546875 0.921875q-0.921875 0 -1.6875 -0.421875q-0.765625 -0.4375 -1.171875 -1.25q-0.40625 -0.8125 -0.40625 -1.84375q0 -1.359375 0.625 -2.640625q0.640625 -1.28125 1.640625 -1.890625q1.0 -0.625 2.15625 -0.625q1.484375 0 2.375 0.921875q0.890625 0.921875 0.890625 2.515625q0 0.609375 -0.109375 1.25l-6.109375 0q-0.03125 0.234375 -0.03125 0.4375q0 1.15625 0.53125 1.78125q0.53125 0.609375 1.3125 0.609375q0.71875 0 1.421875 -0.46875q0.703125 -0.484375 1.09375 -1.390625zm-4.109375 -2.046875l4.65625 0q0.015625 -0.21875 0.015625 -0.3125q0 -1.0625 -0.53125 -1.625q-0.53125 -0.578125 -1.375 -0.578125q-0.90625 0 -1.65625 0.625q-0.734375 0.625 -1.109375 1.890625zm12.6484375 1.84375l1.40625 0.15625q-0.53125 1.546875 -1.515625 2.3125q-0.96875 0.75 -2.21875 0.75q-1.359375 0 -2.203125 -0.875q-0.828125 -0.875 -0.828125 -2.453125q0 -1.359375 0.53125 -2.671875q0.546875 -1.3125 1.546875 -1.984375q1.0 -0.6875 2.296875 -0.6875q1.328125 0 2.109375 0.75q0.78125 0.75 0.78125 2.0l-1.390625 0.09375q0 -0.796875 -0.453125 -1.234375q-0.453125 -0.453125 -1.1875 -0.453125q-0.84375 0 -1.46875 0.546875q-0.625 0.53125 -0.984375 1.640625q-0.359375 1.09375 -0.359375 2.109375q0 1.0625 0.46875 1.59375q0.46875 0.53125 1.15625 0.53125q0.6875 0 1.3125 -0.515625q0.640625 -0.53125 1.0 -1.609375zm5.578125 1.875l-0.234375 1.171875q-0.515625 0.125 -0.984375 0.125q-0.84375 0 -1.34375 -0.421875q-0.375 -0.3125 -0.375 -0.84375q0 -0.28125 0.203125 -1.265625l1.0 -4.8125l-1.109375 0l0.21875 -1.09375l1.125 0l0.421875 -2.046875l1.625 -0.96875l-0.640625 3.015625l1.390625 0l-0.234375 1.09375l-1.375 0l-0.96875 4.578125q-0.171875 0.875 -0.171875 1.046875q0 0.25 0.140625 0.390625q0.140625 0.125 0.46875 0.125q0.46875 0 0.84375 -0.09375zm1.2734375 -1.6875l1.40625 -0.078125q0 0.609375 0.1875 1.046875q0.1875 0.421875 0.6875 0.703125q0.515625 0.265625 1.1875 0.265625q0.9375 0 1.40625 -0.375q0.46875 -0.375 0.46875 -0.890625q0 -0.359375 -0.28125 -0.6875q-0.296875 -0.328125 -1.421875 -0.8125q-1.109375 -0.484375 -1.421875 -0.671875q-0.53125 -0.328125 -0.796875 -0.75q-0.265625 -0.4375 -0.265625 -1.0q0 -0.984375 0.78125 -1.6875q0.78125 -0.703125 2.1875 -0.703125q1.5625 0 2.375 0.71875q0.828125 0.71875 0.859375 1.90625l-1.390625 0.09375q-0.03125 -0.75 -0.53125 -1.1875q-0.5 -0.4375 -1.40625 -0.4375q-0.734375 0 -1.140625 0.34375q-0.40625 0.328125 -0.40625 0.71875q0 0.390625 0.34375 0.6875q0.234375 0.203125 1.21875 0.625q1.625 0.703125 2.046875 1.109375q0.671875 0.640625 0.671875 1.578125q0 0.609375 -0.390625 1.203125q-0.375 0.59375 -1.15625 0.953125q-0.765625 0.359375 -1.828125 0.359375q-1.4375 0 -2.4375 -0.71875q-1.015625 -0.703125 -0.953125 -2.3125z" fill-rule="nonzero"/><path fill="#000000" fill-opacity="0.0" d="m260.22046 101.93716l-151.55905 -47.464565" fill-rule="evenodd"/><path stroke="#000000" stroke-width="2.0" stroke-linejoin="round" stroke-linecap="butt" d="m260.22046 101.937164l-140.10748 -43.878223" fill-rule="evenodd"/><path fill="#000000" stroke="#000000" stroke-width="2.0" stroke-linecap="butt" d="m121.10025 54.906456l-9.648659 0.43995285l7.674103 5.865017z" fill-rule="evenodd"/><path fill="#d9d9d9" d="m158.20473 101.93716l204.03148 0l0 44.88189l-204.03148 0z" fill-rule="evenodd"/><path stroke="#000000" stroke-width="2.0" stroke-linejoin="round" stroke-linecap="butt" d="m158.20473 101.93716l204.03148 0l0 44.88189l-204.03148 0z" fill-rule="evenodd"/><path fill="#000000" d="m234.35329 130.2381l-4.59375 0l0 -1.1875l1.515625 0l0 -9.265617l-1.515625 0l0 -1.1875l4.59375 0l0 1.1875l-1.53125 0l0 9.265617l1.53125 0l0 1.1875zm9.8125 0l-1.46875 0l0 -4.9687424q0 -0.609375 -0.078125 -1.125q-0.0625 -0.53125 -0.25 -0.828125q-0.203125 -0.328125 -0.578125 -0.484375q-0.359375 -0.171875 -0.9375 -0.171875q-0.609375 0 -1.265625 0.296875q-0.65625 0.296875 -1.25 0.765625l0 6.5156174l-1.46875 0l0 -8.734367l1.46875 0l0 0.96875q0.6875 -0.5625 1.421875 -0.875q0.734375 -0.328125 1.5 -0.328125q1.421875 0 2.15625 0.859375q0.75 0.84375 0.75 2.4375l0 5.6718674zm5.546875 -10.187492l-1.65625 0l0 -1.53125l1.65625 0l0 1.53125zm-0.09375 10.406242q0 1.53125 -0.78125 2.3125q-0.78125 0.78125 -2.09375 0.78125q-0.3125 0 -0.828125 -0.0625q-0.515625 -0.0625 -0.859375 -0.15625l0 -1.40625l0.078125 0q0.21875 0.09375 0.59375 0.203125q0.375 0.109375 0.71875 0.109375q0.5625 0 0.90625 -0.15625q0.34375 -0.15625 0.515625 -0.46875q0.171875 -0.3125 0.21875 -0.765625q0.0625 -0.4375 0.0625 -1.078125l0 -7.0312424l-1.828125 0l0 -1.234375l3.296875 0l0 8.953117zm10.179672 -4.4374924l-6.4218597 0q0 0.8125 0.234375 1.40625q0.25 0.5937424 0.671875 0.9843674q0.40625 0.375 0.953125 0.5625q0.5625 0.1875 1.2343597 0.1875q0.890625 0 1.796875 -0.359375q0.90625 -0.359375 1.28125 -0.703125l0.078125 0l0 1.609375q-0.734375 0.3125 -1.515625 0.53125q-0.765625 0.203125 -1.625 0.203125q-2.1718597 0 -3.3906097 -1.171875q-1.21875 -1.1875 -1.21875 -3.3437424q0 -2.140625 1.171875 -3.390625q1.171875 -1.265625 3.0781097 -1.265625q1.765625 0 2.71875 1.03125q0.953125 1.03125 0.953125 2.921875l0 0.796875zm-1.421875 -1.125q-0.015625 -1.15625 -0.59375 -1.78125q-0.5625 -0.640625 -1.734375 -0.640625q-1.1874847 0 -1.8906097 0.703125q-0.6875 0.6875 -0.78125 1.71875l4.9999847 0zm10.109375 4.7968674q-0.734375 0.34375 -1.40625 0.546875q-0.65625 0.203125 -1.390625 0.203125q-0.953125 0 -1.75 -0.28125q-0.78125 -0.28125 -1.34375 -0.84375q-0.5625 -0.5625 -0.875 -1.4218674q-0.3125 -0.859375 -0.3125 -2.015625q0 -2.140625 1.171875 -3.359375q1.171875 -1.21875 3.109375 -1.21875q0.75 0 1.46875 0.21875q0.71875 0.203125 1.328125 0.515625l0 1.625l-0.078125 0q-0.671875 -0.515625 -1.390625 -0.796875q-0.71875 -0.28125 -1.390625 -0.28125q-1.25 0 -1.984375 0.84375q-0.71875 0.828125 -0.71875 2.453125q0 1.578125 0.703125 2.4374924q0.71875 0.84375 2.0 0.84375q0.4375 0 0.890625 -0.109375q0.46875 -0.125 0.84375 -0.3125q0.3125 -0.171875 0.59375 -0.34375q0.28125 -0.1875 0.453125 -0.328125l0.078125 0l0 1.625zm6.4140625 0.46875q-0.421875 0.109375 -0.90625 0.171875q-0.484375 0.078125 -0.875 0.078125q-1.328125 0 -2.03125 -0.71875q-0.6875 -0.71875 -0.6875 -2.3124924l0 -4.640625l-1.0 0l0 -1.234375l1.0 0l0 -2.5l1.46875 0l0 2.5l3.03125 0l0 1.234375l-3.03125 0l0 3.984375q0 0.6875 0.03125 1.078125q0.03125 0.37499237 0.21875 0.7187424q0.171875 0.3125 0.46875 0.453125q0.296875 0.140625 0.921875 0.140625q0.359375 0 0.75 -0.09375q0.390625 -0.109375 0.5625 -0.1875l0.078125 0l0 1.328125zm9.2109375 -4.2812424q0 2.1249924 -1.09375 3.3749924q-1.09375 1.234375 -2.9375 1.234375q-1.84375 0 -2.9375 -1.234375q-1.09375 -1.25 -1.09375 -3.3749924q0 -2.140625 1.09375 -3.375q1.09375 -1.234375 2.9375 -1.234375q1.84375 0 2.9375 1.234375q1.09375 1.234375 1.09375 3.375zm-1.515625 0q0 -1.703125 -0.671875 -2.515625q-0.65625 -0.828125 -1.84375 -0.828125q-1.1875 0 -1.859375 0.828125q-0.65625 0.8125 -0.65625 2.515625q0 1.640625 0.65625 2.4843674q0.671875 0.84375 1.859375 0.84375q1.171875 0 1.84375 -0.828125q0.671875 -0.8437424 0.671875 -2.4999924zm9.2265625 -2.765625l-0.078125 0q-0.328125 -0.078125 -0.640625 -0.109375q-0.296875 -0.046875 -0.71875 -0.046875q-0.6875 0 -1.328125 0.3125q-0.625 0.296875 -1.203125 0.765625l0 6.2031174l-1.46875 0l0 -8.734367l1.46875 0l0 1.296875q0.875 -0.703125 1.53125 -1.0q0.671875 -0.296875 1.375 -0.296875q0.375 0 0.546875 0.03125q0.171875 0.015625 0.515625 0.0625l0 1.515625z" fill-rule="nonzero"/><path fill="#d9d9d9" d="m309.7743 9.574013l204.0315 0l0 44.88189l-204.0315 0z" fill-rule="evenodd"/><path stroke="#000000" stroke-width="2.0" stroke-linejoin="round" stroke-linecap="butt" d="m309.7743 9.574013l204.0315 0l0 44.88189l-204.0315 0z" fill-rule="evenodd"/><path fill="#000000" d="m392.29395 25.046833q0 0.6875 -0.3125 1.359375q-0.3125 0.65625 -0.890625 1.109375q-0.625 0.5 -1.453125 0.796875q-0.828125 0.28125 -2.0 0.28125q-1.265625 0 -2.265625 -0.234375q-1.0 -0.25 -2.046875 -0.703125l0 -1.9375l0.109375 0q0.890625 0.734375 2.046875 1.140625q1.15625 0.390625 2.171875 0.390625q1.4375 0 2.234375 -0.53125q0.796875 -0.546875 0.796875 -1.453125q0 -0.765625 -0.375 -1.125q-0.375 -0.375 -1.15625 -0.578125q-0.578125 -0.15625 -1.265625 -0.25q-0.6875 -0.109375 -1.453125 -0.265625q-1.546875 -0.328125 -2.296875 -1.125q-0.734375 -0.796875 -0.734375 -2.0625q0 -1.46875 1.234375 -2.390625q1.234375 -0.9375 3.125 -0.9375q1.234375 0 2.25 0.234375q1.03125 0.234375 1.8125 0.578125l0 1.828125l-0.109375 0q-0.65625 -0.5625 -1.75 -0.9375q-1.078125 -0.375 -2.203125 -0.375q-1.25 0 -2.0 0.515625q-0.75 0.515625 -0.75 1.328125q0 0.734375 0.375 1.15625q0.375 0.40625 1.3125 0.625q0.5 0.109375 1.421875 0.265625q0.921875 0.15625 1.5625 0.3125q1.296875 0.34375 1.953125 1.046875q0.65625 0.6875 0.65625 1.9375zm9.671875 -0.890625l-6.421875 0q0 0.8125 0.234375 1.40625q0.25 0.59375 0.671875 0.984375q0.40625 0.375 0.953125 0.5625q0.5625 0.1875 1.234375 0.1875q0.890625 0 1.796875 -0.359375q0.90625 -0.359375 1.28125 -0.703125l0.078125 0l0 1.609375q-0.734375 0.3125 -1.515625 0.53125q-0.765625 0.203125 -1.625 0.203125q-2.171875 0 -3.390625 -1.171875q-1.21875 -1.1875 -1.21875 -3.34375q0 -2.140625 1.171875 -3.390625q1.171875 -1.265625 3.078125 -1.265625q1.765625 0 2.71875 1.03125q0.953125 1.03125 0.953125 2.921875l0 0.796875zm-1.421875 -1.125q-0.015625 -1.15625 -0.59375 -1.78125q-0.5625 -0.640625 -1.734375 -0.640625q-1.1875 0 -1.890625 0.703125q-0.6875 0.6875 -0.78125 1.71875l5.0 0zm9.09375 -1.78125l-0.078125 0q-0.328125 -0.078125 -0.640625 -0.109375q-0.296875 -0.046875 -0.71875 -0.046875q-0.6875 0 -1.328125 0.3125q-0.625 0.296875 -1.203125 0.765625l0 6.203125l-1.46875 0l0 -8.734375l1.46875 0l0 1.296875q0.875 -0.703125 1.53125 -1.0q0.671875 -0.296875 1.375 -0.296875q0.375 0 0.546875 0.03125q0.171875 0.015625 0.515625 0.0625l0 1.515625zm8.9375 -1.609375l-3.53125 8.734375l-1.484375 0l-3.5 -8.734375l1.59375 0l2.703125 6.953125l2.671875 -6.953125l1.546875 0zm3.5 -1.453125l-1.65625 0l0 -1.53125l1.65625 0l0 1.53125zm-0.09375 10.1875l-1.46875 0l0 -8.734375l1.46875 0l0 8.734375zm9.359375 -0.546875q-0.734375 0.34375 -1.40625 0.546875q-0.65625 0.203125 -1.390625 0.203125q-0.953125 0 -1.75 -0.28125q-0.78125 -0.28125 -1.34375 -0.84375q-0.5625 -0.5625 -0.875 -1.421875q-0.3125 -0.859375 -0.3125 -2.015625q0 -2.140625 1.171875 -3.359375q1.171875 -1.21875 3.109375 -1.21875q0.75 0 1.46875 0.21875q0.71875 0.203125 1.328125 0.515625l0 1.625l-0.078125 0q-0.671875 -0.515625 -1.390625 -0.796875q-0.71875 -0.28125 -1.390625 -0.28125q-1.25 0 -1.984375 0.84375q-0.71875 0.828125 -0.71875 2.453125q0 1.578125 0.703125 2.4375q0.71875 0.84375 2.0 0.84375q0.4375 0 0.890625 -0.109375q0.46875 -0.125 0.84375 -0.3125q0.3125 -0.171875 0.59375 -0.34375q0.28125 -0.1875 0.453125 -0.328125l0.078125 0l0 1.625zm9.1796875 -3.671875l-6.421875 0q0 0.8125 0.234375 1.40625q0.25 0.59375 0.671875 0.984375q0.40625 0.375 0.953125 0.5625q0.5625 0.1875 1.234375 0.1875q0.890625 0 1.796875 -0.359375q0.90625 -0.359375 1.28125 -0.703125l0.078125 0l0 1.609375q-0.734375 0.3125 -1.515625 0.53125q-0.765625 0.203125 -1.625 0.203125q-2.171875 0 -3.390625 -1.171875q-1.21875 -1.1875 -1.21875 -3.34375q0 -2.140625 1.171875 -3.390625q1.171875 -1.265625 3.078125 -1.265625q1.765625 0 2.71875 1.03125q0.953125 1.03125 0.953125 2.921875l0 0.796875zm-1.421875 -1.125q-0.015625 -1.15625 -0.59375 -1.78125q-0.5625 -0.640625 -1.734375 -0.640625q-1.1875 0 -1.890625 0.703125q-0.6875 0.6875 -0.78125 1.71875l5.0 0z" fill-rule="nonzero"/><path fill="#000000" d="m374.3369 50.593708l-1.796875 0q-1.375 -1.578125 -2.140625 -3.453125q-0.765625 -1.890625 -0.765625 -4.234375q0 -2.359375 0.765625 -4.234375q0.765625 -1.875 2.140625 -3.453125l1.796875 0l0 0.078125q-0.640625 0.5625 -1.21875 1.3125q-0.5625 0.75 -1.0625 1.734375q-0.46875 0.96875 -0.765625 2.125q-0.28125 1.15625 -0.28125 2.4375q0 1.328125 0.28125 2.4375q0.28125 1.109375 0.765625 2.125q0.46875 0.953125 1.0625 1.734375q0.609375 0.78125 1.21875 1.3125l0 0.078125zm6.8125 -3.21875l-4.59375 0l0 -1.1875l1.515625 0l0 -9.265625l-1.515625 0l0 -1.1875l4.59375 0l0 1.1875l-1.53125 0l0 9.265625l1.53125 0l0 1.1875zm9.8125 0l-1.46875 0l0 -4.96875q0 -0.609375 -0.078125 -1.125q-0.0625 -0.53125 -0.25 -0.828125q-0.203125 -0.328125 -0.578125 -0.484375q-0.359375 -0.171875 -0.9375 -0.171875q-0.609375 0 -1.265625 0.296875q-0.65625 0.296875 -1.25 0.765625l0 6.515625l-1.46875 0l0 -8.734375l1.46875 0l0 0.96875q0.6875 -0.5625 1.421875 -0.875q0.734375 -0.328125 1.5 -0.328125q1.421875 0 2.15625 0.859375q0.75 0.84375 0.75 2.4375l0 5.671875zm7.359375 -0.078125q-0.421875 0.109375 -0.90625 0.171875q-0.484375 0.078125 -0.875 0.078125q-1.328125 0 -2.03125 -0.71875q-0.6875 -0.71875 -0.6875 -2.3125l0 -4.640625l-1.0 0l0 -1.234375l1.0 0l0 -2.5l1.46875 0l0 2.5l3.03125 0l0 1.234375l-3.03125 0l0 3.984375q0 0.6875 0.03125 1.078125q0.03125 0.375 0.21875 0.71875q0.171875 0.3125 0.46875 0.453125q0.296875 0.140625 0.921875 0.140625q0.359375 0 0.75 -0.09375q0.390625 -0.109375 0.5625 -0.1875l0.078125 0l0 1.328125zm9.0703125 -4.140625l-6.421875 0q0 0.8125 0.234375 1.40625q0.25 0.59375 0.671875 0.984375q0.40625 0.375 0.953125 0.5625q0.5625 0.1875 1.234375 0.1875q0.890625 0 1.796875 -0.359375q0.90625 -0.359375 1.28125 -0.703125l0.078125 0l0 1.609375q-0.734375 0.3125 -1.515625 0.53125q-0.765625 0.203125 -1.625 0.203125q-2.171875 0 -3.390625 -1.171875q-1.21875 -1.1875 -1.21875 -3.34375q0 -2.140625 1.171875 -3.390625q1.171875 -1.265625 3.078125 -1.265625q1.765625 0 2.71875 1.03125q0.953125 1.03125 0.953125 2.921875l0 0.796875zm-1.421875 -1.125q-0.015625 -1.15625 -0.59375 -1.78125q-0.5625 -0.640625 -1.734375 -0.640625q-1.1875 0 -1.890625 0.703125q-0.6875 0.6875 -0.78125 1.71875l5.0 0zm9.09375 -1.78125l-0.078125 0q-0.328125 -0.078125 -0.640625 -0.109375q-0.296875 -0.046875 -0.71875 -0.046875q-0.6875 0 -1.328125 0.3125q-0.625 0.296875 -1.203125 0.765625l0 6.203125l-1.46875 0l0 -8.734375l1.46875 0l0 1.296875q0.875 -0.703125 1.53125 -1.0q0.671875 -0.296875 1.375 -0.296875q0.375 0 0.546875 0.03125q0.171875 0.015625 0.515625 0.0625l0 1.515625zm6.078125 -3.609375l-0.078125 0q-0.234375 -0.078125 -0.625 -0.140625q-0.390625 -0.078125 -0.6875 -0.078125q-0.953125 0 -1.375 0.421875q-0.421875 0.40625 -0.421875 1.5l0 0.296875l2.640625 0l0 1.234375l-2.59375 0l0 7.5l-1.46875 0l0 -7.5l-1.0 0l0 -1.234375l1.0 0l0 -0.28125q0 -1.5625 0.765625 -2.390625q0.78125 -0.828125 2.234375 -0.828125q0.5 0 0.890625 0.046875q0.390625 0.046875 0.71875 0.109375l0 1.34375zm7.71875 10.734375l-1.46875 0l0 -0.9375q-0.1875 0.140625 -0.53125 0.375q-0.328125 0.234375 -0.640625 0.375q-0.359375 0.1875 -0.84375 0.3125q-0.46875 0.125 -1.109375 0.125q-1.1875 0 -2.015625 -0.78125q-0.8125 -0.796875 -0.8125 -2.0q0 -1.0 0.421875 -1.609375q0.4375 -0.609375 1.21875 -0.96875q0.796875 -0.34375 1.90625 -0.46875q1.125 -0.125 2.40625 -0.1875l0 -0.234375q0 -0.5 -0.171875 -0.828125q-0.171875 -0.328125 -0.5 -0.515625q-0.3125 -0.171875 -0.75 -0.234375q-0.4375 -0.0625 -0.921875 -0.0625q-0.578125 0 -1.296875 0.15625q-0.703125 0.140625 -1.453125 0.4375l-0.078125 0l0 -1.5q0.421875 -0.109375 1.234375 -0.25q0.8125 -0.140625 1.609375 -0.140625q0.921875 0 1.59375 0.15625q0.6875 0.140625 1.1875 0.515625q0.5 0.359375 0.75 0.9375q0.265625 0.5625 0.265625 1.40625l0 5.921875zm-1.46875 -2.15625l0 -2.421875q-0.671875 0.03125 -1.578125 0.109375q-0.90625 0.078125 -1.4375 0.234375q-0.640625 0.171875 -1.03125 0.5625q-0.390625 0.375 -0.390625 1.03125q0 0.75 0.453125 1.140625q0.453125 0.375 1.390625 0.375q0.765625 0 1.40625 -0.296875q0.640625 -0.3125 1.1875 -0.734375zm10.75 1.609375q-0.734375 0.34375 -1.40625 0.546875q-0.65625 0.203125 -1.390625 0.203125q-0.953125 0 -1.75 -0.28125q-0.78125 -0.28125 -1.34375 -0.84375q-0.5625 -0.5625 -0.875 -1.421875q-0.3125 -0.859375 -0.3125 -2.015625q0 -2.140625 1.171875 -3.359375q1.171875 -1.21875 3.109375 -1.21875q0.75 0 1.46875 0.21875q0.71875 0.203125 1.328125 0.515625l0 1.625l-0.078125 0q-0.671875 -0.515625 -1.390625 -0.796875q-0.71875 -0.28125 -1.390625 -0.28125q-1.25 0 -1.984375 0.84375q-0.71875 0.828125 -0.71875 2.453125q0 1.578125 0.703125 2.4375q0.71875 0.84375 2.0 0.84375q0.4375 0 0.890625 -0.109375q0.46875 -0.125 0.84375 -0.3125q0.3125 -0.171875 0.59375 -0.34375q0.28125 -0.1875 0.453125 -0.328125l0.078125 0l0 1.625zm9.1796875 -3.671875l-6.421875 0q0 0.8125 0.234375 1.40625q0.25 0.59375 0.671875 0.984375q0.40625 0.375 0.953125 0.5625q0.5625 0.1875 1.234375 0.1875q0.890625 0 1.796875 -0.359375q0.90625 -0.359375 1.28125 -0.703125l0.078125 0l0 1.609375q-0.734375 0.3125 -1.515625 0.53125q-0.765625 0.203125 -1.625 0.203125q-2.171875 0 -3.390625 -1.171875q-1.21875 -1.1875 -1.21875 -3.34375q0 -2.140625 1.171875 -3.390625q1.171875 -1.265625 3.078125 -1.265625q1.765625 0 2.71875 1.03125q0.953125 1.03125 0.953125 2.921875l0 0.796875zm-1.421875 -1.125q-0.015625 -1.15625 -0.59375 -1.78125q-0.5625 -0.640625 -1.734375 -0.640625q-1.1875 0 -1.890625 0.703125q-0.6875 0.6875 -0.78125 1.71875l5.0 0zm8.0625 0.875q0 2.34375 -0.765625 4.234375q-0.765625 1.875 -2.15625 3.453125l-1.78125 0l0 -0.078125q0.59375 -0.53125 1.203125 -1.3125q0.609375 -0.78125 1.0625 -1.734375q0.484375 -1.015625 0.765625 -2.125q0.296875 -1.109375 0.296875 -2.4375q0 -1.28125 -0.296875 -2.4375q-0.28125 -1.15625 -0.765625 -2.125q-0.484375 -0.984375 -1.0625 -1.734375q-0.578125 -0.75 -1.203125 -1.3125l0 -0.078125l1.78125 0q1.390625 1.578125 2.15625 3.453125q0.765625 1.875 0.765625 4.234375z" fill-rule="nonzero"/><path fill="#000000" fill-opacity="0.0" d="m260.22046 101.93716l151.55908 -47.49606" fill-rule="evenodd"/><path stroke="#000000" stroke-width="2.0" stroke-linejoin="round" stroke-linecap="butt" stroke-dasharray="8.0,6.0" d="m260.22046 101.937164l140.10818 -43.907555" fill-rule="evenodd"/><path fill="#000000" stroke="#000000" stroke-width="2.0" stroke-linecap="butt" d="m401.31653 61.181908l7.6729736 -5.8664665l-9.648743 -0.43812943z" fill-rule="evenodd"/><path fill="#000000" fill-opacity="0.0" d="m210.66142 32.020996l99.11812 0" fill-rule="evenodd"/><path stroke="#000000" stroke-width="2.0" stroke-linejoin="round" stroke-linecap="butt" d="m210.66142 32.020996l87.11812 0" fill-rule="evenodd"/><path fill="#000000" stroke="#000000" stroke-width="2.0" stroke-linecap="butt" d="m297.77954 35.32446l9.076172 -3.303463l-9.076172 -3.3034668z" fill-rule="evenodd"/><path fill="#000000" fill-opacity="0.0" d="m210.66142 9.580052l99.11812 0l0 25.29134l-99.11812 0z" fill-rule="evenodd"/><path fill="#000000" d="m249.52516 26.585722q-1.5 1.6875 -3.0625 1.6875q-0.953125 0 -1.546875 -0.546875q-0.59375 -0.5625 -0.59375 -1.359375q0 -0.515625 0.265625 -1.796875l1.0 -4.78125l1.421875 0l-1.109375 5.296875q-0.140625 0.671875 -0.140625 1.03125q0 0.46875 0.28125 0.734375q0.28125 0.265625 0.84375 0.265625q0.59375 0 1.15625 -0.28125q0.5625 -0.296875 0.96875 -0.78125q0.421875 -0.5 0.671875 -1.171875q0.171875 -0.4375 0.40625 -1.515625l0.75 -3.578125l1.40625 0l-1.734375 8.296875l-1.296875 0l0.3125 -1.5zm3.3671875 -1.34375l1.40625 -0.078125q0 0.609375 0.1875 1.046875q0.1875 0.421875 0.6875 0.703125q0.515625 0.265625 1.1874847 0.265625q0.9375 0 1.40625 -0.375q0.46875 -0.375 0.46875 -0.890625q0 -0.359375 -0.28125 -0.6875q-0.296875 -0.328125 -1.421875 -0.8125q-1.1093597 -0.484375 -1.4218597 -0.671875q-0.53125 -0.328125 -0.796875 -0.75q-0.265625 -0.4375 -0.265625 -1.0q0 -0.984375 0.78125 -1.6875q0.78125 -0.703125 2.1874847 -0.703125q1.5625 0 2.375 0.71875q0.828125 0.71875 0.859375 1.90625l-1.390625 0.09375q-0.03125 -0.75 -0.53125 -1.1875q-0.5 -0.4375 -1.40625 -0.4375q-0.734375 0 -1.1406097 0.34375q-0.40625 0.328125 -0.40625 0.71875q0 0.390625 0.34375 0.6875q0.234375 0.203125 1.2187347 0.625q1.625 0.703125 2.046875 1.109375q0.671875 0.640625 0.671875 1.578125q0 0.609375 -0.390625 1.203125q-0.375 0.59375 -1.15625 0.953125q-0.765625 0.359375 -1.828125 0.359375q-1.4374847 0 -2.4374847 -0.71875q-1.015625 -0.703125 -0.953125 -2.3125zm13.95311 0.015625l1.375 0.140625q-0.296875 1.03125 -1.359375 1.953125q-1.0625 0.921875 -2.546875 0.921875q-0.921875 0 -1.6875 -0.421875q-0.765625 -0.4375 -1.171875 -1.25q-0.40625 -0.8125 -0.40625 -1.84375q0 -1.359375 0.625 -2.640625q0.640625 -1.28125 1.640625 -1.890625q1.0 -0.625 2.15625 -0.625q1.484375 0 2.375 0.921875q0.890625 0.921875 0.890625 2.515625q0 0.609375 -0.109375 1.25l-6.109375 0q-0.03125 0.234375 -0.03125 0.4375q0 1.15625 0.53125 1.78125q0.53125 0.609375 1.3125 0.609375q0.71875 0 1.421875 -0.46875q0.703125 -0.484375 1.09375 -1.390625zm-4.109375 -2.046875l4.65625 0q0.015625 -0.21875 0.015625 -0.3125q0 -1.0625 -0.53125 -1.625q-0.53125 -0.578125 -1.375 -0.578125q-0.90625 0 -1.65625 0.625q-0.734375 0.625 -1.109375 1.890625zm7.0546875 2.03125l1.40625 -0.078125q0 0.609375 0.1875 1.046875q0.1875 0.421875 0.6875 0.703125q0.515625 0.265625 1.1875 0.265625q0.9375 0 1.40625 -0.375q0.46875 -0.375 0.46875 -0.890625q0 -0.359375 -0.28125 -0.6875q-0.296875 -0.328125 -1.421875 -0.8125q-1.109375 -0.484375 -1.421875 -0.671875q-0.53125 -0.328125 -0.796875 -0.75q-0.265625 -0.4375 -0.265625 -1.0q0 -0.984375 0.78125 -1.6875q0.78125 -0.703125 2.1875 -0.703125q1.5625 0 2.375 0.71875q0.828125 0.71875 0.859375 1.90625l-1.390625 0.09375q-0.03125 -0.75 -0.53125 -1.1875q-0.5 -0.4375 -1.40625 -0.4375q-0.734375 0 -1.140625 0.34375q-0.40625 0.328125 -0.40625 0.71875q0 0.390625 0.34375 0.6875q0.234375 0.203125 1.21875 0.625q1.625 0.703125 2.046875 1.109375q0.671875 0.640625 0.671875 1.578125q0 0.609375 -0.390625 1.203125q-0.375 0.59375 -1.15625 0.953125q-0.765625 0.359375 -1.828125 0.359375q-1.4375 0 -2.4375 -0.71875q-1.015625 -0.703125 -0.953125 -2.3125z" fill-rule="nonzero"/></g></svg>