<svg version="1.1" viewBox="0.0 0.0 823.0 246.0" fill="none" stroke="none" stroke-linecap="square" stroke-miterlimit="10" xmlns:xlink="http://www.w3.org/1999/xlink" xmlns="http://www.w3.org/2000/svg"><clipPath id="p.0"><path d="m0 0l823.0 0l0 246.0l-823.0 0l0 -246.0z" clip-rule="nonzero"/></clipPath><g clip-path="url(#p.0)"><path fill="#000000" fill-opacity="0.0" d="m0 0l823.0 0l0 246.0l-823.0 0z" fill-rule="evenodd"/><path fill="#d9d9d9" d="m4.8320208 6.233596l328.44095 0l0 60.472443l-328.44095 0z" fill-rule="evenodd"/><path stroke="#000000" stroke-width="2.0" stroke-linejoin="round" stroke-linecap="butt" d="m4.8320208 6.233596l328.44095 0l0 60.472443l-328.44095 0z" fill-rule="evenodd"/><path fill="#000000" d="m82.335075 32.389816l-5.359375 0l0 -1.3906269l1.78125 0l0 -10.78125l-1.78125 0l0 -1.390625l5.359375 0l0 1.390625l-1.78125 0l0 10.78125l1.78125 0l0 1.3906269zm11.430511 0l-1.703125 0l0 -5.796877q0 -0.703125 -0.09375 -1.3125q-0.078125 -0.609375 -0.296875 -0.96875q-0.21875 -0.375 -0.65625 -0.5625q-0.421875 -0.1875 -1.109375 -0.1875q-0.703125 0 -1.46875 0.34375q-0.765625 0.34375 -1.46875 0.890625l0 7.593752l-1.703125 0l0 -10.171877l1.703125 0l0 1.125q0.8125 -0.65625 1.65625 -1.03125q0.859375 -0.375 1.765625 -0.375q1.65625 0 2.515625 1.0q0.859375 0.984375 0.859375 2.84375l0 6.609377zm12.102783 -10.171877l-4.109375 10.171877l-1.734375 0l-4.078125 -10.171877l1.84375 0l3.15625 8.09375l3.125 -8.09375l1.796875 0zm10.75946 5.265625l-7.5 0q0 0.9375 0.28125 1.640625q0.28125 0.6875 0.78125 1.140625q0.46875 0.4375 1.109375 0.65625q0.65625 0.21875 1.453125 0.21875q1.03125 0 2.078125 -0.421875q1.0625 -0.421875 1.5 -0.8125l0.09375 0l0 1.859375q-0.859375 0.3750019 -1.765625 0.6250019q-0.90625 0.234375 -1.890625 0.234375q-2.53125 0 -3.953125 -1.3593769q-1.421875 -1.375 -1.421875 -3.90625q0 -2.5 1.359375 -3.953125q1.359375 -1.46875 3.578125 -1.46875q2.0625 0 3.171875 1.203125q1.125 1.203125 1.125 3.40625l0 0.9375zm-1.671875 -1.3125q0 -1.34375 -0.671875 -2.078125q-0.671875 -0.75 -2.03125 -0.75q-1.375 0 -2.203125 0.8125q-0.8125 0.8125 -0.921875 2.015625l5.828125 0zm10.613586 -2.09375l-0.09375 0q-0.375 -0.09375 -0.734375 -0.125q-0.359375 -0.046875 -0.859375 -0.046875q-0.78125 0 -1.53125 0.359375q-0.734375 0.34375 -1.421875 0.90625l0 7.218752l-1.703125 0l0 -10.171877l1.703125 0l0 1.5q1.03125 -0.8125 1.796875 -1.15625q0.78125 -0.34375 1.59375 -0.34375q0.453125 0 0.65625 0.03125q0.203125 0.015625 0.59375 0.078125l0 1.75zm8.883568 5.375q0 1.390625 -1.15625 2.296875q-1.140625 0.8906269 -3.140625 0.8906269q-1.125 0 -2.078125 -0.265625q-0.9374924 -0.28125 -1.5781174 -0.5937519l0 -1.921875l0.09375 0q0.8125 0.609375 1.7968674 0.96875q1.0 0.359375 1.90625 0.359375q1.140625 0 1.765625 -0.359375q0.640625 -0.375 0.640625 -1.15625q0 -0.59375 -0.34375 -0.90625q-0.34375 -0.3125 -1.328125 -0.53125q-0.359375 -0.078125 -0.953125 -0.1875q-0.59375 -0.109375 -1.078125 -0.234375q-1.3281174 -0.359375 -1.8906174 -1.046875q-0.5625 -0.6875 -0.5625 -1.6875q0 -0.625 0.25 -1.1875q0.265625 -0.5625 0.796875 -0.984375q0.5156174 -0.4375 1.2968674 -0.6875q0.796875 -0.25 1.765625 -0.25q0.90625 0 1.84375 0.234375q0.9375 0.21875 1.546875 0.53125l0 1.828125l-0.078125 0q-0.65625 -0.484375 -1.59375 -0.8125q-0.9375 -0.328125 -1.84375 -0.328125q-0.9375 0 -1.59375 0.359375q-0.640625 0.359375 -0.640625 1.0625q0 0.625 0.390625 0.953125q0.390625 0.3125 1.234375 0.515625q0.484375 0.109375 1.0625 0.21875q0.59375 0.109375 0.984375 0.203125q1.1875 0.265625 1.84375 0.9375q0.640625 0.671875 0.640625 1.78125zm4.2979584 -8.9375l-1.9375 0l0 -1.78125l1.9375 0l0 1.78125zm-0.109375 11.875002l-1.71875 0l0 -10.171877l1.71875 0l0 10.171877zm12.057037 -5.078127q0 2.484375 -1.28125 3.921875q-1.265625 1.4375019 -3.40625 1.4375019q-2.171875 0 -3.4375 -1.4375019q-1.265625 -1.4375 -1.265625 -3.921875q0 -2.484375 1.265625 -3.921875q1.265625 -1.453125 3.4375 -1.453125q2.140625 0 3.40625 1.453125q1.28125 1.4375 1.28125 3.921875zm-1.765625 0q0 -1.984375 -0.78125 -2.9375q-0.765625 -0.96875 -2.140625 -0.96875q-1.40625 0 -2.171875 0.96875q-0.765625 0.953125 -0.765625 2.9375q0 1.90625 0.765625 2.90625q0.78125 0.984375 2.171875 0.984375q1.359375 0 2.140625 -0.984375q0.78125 -0.984375 0.78125 -2.90625zm12.916855 5.078127l-1.703125 0l0 -5.796877q0 -0.703125 -0.09375 -1.3125q-0.078125 -0.609375 -0.296875 -0.96875q-0.21875 -0.375 -0.65625 -0.5625q-0.421875 -0.1875 -1.109375 -0.1875q-0.703125 0 -1.46875 0.34375q-0.765625 0.34375 -1.46875 0.890625l0 7.593752l-1.703125 0l0 -10.171877l1.703125 0l0 1.125q0.8125 -0.65625 1.65625 -1.03125q0.859375 -0.375 1.765625 -0.375q1.65625 0 2.515625 1.0q0.859375 0.984375 0.859375 2.84375l0 6.609377zm18.536621 -5.078127q0 2.484375 -1.28125 3.921875q-1.265625 1.4375019 -3.40625 1.4375019q-2.171875 0 -3.4375 -1.4375019q-1.265625 -1.4375 -1.265625 -3.921875q0 -2.484375 1.265625 -3.921875q1.265625 -1.453125 3.4375 -1.453125q2.140625 0 3.40625 1.453125q1.28125 1.4375 1.28125 3.921875zm-1.765625 0q0 -1.984375 -0.78125 -2.9375q-0.765625 -0.96875 -2.140625 -0.96875q-1.40625 0 -2.171875 0.96875q-0.765625 0.953125 -0.765625 2.9375q0 1.90625 0.765625 2.90625q0.78125 0.984375 2.171875 0.984375q1.359375 0 2.140625 -0.984375q0.78125 -0.984375 0.78125 -2.90625zm9.885605 -7.4375l-0.09375 0q-0.28125 -0.078125 -0.734375 -0.15625q-0.453125 -0.09375 -0.796875 -0.09375q-1.109375 0 -1.609375 0.484375q-0.484375 0.484375 -0.484375 1.765625l0 0.34375l3.078125 0l0 1.4375l-3.03125 0l0 8.734377l-1.703125 0l0 -8.734377l-1.15625 0l0 -1.4375l1.15625 0l0 -0.34375q0 -1.8125 0.890625 -2.78125q0.90625 -0.96875 2.609375 -0.96875q0.578125 0 1.03125 0.0625q0.46875 0.046875 0.84375 0.125l0 1.5625zm18.2583 11.53125q-0.5 0.21875 -0.90625 0.421875q-0.40625 0.1875019 -1.0625 0.3906269q-0.546875 0.171875 -1.203125 0.296875q-0.65625 0.125 -1.4375 0.125q-1.46875 0 -2.6875 -0.40625q-1.203125 -0.4218769 -2.09375 -1.3125019q-0.875 -0.859375 -1.375 -2.1875q-0.484375 -1.34375 -0.484375 -3.109375q0 -1.671875 0.46875 -3.0q0.484375 -1.328125 1.375 -2.234375q0.859375 -0.875 2.078125 -1.34375q1.234375 -0.46875 2.734375 -0.46875q1.09375 0 2.171875 0.265625q1.09375 0.265625 2.421875 0.9375l0 2.140625l-0.140625 0q-1.109375 -0.953125 -2.21875 -1.375q-1.09375 -0.421875 -2.359375 -0.421875q-1.03125 0 -1.859375 0.328125q-0.8125 0.328125 -1.46875 1.03125q-0.625 0.6875 -0.984375 1.734375q-0.34375 1.03125 -0.34375 2.40625q0 1.421875 0.390625 2.453125q0.390625 1.03125 1.0 1.6875q0.640625 0.671875 1.484375 1.0q0.859375 0.3125 1.796875 0.3125q1.3125 0 2.4375 -0.4375q1.140625 -0.453125 2.140625 -1.34375l0.125 0l0 2.109375zm11.089081 -4.09375q0 2.484375 -1.28125 3.921875q-1.265625 1.4375019 -3.40625 1.4375019q-2.171875 0 -3.4375 -1.4375019q-1.265625 -1.4375 -1.265625 -3.921875q0 -2.484375 1.265625 -3.921875q1.265625 -1.453125 3.4375 -1.453125q2.140625 0 3.40625 1.453125q1.28125 1.4375 1.28125 3.921875zm-1.765625 0q0 -1.984375 -0.78125 -2.9375q-0.765625 -0.96875 -2.140625 -0.96875q-1.40625 0 -2.171875 0.96875q-0.765625 0.953125 -0.765625 2.9375q0 1.90625 0.765625 2.90625q0.78125 0.984375 2.171875 0.984375q1.359375 0 2.140625 -0.984375q0.78125 -0.984375 0.78125 -2.90625zm12.916855 5.078127l-1.703125 0l0 -5.796877q0 -0.703125 -0.09375 -1.3125q-0.078125 -0.609375 -0.296875 -0.96875q-0.21875 -0.375 -0.65625 -0.5625q-0.421875 -0.1875 -1.109375 -0.1875q-0.703125 0 -1.46875 0.34375q-0.765625 0.34375 -1.46875 0.890625l0 7.593752l-1.703125 0l0 -10.171877l1.703125 0l0 1.125q0.8125 -0.65625 1.65625 -1.03125q0.859375 -0.375 1.765625 -0.375q1.65625 0 2.515625 1.0q0.859375 0.984375 0.859375 2.84375l0 6.609377zm8.587158 -0.09375q-0.484375 0.125 -1.0625 0.203125q-0.5625 0.09375 -1.0 0.09375q-1.5625 0 -2.375 -0.8281269q-0.8125 -0.84375 -0.8125 -2.703125l0 -5.40625l-1.15625 0l0 -1.4375l1.15625 0l0 -2.921875l1.71875 0l0 2.921875l3.53125 0l0 1.4375l-3.53125 0l0 4.640625q0 0.796875 0.03125 1.25q0.03125 0.453125 0.25 0.84375q0.203125 0.359375 0.546875 0.53125q0.359375 0.171875 1.078125 0.171875q0.421875 0 0.875 -0.125q0.453125 -0.125 0.65625 -0.203125l0.09375 0l0 1.5312519zm8.413864 -8.218752l-0.09375 0q-0.375 -0.09375 -0.734375 -0.125q-0.359375 -0.046875 -0.859375 -0.046875q-0.78125 0 -1.53125 0.359375q-0.734375 0.34375 -1.421875 0.90625l0 7.218752l-1.703125 0l0 -10.171877l1.703125 0l0 1.5q1.03125 -0.8125 1.796875 -1.15625q0.78125 -0.34375 1.59375 -0.34375q0.453125 0 0.65625 0.03125q0.203125 0.015625 0.59375 0.078125l0 1.75zm10.289825 3.234375q0 2.484375 -1.28125 3.921875q-1.265625 1.4375019 -3.40625 1.4375019q-2.171875 0 -3.4375 -1.4375019q-1.265625 -1.4375 -1.265625 -3.921875q0 -2.484375 1.265625 -3.921875q1.265625 -1.453125 3.4375 -1.453125q2.140625 0 3.40625 1.453125q1.28125 1.4375 1.28125 3.921875zm-1.765625 0q0 -1.984375 -0.78125 -2.9375q-0.765625 -0.96875 -2.140625 -0.96875q-1.40625 0 -2.171875 0.96875q-0.765625 0.953125 -0.765625 2.9375q0 1.90625 0.765625 2.90625q0.78125 0.984375 2.171875 0.984375q1.359375 0 2.140625 -0.984375q0.78125 -0.984375 0.78125 -2.90625zm6.151245 5.078127l-1.71875 0l0 -14.171877l1.71875 0l0 14.171877z" fill-rule="nonzero"/><path fill="#000000" d="m151.60463 58.139816l-2.078125 0q-1.609375 -1.84375 -2.5 -4.03125q-0.890625 -2.1875 -0.890625 -4.921875q0 -2.75 0.890625 -4.9375q0.890625 -2.1875 2.5 -4.03125l2.078125 0l0 0.09375q-0.734375 0.65625 -1.40625 1.53125q-0.65625 0.875 -1.234375 2.03125q-0.546875 1.109375 -0.890625 2.46875q-0.34375 1.34375 -0.34375 2.84375q0 1.546875 0.328125 2.84375q0.34375 1.296875 0.90625 2.453125q0.546875 1.125 1.25 2.03125q0.703125 0.90625 1.390625 1.53125l0 0.09375zm7.9562073 -3.75l-5.359375 0l0 -1.390625l1.78125 0l0 -10.78125l-1.78125 0l0 -1.390625l5.359375 0l0 1.390625l-1.78125 0l0 10.78125l1.78125 0l0 1.390625zm11.602386 -5.078125q0 2.484375 -1.28125 3.921875q-1.265625 1.4375 -3.40625 1.4375q-2.171875 0 -3.4375 -1.4375q-1.265625 -1.4375 -1.265625 -3.921875q0 -2.484375 1.265625 -3.921875q1.265625 -1.453125 3.4375 -1.453125q2.140625 0 3.40625 1.453125q1.28125 1.4375 1.28125 3.921875zm-1.765625 0q0 -1.984375 -0.78125 -2.9375q-0.765625 -0.96875 -2.140625 -0.96875q-1.40625 0 -2.171875 0.96875q-0.765625 0.953125 -0.765625 2.9375q0 1.90625 0.765625 2.90625q0.78125 0.984375 2.171875 0.984375q1.359375 0 2.140625 -0.984375q0.78125 -0.984375 0.78125 -2.90625zm15.02623 4.09375q-0.5 0.21875 -0.90625 0.421875q-0.40625 0.1875 -1.0625 0.390625q-0.546875 0.171875 -1.203125 0.296875q-0.65625 0.125 -1.4375 0.125q-1.46875 0 -2.6875 -0.40625q-1.203125 -0.421875 -2.09375 -1.3125q-0.875 -0.859375 -1.375 -2.1875q-0.484375 -1.34375 -0.484375 -3.109375q0 -1.671875 0.46875 -3.0q0.484375 -1.328125 1.375 -2.234375q0.859375 -0.875 2.078125 -1.34375q1.234375 -0.46875 2.734375 -0.46875q1.09375 0 2.171875 0.265625q1.09375 0.265625 2.421875 0.9375l0 2.140625l-0.140625 0q-1.109375 -0.953125 -2.21875 -1.375q-1.09375 -0.421875 -2.359375 -0.421875q-1.03125 0 -1.859375 0.328125q-0.8125 0.328125 -1.46875 1.03125q-0.625 0.6875 -0.984375 1.734375q-0.34375 1.03125 -0.34375 2.40625q0 1.421875 0.390625 2.453125q0.390625 1.03125 1.0 1.6875q0.640625 0.671875 1.484375 1.0q0.859375 0.3125 1.796875 0.3125q1.3125 0 2.4375 -0.4375q1.140625 -0.453125 2.140625 -1.34375l0.125 0l0 2.109375zm7.557831 -4.21875q0 2.734375 -0.90625 4.921875q-0.890625 2.1875 -2.5 4.03125l-2.078125 0l0 -0.09375q0.703125 -0.625 1.40625 -1.53125q0.703125 -0.90625 1.234375 -2.03125q0.578125 -1.15625 0.90625 -2.453125q0.328125 -1.296875 0.328125 -2.84375q0 -1.5 -0.34375 -2.84375q-0.328125 -1.359375 -0.890625 -2.46875q-0.5625 -1.15625 -1.234375 -2.03125q-0.671875 -0.875 -1.40625 -1.53125l0 -0.09375l2.078125 0q1.609375 1.84375 2.5 4.03125q0.90625 2.1875 0.90625 4.9375z" fill-rule="nonzero"/><path fill="#d9d9d9" d="m364.83203 6.233596l328.44092 0l0 60.472443l-328.44092 0z" fill-rule="evenodd"/><path stroke="#000000" stroke-width="2.0" stroke-linejoin="round" stroke-linecap="butt" d="m364.83203 6.233596l328.44092 0l0 60.472443l-328.44092 0z" fill-rule="evenodd"/><path fill="#000000" d="m394.8191 25.62419q0 1.84375 -0.8125 3.359375q-0.796875 1.5 -2.140625 2.328125q-0.921875 0.5625 -2.078125 0.8281269q-1.140625 0.25 -3.0 0.25l-3.421875 0l0 -13.562502l3.375 0q2.0 0 3.15625 0.296875q1.171875 0.28125 1.984375 0.78125q1.390625 0.859375 2.15625 2.296875q0.78125 1.4375 0.78125 3.421875zm-1.890625 -0.03125q0 -1.59375 -0.5625 -2.6875q-0.546875 -1.09375 -1.640625 -1.71875q-0.8125 -0.453125 -1.71875 -0.625q-0.890625 -0.1875 -2.15625 -0.1875l-1.6875 0l0 10.46875l1.6875 0q1.3125 0 2.28125 -0.1875q0.96875 -0.203125 1.78125 -0.71875q1.015625 -0.640625 1.515625 -1.6875q0.5 -1.0625 0.5 -2.65625zm13.187286 1.890625l-7.5 0q0 0.9375 0.28125 1.640625q0.28125 0.6875 0.78125 1.140625q0.46875 0.4375 1.109375 0.65625q0.65625 0.21875 1.453125 0.21875q1.03125 0 2.078125 -0.421875q1.0625 -0.421875 1.5 -0.8125l0.09375 0l0 1.859375q-0.859375 0.3750019 -1.765625 0.6250019q-0.90625 0.234375 -1.890625 0.234375q-2.53125 0 -3.953125 -1.3593769q-1.421875 -1.375 -1.421875 -3.90625q0 -2.5 1.359375 -3.953125q1.359375 -1.46875 3.578125 -1.46875q2.0625 0 3.171875 1.203125q1.125 1.203125 1.125 3.40625l0 0.9375zm-1.671875 -1.3125q0 -1.34375 -0.671875 -2.078125q-0.671875 -0.75 -2.03125 -0.75q-1.375 0 -2.203125 0.8125q-0.8125 0.8125 -0.921875 2.015625l5.828125 0zm13.222961 1.015625q0 1.234375 -0.359375 2.265625q-0.359375 1.015625 -1.0 1.71875q-0.59375 0.6875 -1.421875 1.0625019q-0.8125 0.359375 -1.71875 0.359375q-0.796875 0 -1.4375 -0.171875q-0.640625 -0.171875 -1.3125 -0.5468769l0 4.265627l-1.703125 0l0 -13.921877l1.703125 0l0 1.0625q0.6875 -0.578125 1.53125 -0.953125q0.859375 -0.390625 1.828125 -0.390625q1.84375 0 2.859375 1.390625q1.03125 1.390625 1.03125 3.859375zm-1.765625 0.03125q0 -1.828125 -0.640625 -2.734375q-0.625 -0.921875 -1.921875 -0.921875q-0.734375 0 -1.484375 0.328125q-0.75 0.3125 -1.4375 0.828125l0 5.765625q0.734375 0.328125 1.25 0.453125q0.53125 0.109375 1.203125 0.109375q1.421875 0 2.21875 -0.953125q0.8125 -0.96875 0.8125 -2.875zm12.951843 0.265625l-7.5 0q0 0.9375 0.28125 1.640625q0.28125 0.6875 0.78125 1.140625q0.46875 0.4375 1.109375 0.65625q0.65625 0.21875 1.453125 0.21875q1.03125 0 2.078125 -0.421875q1.0625 -0.421875 1.5 -0.8125l0.09375 0l0 1.859375q-0.859375 0.3750019 -1.765625 0.6250019q-0.90625 0.234375 -1.890625 0.234375q-2.53125 0 -3.953125 -1.3593769q-1.421875 -1.375 -1.421875 -3.90625q0 -2.5 1.359375 -3.953125q1.359375 -1.46875 3.578125 -1.46875q2.0625 0 3.171875 1.203125q1.125 1.203125 1.125 3.40625l0 0.9375zm-1.671875 -1.3125q0 -1.34375 -0.671875 -2.078125q-0.671875 -0.75 -2.03125 -0.75q-1.375 0 -2.203125 0.8125q-0.8125 0.8125 -0.921875 2.015625l5.828125 0zm12.769836 6.218752l-1.703125 0l0 -5.796877q0 -0.703125 -0.09375 -1.3125q-0.078125 -0.609375 -0.296875 -0.96875q-0.21875 -0.375 -0.65625 -0.5625q-0.421875 -0.1875 -1.109375 -0.1875q-0.703125 0 -1.46875 0.34375q-0.765625 0.34375 -1.46875 0.890625l0 7.593752l-1.703125 0l0 -10.171877l1.703125 0l0 1.125q0.8125 -0.65625 1.65625 -1.03125q0.859375 -0.375 1.765625 -0.375q1.65625 0 2.515625 1.0q0.859375 0.984375 0.859375 2.84375l0 6.609377zm11.555908 0l-1.71875 0l0 -1.0625019q-0.734375 0.640625 -1.53125 1.0000019q-0.796875 0.34375 -1.734375 0.34375q-1.828125 0 -2.90625 -1.3906269q-1.0625 -1.40625 -1.0625 -3.90625q0 -1.28125 0.359375 -2.296875q0.375 -1.015625 1.0 -1.71875q0.625 -0.703125 1.453125 -1.0625q0.828125 -0.359375 1.703125 -0.359375q0.796875 0 1.421875 0.171875q0.625 0.15625 1.296875 0.515625l0 -4.40625l1.71875 0l0 14.171877zm-1.71875 -2.500002l0 -5.84375q-0.6875 -0.3125 -1.234375 -0.421875q-0.546875 -0.125 -1.1875 -0.125q-1.4375 0 -2.25 1.0q-0.796875 1.0 -0.796875 2.84375q0 1.8125 0.609375 2.765625q0.625 0.9375 2.0 0.9375q0.71875 0 1.46875 -0.328125q0.75 -0.328125 1.390625 -0.828125zm13.608093 -2.40625l-7.5 0q0 0.9375 0.28125 1.640625q0.28125 0.6875 0.78125 1.140625q0.46875 0.4375 1.109375 0.65625q0.65625 0.21875 1.453125 0.21875q1.03125 0 2.078125 -0.421875q1.0625 -0.421875 1.5 -0.8125l0.09375 0l0 1.859375q-0.859375 0.3750019 -1.765625 0.6250019q-0.90625 0.234375 -1.890625 0.234375q-2.53125 0 -3.953125 -1.3593769q-1.421875 -1.375 -1.421875 -3.90625q0 -2.5 1.359375 -3.953125q1.359375 -1.46875 3.578125 -1.46875q2.0625 0 3.171875 1.203125q1.125 1.203125 1.125 3.40625l0 0.9375zm-1.671875 -1.3125q0 -1.34375 -0.671875 -2.078125q-0.671875 -0.75 -2.03125 -0.75q-1.375 0 -2.203125 0.8125q-0.8125 0.8125 -0.921875 2.015625l5.828125 0zm12.769836 6.218752l-1.703125 0l0 -5.796877q0 -0.703125 -0.09375 -1.3125q-0.078125 -0.609375 -0.296875 -0.96875q-0.21875 -0.375 -0.65625 -0.5625q-0.421875 -0.1875 -1.109375 -0.1875q-0.703125 0 -1.46875 0.34375q-0.765625 0.34375 -1.46875 0.890625l0 7.593752l-1.703125 0l0 -10.171877l1.703125 0l0 1.125q0.8125 -0.65625 1.65625 -1.03125q0.859375 -0.375 1.765625 -0.375q1.65625 0 2.515625 1.0q0.859375 0.984375 0.859375 2.84375l0 6.609377zm10.821533 -0.6406269q-0.84375 0.4062519 -1.625 0.6406269q-0.765625 0.234375 -1.625 0.234375q-1.109375 0 -2.03125 -0.328125q-0.921875 -0.3281269 -1.578125 -0.9843769q-0.65625 -0.65625 -1.03125 -1.65625q-0.359375 -1.0 -0.359375 -2.34375q0 -2.484375 1.375 -3.90625q1.375 -1.421875 3.625 -1.421875q0.875 0 1.71875 0.25q0.84375 0.234375 1.53125 0.59375l0 1.90625l-0.078125 0q-0.796875 -0.609375 -1.625 -0.9375q-0.828125 -0.328125 -1.625 -0.328125q-1.453125 0 -2.296875 0.984375q-0.84375 0.96875 -0.84375 2.859375q0 1.84375 0.8125 2.84375q0.828125 0.984375 2.328125 0.984375q0.515625 0 1.046875 -0.140625q0.546875 -0.140625 0.96875 -0.359375q0.375 -0.1875 0.703125 -0.40625q0.328125 -0.21875 0.53125 -0.359375l0.078125 0l0 1.875zm11.001099 -9.53125l-5.9375 13.921877l-1.828125 0l1.890625 -4.234377l-4.046875 -9.6875l1.84375 0l3.125 7.546875l3.15625 -7.546875l1.796875 0zm13.724548 10.171877l-5.359375 0l0 -1.3906269l1.78125 0l0 -10.78125l-1.78125 0l0 -1.390625l5.359375 0l0 1.390625l-1.78125 0l0 10.78125l1.78125 0l0 1.3906269zm11.430511 0l-1.703125 0l0 -5.796877q0 -0.703125 -0.09375 -1.3125q-0.078125 -0.609375 -0.296875 -0.96875q-0.21875 -0.375 -0.65625 -0.5625q-0.421875 -0.1875 -1.109375 -0.1875q-0.703125 0 -1.46875 0.34375q-0.765625 0.34375 -1.46875 0.890625l0 7.593752l-1.703125 0l0 -10.171877l1.703125 0l0 1.125q0.8125 -0.65625 1.65625 -1.03125q0.859375 -0.375 1.765625 -0.375q1.65625 0 2.515625 1.0q0.859375 0.984375 0.859375 2.84375l0 6.609377zm12.102783 -10.171877l-4.109375 10.171877l-1.734375 0l-4.078125 -10.171877l1.84375 0l3.15625 8.09375l3.125 -8.09375l1.796875 0zm10.75946 5.265625l-7.5 0q0 0.9375 0.28125 1.640625q0.28125 0.6875 0.78125 1.140625q0.46875 0.4375 1.109375 0.65625q0.65625 0.21875 1.453125 0.21875q1.03125 0 2.078125 -0.421875q1.0625 -0.421875 1.5 -0.8125l0.09375 0l0 1.859375q-0.859375 0.3750019 -1.765625 0.6250019q-0.90625 0.234375 -1.890625 0.234375q-2.53125 0 -3.953125 -1.3593769q-1.421875 -1.375 -1.421875 -3.90625q0 -2.5 1.359375 -3.953125q1.359375 -1.46875 3.578125 -1.46875q2.0625 0 3.171875 1.203125q1.125 1.203125 1.125 3.40625l0 0.9375zm-1.671875 -1.3125q0 -1.34375 -0.671875 -2.078125q-0.671875 -0.75 -2.03125 -0.75q-1.375 0 -2.203125 0.8125q-0.8125 0.8125 -0.921875 2.015625l5.828125 0zm10.613586 -2.09375l-0.09375 0q-0.375 -0.09375 -0.734375 -0.125q-0.359375 -0.046875 -0.859375 -0.046875q-0.78125 0 -1.53125 0.359375q-0.734375 0.34375 -1.421875 0.90625l0 7.218752l-1.703125 0l0 -10.171877l1.703125 0l0 1.5q1.03125 -0.8125 1.796875 -1.15625q0.78125 -0.34375 1.59375 -0.34375q0.453125 0 0.65625 0.03125q0.203125 0.015625 0.59375 0.078125l0 1.75zm8.883545 5.375q0 1.390625 -1.15625 2.296875q-1.140625 0.8906269 -3.140625 0.8906269q-1.125 0 -2.078125 -0.265625q-0.9375 -0.28125 -1.578125 -0.5937519l0 -1.921875l0.09375 0q0.8125 0.609375 1.796875 0.96875q1.0 0.359375 1.90625 0.359375q1.140625 0 1.765625 -0.359375q0.640625 -0.375 0.640625 -1.15625q0 -0.59375 -0.34375 -0.90625q-0.34375 -0.3125 -1.328125 -0.53125q-0.359375 -0.078125 -0.953125 -0.1875q-0.59375 -0.109375 -1.078125 -0.234375q-1.328125 -0.359375 -1.890625 -1.046875q-0.5625 -0.6875 -0.5625 -1.6875q0 -0.625 0.25 -1.1875q0.265625 -0.5625 0.796875 -0.984375q0.515625 -0.4375 1.296875 -0.6875q0.796875 -0.25 1.765625 -0.25q0.90625 0 1.84375 0.234375q0.9375 0.21875 1.546875 0.53125l0 1.828125l-0.078125 0q-0.65625 -0.484375 -1.59375 -0.8125q-0.9375 -0.328125 -1.84375 -0.328125q-0.9375 0 -1.59375 0.359375q-0.640625 0.359375 -0.640625 1.0625q0 0.625 0.390625 0.953125q0.390625 0.3125 1.234375 0.515625q0.484375 0.109375 1.0625 0.21875q0.59375 0.109375 0.984375 0.203125q1.1875 0.265625 1.84375 0.9375q0.640625 0.671875 0.640625 1.78125zm4.2979736 -8.9375l-1.9375 0l0 -1.78125l1.9375 0l0 1.78125zm-0.109375 11.875002l-1.71875 0l0 -10.171877l1.71875 0l0 10.171877zm12.057068 -5.078127q0 2.484375 -1.28125 3.921875q-1.265625 1.4375019 -3.40625 1.4375019q-2.171875 0 -3.4375 -1.4375019q-1.265625 -1.4375 -1.265625 -3.921875q0 -2.484375 1.265625 -3.921875q1.265625 -1.453125 3.4375 -1.453125q2.140625 0 3.40625 1.453125q1.28125 1.4375 1.28125 3.921875zm-1.765625 0q0 -1.984375 -0.78125 -2.9375q-0.765625 -0.96875 -2.140625 -0.96875q-1.40625 0 -2.171875 0.96875q-0.765625 0.953125 -0.765625 2.9375q0 1.90625 0.765625 2.90625q0.78125 0.984375 2.171875 0.984375q1.359375 0 2.140625 -0.984375q0.78125 -0.984375 0.78125 -2.90625zm12.916809 5.078127l-1.703125 0l0 -5.796877q0 -0.703125 -0.09375 -1.3125q-0.078125 -0.609375 -0.296875 -0.96875q-0.21875 -0.375 -0.65625 -0.5625q-0.421875 -0.1875 -1.109375 -0.1875q-0.703125 0 -1.46875 0.34375q-0.765625 0.34375 -1.46875 0.890625l0 7.593752l-1.703125 0l0 -10.171877l1.703125 0l0 1.125q0.8125 -0.65625 1.65625 -1.03125q0.859375 -0.375 1.765625 -0.375q1.65625 0 2.515625 1.0q0.859375 0.984375 0.859375 2.84375l0 6.609377zm18.864746 -9.468752q0 0.90625 -0.3125 1.6875q-0.3125 0.765625 -0.875 1.328125q-0.703125 0.703125 -1.65625 1.046875q-0.953125 0.34375 -2.421875 0.34375l-1.796875 0l0 5.062502l-1.796875 0l0 -13.562502l3.671875 0q1.21875 0 2.0625 0.203125q0.859375 0.203125 1.515625 0.640625q0.765625 0.515625 1.1875 1.296875q0.421875 0.765625 0.421875 1.953125zm-1.875 0.046875q0 -0.703125 -0.25 -1.21875q-0.234375 -0.515625 -0.734375 -0.84375q-0.4375 -0.28125 -1.0 -0.40625q-0.5625 -0.125 -1.421875 -0.125l-1.78125 0l0 5.421875l1.515625 0q1.09375 0 1.78125 -0.1875q0.6875 -0.203125 1.109375 -0.640625q0.4375 -0.4375 0.609375 -0.90625q0.171875 -0.484375 0.171875 -1.09375zm10.468994 1.109375l-0.09375 0q-0.375 -0.09375 -0.734375 -0.125q-0.359375 -0.046875 -0.859375 -0.046875q-0.78125 0 -1.53125 0.359375q-0.734375 0.34375 -1.421875 0.90625l0 7.218752l-1.703125 0l0 -10.171877l1.703125 0l0 1.5q1.03125 -0.8125 1.796875 -1.15625q0.78125 -0.34375 1.59375 -0.34375q0.453125 0 0.65625 0.03125q0.203125 0.015625 0.59375 0.078125l0 1.75zm3.461731 -3.5625l-1.9375 0l0 -1.78125l1.9375 0l0 1.78125zm-0.109375 11.875002l-1.71875 0l0 -10.171877l1.71875 0l0 10.171877zm11.885132 0l-1.703125 0l0 -5.796877q0 -0.703125 -0.09375 -1.3125q-0.078125 -0.609375 -0.296875 -0.96875q-0.21875 -0.375 -0.65625 -0.5625q-0.421875 -0.1875 -1.109375 -0.1875q-0.703125 0 -1.46875 0.34375q-0.765625 0.34375 -1.46875 0.890625l0 7.593752l-1.703125 0l0 -10.171877l1.703125 0l0 1.125q0.8125 -0.65625 1.65625 -1.03125q0.859375 -0.375 1.765625 -0.375q1.65625 0 2.515625 1.0q0.859375 0.984375 0.859375 2.84375l0 6.609377zm10.821533 -0.6406269q-0.84375 0.4062519 -1.625 0.6406269q-0.765625 0.234375 -1.625 0.234375q-1.109375 0 -2.03125 -0.328125q-0.921875 -0.3281269 -1.578125 -0.9843769q-0.65625 -0.65625 -1.03125 -1.65625q-0.359375 -1.0 -0.359375 -2.34375q0 -2.484375 1.375 -3.90625q1.375 -1.421875 3.625 -1.421875q0.875 0 1.71875 0.25q0.84375 0.234375 1.53125 0.59375l0 1.90625l-0.078125 0q-0.796875 -0.609375 -1.625 -0.9375q-0.828125 -0.328125 -1.625 -0.328125q-1.453125 0 -2.296875 0.984375q-0.84375 0.96875 -0.84375 2.859375q0 1.84375 0.8125 2.84375q0.828125 0.984375 2.328125 0.984375q0.515625 0 1.046875 -0.140625q0.546875 -0.140625 0.96875 -0.359375q0.375 -0.1875 0.703125 -0.40625q0.328125 -0.21875 0.53125 -0.359375l0.078125 0l0 1.875zm4.0479736 -11.234375l-1.9375 0l0 -1.78125l1.9375 0l0 1.78125zm-0.109375 11.875002l-1.71875 0l0 -10.171877l1.71875 0l0 10.171877zm12.338318 -5.203127q0 1.234375 -0.359375 2.265625q-0.359375 1.015625 -1.0 1.71875q-0.59375 0.6875 -1.421875 1.0625019q-0.8125 0.359375 -1.71875 0.359375q-0.796875 0 -1.4375 -0.171875q-0.640625 -0.171875 -1.3125 -0.5468769l0 4.265627l-1.703125 0l0 -13.921877l1.703125 0l0 1.0625q0.6875 -0.578125 1.53125 -0.953125q0.859375 -0.390625 1.828125 -0.390625q1.84375 0 2.859375 1.390625q1.03125 1.390625 1.03125 3.859375zm-1.765625 0.03125q0 -1.828125 -0.640625 -2.734375q-0.625 -0.921875 -1.921875 -0.921875q-0.734375 0 -1.484375 0.328125q-0.75 0.3125 -1.4375 0.828125l0 5.765625q0.734375 0.328125 1.25 0.453125q0.53125 0.109375 1.203125 0.109375q1.421875 0 2.21875 -0.953125q0.8125 -0.96875 0.8125 -2.875zm6.1705933 5.171877l-1.71875 0l0 -14.171877l1.71875 0l0 14.171877zm11.900757 -4.906252l-7.5 0q0 0.9375 0.28125 1.640625q0.28125 0.6875 0.78125 1.140625q0.46875 0.4375 1.109375 0.65625q0.65625 0.21875 1.453125 0.21875q1.03125 0 2.078125 -0.421875q1.0625 -0.421875 1.5 -0.8125l0.09375 0l0 1.859375q-0.859375 0.3750019 -1.765625 0.6250019q-0.90625 0.234375 -1.890625 0.234375q-2.53125 0 -3.953125 -1.3593769q-1.421875 -1.375 -1.421875 -3.90625q0 -2.5 1.359375 -3.953125q1.359375 -1.46875 3.578125 -1.46875q2.0625 0 3.171875 1.203125q1.125 1.203125 1.125 3.40625l0 0.9375zm-1.671875 -1.3125q0 -1.34375 -0.671875 -2.078125q-0.671875 -0.75 -2.03125 -0.75q-1.375 0 -2.203125 0.8125q-0.8125 0.8125 -0.921875 2.015625l5.828125 0z" fill-rule="nonzero"/><path fill="#000000" d="m510.96698 58.139816l-2.078125 0q-1.609375 -1.84375 -2.5 -4.03125q-0.890625 -2.1875 -0.890625 -4.921875q0 -2.75 0.890625 -4.9375q0.890625 -2.1875 2.5 -4.03125l2.078125 0l0 0.09375q-0.734375 0.65625 -1.40625 1.53125q-0.65625 0.875 -1.234375 2.03125q-0.546875 1.109375 -0.890625 2.46875q-0.34375 1.34375 -0.34375 2.84375q0 1.546875 0.328125 2.84375q0.34375 1.296875 0.90625 2.453125q0.546875 1.125 1.25 2.03125q0.703125 0.90625 1.390625 1.53125l0 0.09375zm14.628052 -10.515625q0 1.84375 -0.8125 3.359375q-0.796875 1.5 -2.140625 2.328125q-0.921875 0.5625 -2.078125 0.828125q-1.140625 0.25 -3.0 0.25l-3.421875 0l0 -13.5625l3.375 0q2.0 0 3.15625 0.296875q1.171875 0.28125 1.984375 0.78125q1.390625 0.859375 2.15625 2.296875q0.78125 1.4375 0.78125 3.421875zm-1.890625 -0.03125q0 -1.59375 -0.5625 -2.6875q-0.546875 -1.09375 -1.640625 -1.71875q-0.8125 -0.453125 -1.71875 -0.625q-0.890625 -0.1875 -2.15625 -0.1875l-1.6875 0l0 10.46875l1.6875 0q1.3125 0 2.28125 -0.1875q0.96875 -0.203125 1.78125 -0.71875q1.015625 -0.640625 1.515625 -1.6875q0.5 -1.0625 0.5 -2.65625zm9.593567 6.796875l-5.359375 0l0 -1.390625l1.78125 0l0 -10.78125l-1.78125 0l0 -1.390625l5.359375 0l0 1.390625l-1.78125 0l0 10.78125l1.78125 0l0 1.390625zm11.930481 -9.46875q0 0.90625 -0.3125 1.6875q-0.3125 0.765625 -0.875 1.328125q-0.703125 0.703125 -1.65625 1.046875q-0.953125 0.34375 -2.421875 0.34375l-1.796875 0l0 5.0625l-1.796875 0l0 -13.5625l3.671875 0q1.21875 0 2.0625 0.203125q0.859375 0.203125 1.515625 0.640625q0.765625 0.515625 1.1875 1.296875q0.421875 0.765625 0.421875 1.953125zm-1.875 0.046875q0 -0.703125 -0.25 -1.21875q-0.234375 -0.515625 -0.734375 -0.84375q-0.4375 -0.28125 -1.0 -0.40625q-0.5625 -0.125 -1.421875 -0.125l-1.78125 0l0 5.421875l1.515625 0q1.09375 0 1.78125 -0.1875q0.6875 -0.203125 1.109375 -0.640625q0.4375 -0.4375 0.609375 -0.90625q0.171875 -0.484375 0.171875 -1.09375zm9.265869 4.21875q0 2.734375 -0.90625 4.921875q-0.890625 2.1875 -2.5 4.03125l-2.078125 0l0 -0.09375q0.703125 -0.625 1.40625 -1.53125q0.703125 -0.90625 1.234375 -2.03125q0.578125 -1.15625 0.90625 -2.453125q0.328125 -1.296875 0.328125 -2.84375q0 -1.5 -0.34375 -2.84375q-0.328125 -1.359375 -0.890625 -2.46875q-0.5625 -1.15625 -1.234375 -2.03125q-0.671875 -0.875 -1.40625 -1.53125l0 -0.09375l2.078125 0q1.609375 1.84375 2.5 4.03125q0.90625 2.1875 0.90625 4.9375z" fill-rule="nonzero"/><path fill="#d9d9d9" d="m189.86876 92.0958l328.44092 0l0 60.472435l-328.44092 0z" fill-rule="evenodd"/><path stroke="#000000" stroke-width="2.0" stroke-linejoin="round" stroke-linecap="butt" d="m189.86876 92.0958l328.44092 0l0 60.472435l-328.44092 0z" fill-rule="evenodd"/><path fill="#000000" d="m265.16647 111.4864q0 1.84375 -0.8125 3.359375q-0.796875 1.5 -2.140625 2.328125q-0.921875 0.5625 -2.078125 0.828125q-1.140625 0.25 -3.0 0.25l-3.4218597 0l0 -13.5625l3.3749847 0q2.0 0 3.15625 0.296875q1.171875 0.28125 1.984375 0.78125q1.390625 0.859375 2.15625 2.296875q0.78125 1.4375 0.78125 3.421875zm-1.890625 -0.03125q0 -1.59375 -0.5625 -2.6875q-0.546875 -1.09375 -1.640625 -1.71875q-0.8125 -0.453125 -1.71875 -0.625q-0.890625 -0.1875 -2.15625 -0.1875l-1.6874847 0l0 10.46875l1.6874847 0q1.3125 0 2.28125 -0.1875q0.96875 -0.203125 1.78125 -0.71875q1.015625 -0.640625 1.515625 -1.6875q0.5 -1.0625 0.5 -2.65625zm13.187286 1.890625l-7.5 0q0 0.9375 0.28125 1.640625q0.28125 0.6875 0.78125 1.140625q0.46875 0.4375 1.109375 0.65625q0.65625 0.21875 1.453125 0.21875q1.03125 0 2.078125 -0.421875q1.0625 -0.421875 1.5 -0.8125l0.09375 0l0 1.859375q-0.859375 0.375 -1.765625 0.625q-0.90625 0.234375 -1.890625 0.234375q-2.53125 0 -3.953125 -1.359375q-1.421875 -1.375 -1.421875 -3.90625q0 -2.5 1.359375 -3.953125q1.359375 -1.46875 3.578125 -1.46875q2.0625 0 3.171875 1.203125q1.125 1.203125 1.125 3.40625l0 0.9375zm-1.671875 -1.3125q0 -1.34375 -0.671875 -2.078125q-0.671875 -0.75 -2.03125 -0.75q-1.375 0 -2.203125 0.8125q-0.8125 0.8125 -0.921875 2.015625l5.828125 0zm13.222961 1.015625q0 1.234375 -0.359375 2.265625q-0.359375 1.015625 -1.0 1.71875q-0.59375 0.6875 -1.421875 1.0625q-0.8125 0.359375 -1.71875 0.359375q-0.796875 0 -1.4375 -0.171875q-0.640625 -0.171875 -1.3125 -0.546875l0 4.265625l-1.703125 0l0 -13.921875l1.703125 0l0 1.0625q0.6875 -0.578125 1.53125 -0.953125q0.859375 -0.390625 1.828125 -0.390625q1.84375 0 2.859375 1.390625q1.03125 1.390625 1.03125 3.859375zm-1.765625 0.03125q0 -1.828125 -0.640625 -2.734375q-0.625 -0.921875 -1.921875 -0.921875q-0.734375 0 -1.484375 0.328125q-0.75 0.3125 -1.4375 0.828125l0 5.765625q0.734375 0.328125 1.25 0.453125q0.53125 0.109375 1.203125 0.109375q1.421875 0 2.21875 -0.953125q0.8125 -0.96875 0.8125 -2.875zm12.951843 0.265625l-7.5 0q0 0.9375 0.28125 1.640625q0.28125 0.6875 0.78125 1.140625q0.46875 0.4375 1.109375 0.65625q0.65625 0.21875 1.453125 0.21875q1.03125 0 2.078125 -0.421875q1.0625 -0.421875 1.5 -0.8125l0.09375 0l0 1.859375q-0.859375 0.375 -1.765625 0.625q-0.90625 0.234375 -1.890625 0.234375q-2.53125 0 -3.953125 -1.359375q-1.421875 -1.375 -1.421875 -3.90625q0 -2.5 1.359375 -3.953125q1.359375 -1.46875 3.578125 -1.46875q2.0625 0 3.171875 1.203125q1.125 1.203125 1.125 3.40625l0 0.9375zm-1.671875 -1.3125q0 -1.34375 -0.671875 -2.078125q-0.671875 -0.75 -2.03125 -0.75q-1.375 0 -2.203125 0.8125q-0.8125 0.8125 -0.921875 2.015625l5.828125 0zm12.769836 6.21875l-1.703125 0l0 -5.796875q0 -0.703125 -0.09375 -1.3125q-0.078125 -0.609375 -0.296875 -0.96875q-0.21875 -0.375 -0.65625 -0.5625q-0.421875 -0.1875 -1.109375 -0.1875q-0.703125 0 -1.46875 0.34375q-0.765625 0.34375 -1.46875 0.890625l0 7.59375l-1.703125 0l0 -10.171875l1.703125 0l0 1.125q0.8125 -0.65625 1.65625 -1.03125q0.859375 -0.375 1.765625 -0.375q1.65625 0 2.515625 1.0q0.859375 0.984375 0.859375 2.84375l0 6.609375zm11.555939 0l-1.71875 0l0 -1.0625q-0.734375 0.640625 -1.53125 1.0q-0.7969055 0.34375 -1.7344055 0.34375q-1.828125 0 -2.90625 -1.390625q-1.0625 -1.40625 -1.0625 -3.90625q0 -1.28125 0.359375 -2.296875q0.375 -1.015625 1.0 -1.71875q0.625 -0.703125 1.453125 -1.0625q0.828125 -0.359375 1.703125 -0.359375q0.7969055 0 1.4219055 0.171875q0.625 0.15625 1.296875 0.515625l0 -4.40625l1.71875 0l0 14.171875zm-1.71875 -2.5l0 -5.84375q-0.6875 -0.3125 -1.234375 -0.421875q-0.546875 -0.125 -1.1875305 -0.125q-1.4375 0 -2.25 1.0q-0.796875 1.0 -0.796875 2.84375q0 1.8125 0.609375 2.765625q0.625 0.9375 2.0 0.9375q0.7187805 0 1.4687805 -0.328125q0.75 -0.328125 1.390625 -0.828125zm13.608093 -2.40625l-7.5 0q0 0.9375 0.28125 1.640625q0.28125 0.6875 0.78125 1.140625q0.46875 0.4375 1.109375 0.65625q0.65625 0.21875 1.453125 0.21875q1.03125 0 2.078125 -0.421875q1.0625 -0.421875 1.5 -0.8125l0.09375 0l0 1.859375q-0.859375 0.375 -1.765625 0.625q-0.90625 0.234375 -1.890625 0.234375q-2.53125 0 -3.953125 -1.359375q-1.421875 -1.375 -1.421875 -3.90625q0 -2.5 1.359375 -3.953125q1.359375 -1.46875 3.578125 -1.46875q2.0625 0 3.171875 1.203125q1.125 1.203125 1.125 3.40625l0 0.9375zm-1.671875 -1.3125q0 -1.34375 -0.671875 -2.078125q-0.671875 -0.75 -2.03125 -0.75q-1.375 0 -2.203125 0.8125q-0.8125 0.8125 -0.921875 2.015625l5.828125 0zm12.769836 6.21875l-1.703125 0l0 -5.796875q0 -0.703125 -0.09375 -1.3125q-0.078125 -0.609375 -0.296875 -0.96875q-0.21875 -0.375 -0.65625 -0.5625q-0.421875 -0.1875 -1.109375 -0.1875q-0.703125 0 -1.46875 0.34375q-0.765625 0.34375 -1.46875 0.890625l0 7.59375l-1.703125 0l0 -10.171875l1.703125 0l0 1.125q0.8125 -0.65625 1.65625 -1.03125q0.859375 -0.375 1.765625 -0.375q1.65625 0 2.515625 1.0q0.859375 0.984375 0.859375 2.84375l0 6.609375zm10.821533 -0.640625q-0.84375 0.40625 -1.625 0.640625q-0.765625 0.234375 -1.625 0.234375q-1.109375 0 -2.03125 -0.328125q-0.921875 -0.328125 -1.578125 -0.984375q-0.65625 -0.65625 -1.03125 -1.65625q-0.359375 -1.0 -0.359375 -2.34375q0 -2.484375 1.375 -3.90625q1.375 -1.421875 3.625 -1.421875q0.875 0 1.71875 0.25q0.84375 0.234375 1.53125 0.59375l0 1.90625l-0.078125 0q-0.796875 -0.609375 -1.625 -0.9375q-0.828125 -0.328125 -1.625 -0.328125q-1.453125 0 -2.296875 0.984375q-0.84375 0.96875 -0.84375 2.859375q0 1.84375 0.8125 2.84375q0.828125 0.984375 2.328125 0.984375q0.515625 0 1.046875 -0.140625q0.546875 -0.140625 0.96875 -0.359375q0.375 -0.1875 0.703125 -0.40625q0.328125 -0.21875 0.53125 -0.359375l0.078125 0l0 1.875zm11.001068 -9.53125l-5.9375 13.921875l-1.828125 0l1.890625 -4.234375l-4.046875 -9.6875l1.84375 0l3.125 7.546875l3.15625 -7.546875l1.796875 0zm13.724548 10.171875l-5.359375 0l0 -1.390625l1.78125 0l0 -10.78125l-1.78125 0l0 -1.390625l5.359375 0l0 1.390625l-1.78125 0l0 10.78125l1.78125 0l0 1.390625zm11.430511 0l-1.703125 0l0 -5.796875q0 -0.703125 -0.09375 -1.3125q-0.078125 -0.609375 -0.296875 -0.96875q-0.21875 -0.375 -0.65625 -0.5625q-0.421875 -0.1875 -1.109375 -0.1875q-0.703125 0 -1.46875 0.34375q-0.765625 0.34375 -1.46875 0.890625l0 7.59375l-1.703125 0l0 -10.171875l1.703125 0l0 1.125q0.8125 -0.65625 1.65625 -1.03125q0.859375 -0.375 1.765625 -0.375q1.65625 0 2.515625 1.0q0.859375 0.984375 0.859375 2.84375l0 6.609375zm6.477783 -11.875l-1.9375 0l0 -1.78125l1.9375 0l0 1.78125zm-0.109375 12.125q0 1.78125 -0.921875 2.6875q-0.90625 0.921875 -2.4375 0.921875q-0.359375 0 -0.953125 -0.078125q-0.59375 -0.078125 -1.0 -0.1875l0 -1.625l0.09375 0q0.25 0.09375 0.671875 0.21875q0.4375 0.140625 0.859375 0.140625q0.65625 0 1.046875 -0.1875q0.40625 -0.1875 0.609375 -0.546875q0.203125 -0.359375 0.25 -0.875q0.0625 -0.515625 0.0625 -1.25l0 -8.203125l-2.125 0l0 -1.4375l3.84375 0l0 10.421875zm11.875336 -5.15625l-7.5 0q0 0.9375 0.28125 1.640625q0.28125 0.6875 0.78125 1.140625q0.46875 0.4375 1.109375 0.65625q0.65625 0.21875 1.453125 0.21875q1.03125 0 2.078125 -0.421875q1.0625 -0.421875 1.5 -0.8125l0.09375 0l0 1.859375q-0.859375 0.375 -1.765625 0.625q-0.90625 0.234375 -1.890625 0.234375q-2.53125 0 -3.953125 -1.359375q-1.421875 -1.375 -1.421875 -3.90625q0 -2.5 1.359375 -3.953125q1.359375 -1.46875 3.578125 -1.46875q2.0625 0 3.171875 1.203125q1.125 1.203125 1.125 3.40625l0 0.9375zm-1.671875 -1.3125q0 -1.34375 -0.671875 -2.078125q-0.671875 -0.75 -2.03125 -0.75q-1.375 0 -2.203125 0.8125q-0.8125 0.8125 -0.921875 2.015625l5.828125 0zm11.785461 5.578125q-0.84375 0.40625 -1.625 0.640625q-0.765625 0.234375 -1.625 0.234375q-1.109375 0 -2.03125 -0.328125q-0.921875 -0.328125 -1.578125 -0.984375q-0.65625 -0.65625 -1.03125 -1.65625q-0.359375 -1.0 -0.359375 -2.34375q0 -2.484375 1.375 -3.90625q1.375 -1.421875 3.625 -1.421875q0.875 0 1.71875 0.25q0.84375 0.234375 1.53125 0.59375l0 1.90625l-0.078125 0q-0.796875 -0.609375 -1.625 -0.9375q-0.828125 -0.328125 -1.625 -0.328125q-1.453125 0 -2.296875 0.984375q-0.84375 0.96875 -0.84375 2.859375q0 1.84375 0.8125 2.84375q0.828125 0.984375 2.328125 0.984375q0.515625 0 1.046875 -0.140625q0.546875 -0.140625 0.96875 -0.359375q0.375 -0.1875 0.703125 -0.40625q0.328125 -0.21875 0.53125 -0.359375l0.078125 0l0 1.875zm7.485443 0.546875q-0.484375 0.125 -1.0625 0.203125q-0.5625 0.09375 -1.0 0.09375q-1.5625 0 -2.375 -0.828125q-0.8125 -0.84375 -0.8125 -2.703125l0 -5.40625l-1.15625 0l0 -1.4375l1.15625 0l0 -2.921875l1.71875 0l0 2.921875l3.53125 0l0 1.4375l-3.53125 0l0 4.640625q0 0.796875 0.03125 1.25q0.03125 0.453125 0.25 0.84375q0.203125 0.359375 0.546875 0.53125q0.359375 0.171875 1.078125 0.171875q0.421875 0 0.875 -0.125q0.453125 -0.125 0.65625 -0.203125l0.09375 0l0 1.53125zm3.9138794 -11.78125l-1.9375 0l0 -1.78125l1.9375 0l0 1.78125zm-0.109375 11.875l-1.71875 0l0 -10.171875l1.71875 0l0 10.171875zm12.057037 -5.078125q0 2.484375 -1.28125 3.921875q-1.265625 1.4375 -3.40625 1.4375q-2.171875 0 -3.4375 -1.4375q-1.265625 -1.4375 -1.265625 -3.921875q0 -2.484375 1.265625 -3.921875q1.265625 -1.453125 3.4375 -1.453125q2.140625 0 3.40625 1.453125q1.28125 1.4375 1.28125 3.921875zm-1.765625 0q0 -1.984375 -0.78125 -2.9375q-0.765625 -0.96875 -2.140625 -0.96875q-1.40625 0 -2.171875 0.96875q-0.765625 0.953125 -0.765625 2.9375q0 1.90625 0.765625 2.90625q0.78125 0.984375 2.171875 0.984375q1.359375 0 2.140625 -0.984375q0.78125 -0.984375 0.78125 -2.90625zm12.91684 5.078125l-1.703125 0l0 -5.796875q0 -0.703125 -0.09375 -1.3125q-0.078125 -0.609375 -0.296875 -0.96875q-0.21875 -0.375 -0.65625 -0.5625q-0.421875 -0.1875 -1.109375 -0.1875q-0.703125 0 -1.46875 0.34375q-0.765625 0.34375 -1.46875 0.890625l0 7.59375l-1.703125 0l0 -10.171875l1.703125 0l0 1.125q0.8125 -0.65625 1.65625 -1.03125q0.859375 -0.375 1.765625 -0.375q1.65625 0 2.515625 1.0q0.859375 0.984375 0.859375 2.84375l0 6.609375z" fill-rule="nonzero"/><path fill="#000000" d="m341.6288 144.00201l-2.078125 0q-1.609375 -1.84375 -2.5 -4.03125q-0.890625 -2.1875 -0.890625 -4.921875q0 -2.75 0.890625 -4.9375q0.890625 -2.1874924 2.5 -4.0312424l2.078125 0l0 0.09375q-0.734375 0.65625 -1.40625 1.53125q-0.65625 0.8749924 -1.234375 2.0312424q-0.546875 1.109375 -0.890625 2.46875q-0.34375 1.34375 -0.34375 2.84375q0 1.546875 0.328125 2.84375q0.34375 1.296875 0.90625 2.453125q0.546875 1.125 1.25 2.03125q0.703125 0.90625 1.390625 1.53125l0 0.09375zm14.628082 -10.515625q0 1.84375 -0.8125 3.359375q-0.796875 1.5 -2.140625 2.328125q-0.921875 0.5625 -2.078125 0.828125q-1.140625 0.25 -3.0 0.25l-3.421875 0l0 -13.562492l3.375 0q2.0 0 3.15625 0.296875q1.171875 0.28125 1.984375 0.78125q1.390625 0.8593674 2.15625 2.2968674q0.78125 1.4375 0.78125 3.421875zm-1.890625 -0.03125q0 -1.59375 -0.5625 -2.6875q-0.546875 -1.09375 -1.640625 -1.71875q-0.8125 -0.453125 -1.71875 -0.625q-0.890625 -0.1875 -2.15625 -0.1875l-1.6875 0l0 10.46875l1.6875 0q1.3125 0 2.28125 -0.1875q0.96875 -0.203125 1.78125 -0.71875q1.015625 -0.640625 1.515625 -1.6875q0.5 -1.0625 0.5 -2.65625zm9.593536 6.796875l-5.359375 0l0 -1.390625l1.78125 0l0 -10.78125l-1.78125 0l0 -1.3906174l5.359375 0l0 1.3906174l-1.78125 0l0 10.78125l1.78125 0l0 1.390625zm8.071136 -5.203125q0 2.734375 -0.90625 4.921875q-0.890625 2.1875 -2.5 4.03125l-2.078125 0l0 -0.09375q0.703125 -0.625 1.40625 -1.53125q0.703125 -0.90625 1.234375 -2.03125q0.578125 -1.15625 0.90625 -2.453125q0.328125 -1.296875 0.328125 -2.84375q0 -1.5 -0.34375 -2.84375q-0.328125 -1.359375 -0.890625 -2.46875q-0.5625 -1.15625 -1.234375 -2.0312424q-0.671875 -0.875 -1.40625 -1.53125l0 -0.09375l2.078125 0q1.609375 1.84375 2.5 4.0312424q0.90625 2.1875 0.90625 4.9375z" fill-rule="nonzero"/><path fill="#d9d9d9" d="m189.86876 177.96063l328.44092 0l0 60.472443l-328.44092 0z" fill-rule="evenodd"/><path stroke="#000000" stroke-width="2.0" stroke-linejoin="round" stroke-linecap="butt" d="m189.86876 177.96063l328.44092 0l0 60.472443l-328.44092 0z" fill-rule="evenodd"/><path fill="#000000" d="m295.96198 215.11685l-5.359375 0l0 -1.390625l1.78125 0l0 -10.78125l-1.78125 0l0 -1.390625l5.359375 0l0 1.390625l-1.78125 0l0 10.78125l1.78125 0l0 1.390625zm11.602386 -5.078125q0 2.484375 -1.28125 3.921875q-1.265625 1.4375 -3.40625 1.4375q-2.171875 0 -3.4375 -1.4375q-1.265625 -1.4375 -1.265625 -3.921875q0 -2.484375 1.265625 -3.921875q1.265625 -1.453125 3.4375 -1.453125q2.140625 0 3.40625 1.453125q1.28125 1.4375 1.28125 3.921875zm-1.765625 0q0 -1.984375 -0.78125 -2.9375q-0.765625 -0.96875 -2.140625 -0.96875q-1.40625 0 -2.171875 0.96875q-0.765625 0.953125 -0.765625 2.9375q0 1.90625 0.765625 2.90625q0.78125 0.984375 2.171875 0.984375q1.359375 0 2.140625 -0.984375q0.78125 -0.984375 0.78125 -2.90625zm15.026245 4.09375q-0.5 0.21875 -0.90625 0.421875q-0.40625 0.1875 -1.0625 0.390625q-0.546875 0.171875 -1.2031555 0.296875q-0.65625 0.125 -1.4375 0.125q-1.46875 0 -2.6875 -0.40625q-1.203125 -0.421875 -2.09375 -1.3125q-0.875 -0.859375 -1.375 -2.1875q-0.484375 -1.34375 -0.484375 -3.109375q0 -1.671875 0.46875 -3.0q0.484375 -1.328125 1.375 -2.234375q0.859375 -0.875 2.078125 -1.34375q1.234375 -0.46875 2.734375 -0.46875q1.09375 0 2.1719055 0.265625q1.09375 0.265625 2.421875 0.9375l0 2.140625l-0.140625 0q-1.109375 -0.953125 -2.21875 -1.375q-1.0937805 -0.421875 -2.3594055 -0.421875q-1.03125 0 -1.859375 0.328125q-0.8125 0.328125 -1.46875 1.03125q-0.625 0.6875 -0.984375 1.734375q-0.34375 1.03125 -0.34375 2.40625q0 1.421875 0.390625 2.453125q0.390625 1.03125 1.0 1.6875q0.640625 0.671875 1.484375 1.0q0.859375 0.3125 1.796875 0.3125q1.3125 0 2.4375305 -0.4375q1.140625 -0.453125 2.140625 -1.34375l0.125 0l0 2.109375zm19.585419 0q-0.5 0.21875 -0.90625 0.421875q-0.40625 0.1875 -1.0625 0.390625q-0.546875 0.171875 -1.203125 0.296875q-0.65625 0.125 -1.4375 0.125q-1.46875 0 -2.6875 -0.40625q-1.203125 -0.421875 -2.09375 -1.3125q-0.875 -0.859375 -1.375 -2.1875q-0.484375 -1.34375 -0.484375 -3.109375q0 -1.671875 0.46875 -3.0q0.484375 -1.328125 1.375 -2.234375q0.859375 -0.875 2.078125 -1.34375q1.234375 -0.46875 2.734375 -0.46875q1.09375 0 2.171875 0.265625q1.09375 0.265625 2.421875 0.9375l0 2.140625l-0.140625 0q-1.109375 -0.953125 -2.21875 -1.375q-1.09375 -0.421875 -2.359375 -0.421875q-1.03125 0 -1.859375 0.328125q-0.8125 0.328125 -1.46875 1.03125q-0.625 0.6875 -0.984375 1.734375q-0.34375 1.03125 -0.34375 2.40625q0 1.421875 0.390625 2.453125q0.390625 1.03125 1.0 1.6875q0.640625 0.671875 1.484375 1.0q0.859375 0.3125 1.796875 0.3125q1.3125 0 2.4375 -0.4375q1.140625 -0.453125 2.140625 -1.34375l0.125 0l0 2.109375zm11.089081 -4.09375q0 2.484375 -1.28125 3.921875q-1.265625 1.4375 -3.40625 1.4375q-2.171875 0 -3.4375 -1.4375q-1.265625 -1.4375 -1.265625 -3.921875q0 -2.484375 1.265625 -3.921875q1.265625 -1.453125 3.4375 -1.453125q2.140625 0 3.40625 1.453125q1.28125 1.4375 1.28125 3.921875zm-1.765625 0q0 -1.984375 -0.78125 -2.9375q-0.765625 -0.96875 -2.140625 -0.96875q-1.40625 0 -2.171875 0.96875q-0.765625 0.953125 -0.765625 2.9375q0 1.90625 0.765625 2.90625q0.78125 0.984375 2.171875 0.984375q1.359375 0 2.140625 -0.984375q0.78125 -0.984375 0.78125 -2.90625zm12.91684 5.078125l-1.703125 0l0 -5.796875q0 -0.703125 -0.09375 -1.3125q-0.078125 -0.609375 -0.296875 -0.96875q-0.21875 -0.375 -0.65625 -0.5625q-0.421875 -0.1875 -1.109375 -0.1875q-0.703125 0 -1.46875 0.34375q-0.765625 0.34375 -1.46875 0.890625l0 7.59375l-1.703125 0l0 -10.171875l1.703125 0l0 1.125q0.8125 -0.65625 1.65625 -1.03125q0.859375 -0.375 1.765625 -0.375q1.65625 0 2.515625 1.0q0.859375 0.984375 0.859375 2.84375l0 6.609375zm8.587158 -0.09375q-0.484375 0.125 -1.0625 0.203125q-0.5625 0.09375 -1.0 0.09375q-1.5625 0 -2.375 -0.828125q-0.8125 -0.84375 -0.8125 -2.703125l0 -5.40625l-1.15625 0l0 -1.4375l1.15625 0l0 -2.921875l1.71875 0l0 2.921875l3.53125 0l0 1.4375l-3.53125 0l0 4.640625q0 0.796875 0.03125 1.25q0.03125 0.453125 0.25 0.84375q0.203125 0.359375 0.546875 0.53125q0.359375 0.171875 1.078125 0.171875q0.421875 0 0.875 -0.125q0.453125 -0.125 0.65625 -0.203125l0.09375 0l0 1.53125zm9.976379 0.09375l-1.703125 0l0 -1.078125q-0.234375 0.15625 -0.625 0.4375q-0.375 0.265625 -0.75 0.4375q-0.421875 0.203125 -0.984375 0.34375q-0.546875 0.140625 -1.296875 0.140625q-1.375 0 -2.328125 -0.90625q-0.953125 -0.921875 -0.953125 -2.328125q0 -1.15625 0.484375 -1.859375q0.5 -0.71875 1.421875 -1.140625q0.9375 -0.40625 2.234375 -0.546875q1.296875 -0.15625 2.796875 -0.21875l0 -0.265625q0 -0.578125 -0.203125 -0.953125q-0.203125 -0.390625 -0.59375 -0.609375q-0.359375 -0.21875 -0.875 -0.28125q-0.5 -0.078125 -1.0625 -0.078125q-0.671875 0 -1.5 0.1875q-0.828125 0.171875 -1.71875 0.5l-0.09375 0l0 -1.734375q0.5 -0.140625 1.453125 -0.296875q0.953125 -0.171875 1.875 -0.171875q1.0625 0 1.859375 0.1875q0.796875 0.171875 1.390625 0.59375q0.5625 0.421875 0.859375 1.09375q0.3125 0.65625 0.3125 1.640625l0 6.90625zm-1.703125 -2.5l0 -2.84375q-0.78125 0.046875 -1.84375 0.140625q-1.0625 0.09375 -1.6875 0.265625q-0.734375 0.203125 -1.1875 0.65625q-0.453125 0.4375 -0.453125 1.21875q0 0.859375 0.515625 1.3125q0.53125 0.4375 1.625 0.4375q0.890625 0 1.640625 -0.34375q0.75 -0.359375 1.390625 -0.84375zm6.8453064 -9.375l-1.9375 0l0 -1.78125l1.9375 0l0 1.78125zm-0.109375 11.875l-1.71875 0l0 -10.171875l1.71875 0l0 10.171875zm11.885162 0l-1.703125 0l0 -5.796875q0 -0.703125 -0.09375 -1.3125q-0.078125 -0.609375 -0.296875 -0.96875q-0.21875 -0.375 -0.65625 -0.5625q-0.421875 -0.1875 -1.109375 -0.1875q-0.703125 0 -1.46875 0.34375q-0.765625 0.34375 -1.46875 0.890625l0 7.59375l-1.703125 0l0 -10.171875l1.703125 0l0 1.125q0.8125 -0.65625 1.65625 -1.03125q0.859375 -0.375 1.765625 -0.375q1.65625 0 2.515625 1.0q0.859375 0.984375 0.859375 2.84375l0 6.609375zm11.821533 -4.90625l-7.5 0q0 0.9375 0.28125 1.640625q0.28125 0.6875 0.78125 1.140625q0.46875 0.4375 1.109375 0.65625q0.65625 0.21875 1.453125 0.21875q1.03125 0 2.078125 -0.421875q1.0625 -0.421875 1.5 -0.8125l0.09375 0l0 1.859375q-0.859375 0.375 -1.765625 0.625q-0.90625 0.234375 -1.890625 0.234375q-2.53125 0 -3.953125 -1.359375q-1.421875 -1.375 -1.421875 -3.90625q0 -2.5 1.359375 -3.953125q1.359375 -1.46875 3.578125 -1.46875q2.0625 0 3.171875 1.203125q1.125 1.203125 1.125 3.40625l0 0.9375zm-1.671875 -1.3125q0 -1.34375 -0.671875 -2.078125q-0.671875 -0.75 -2.03125 -0.75q-1.375 0 -2.203125 0.8125q-0.8125 0.8125 -0.921875 2.015625l5.828125 0zm10.613586 -2.09375l-0.09375 0q-0.375 -0.09375 -0.734375 -0.125q-0.359375 -0.046875 -0.859375 -0.046875q-0.78125 0 -1.53125 0.359375q-0.734375 0.34375 -1.421875 0.90625l0 7.21875l-1.703125 0l0 -10.171875l1.703125 0l0 1.5q1.03125 -0.8125 1.796875 -1.15625q0.78125 -0.34375 1.59375 -0.34375q0.453125 0 0.65625 0.03125q0.203125 0.015625 0.59375 0.078125l0 1.75z" fill-rule="nonzero"/><path fill="#000000" fill-opacity="0.0" d="m706.084 6.233596l117.921265 0l0 60.472443l-117.921265 0z" fill-rule="evenodd"/><path fill="#000000" d="m715.88086 43.389816l2.796875 -13.359377l5.578125 0q1.453125 0 2.171875 0.34375q0.71875 0.328125 1.1875 1.140625q0.484375 0.7968769 0.484375 1.7968769q0 0.828125 -0.34375 1.6875q-0.328125 0.859375 -0.84375 1.421875q-0.515625 0.546875 -1.046875 0.828125q-0.53125 0.28125 -1.125 0.421875q-1.28125 0.296875 -2.59375 0.296875l-3.34375 0l-1.125 5.421875l-1.796875 0zm3.234375 -6.9375l2.953125 0q1.703125 0 2.5 -0.359375q0.8125 -0.375 1.296875 -1.125q0.484375 -0.765625 0.484375 -1.609375q0 -0.65625 -0.265625 -1.0625q-0.25 -0.4218769 -0.71875 -0.6093769q-0.46875 -0.203125 -1.78125 -0.203125l-3.421875 0l-1.046875 4.968752zm9.0373535 6.9375l2.015625 -9.671875l1.453125 0l-0.40625 1.96875q0.75 -1.109375 1.453125 -1.640625q0.71875 -0.546875 1.46875 -0.546875q0.5 0 1.21875 0.359375l-0.671875 1.53125q-0.4375 -0.3125 -0.9375 -0.3125q-0.875 0 -1.78125 0.96875q-0.90625 0.953125 -1.4375 3.46875l-0.8125 3.875l-1.5625 0zm8.5407715 -11.484377l0.40625 -1.875l1.625 0l-0.390625 1.875l-1.640625 0zm-2.390625 11.484377l2.015625 -9.671875l1.65625 0l-2.03125 9.671875l-1.640625 0zm4.2073364 0l2.015625 -9.671875l1.5 0l-0.359375 1.6875q0.96875 -1.0 1.8125 -1.453125q0.859375 -0.453125 1.734375 -0.453125q1.1875 0 1.84375 0.640625q0.671875 0.625 0.671875 1.703125q0 0.53125 -0.234375 1.6875l-1.234375 5.859375l-1.640625 0l1.28125 -6.125q0.1875 -0.890625 0.1875 -1.328125q0 -0.484375 -0.328125 -0.78125q-0.328125 -0.296875 -0.953125 -0.296875q-1.28125 0 -2.265625 0.90625q-0.984375 0.90625 -1.453125 3.125l-0.9375 4.5l-1.640625 0zm17.047607 -3.53125l1.65625 0.171875q-0.625 1.8125 -1.765625 2.703125q-1.140625 0.875 -2.609375 0.875q-1.578125 0 -2.5625 -1.015625q-0.96875 -1.03125 -0.96875 -2.859375q0 -1.578125 0.625 -3.109375q0.640625 -1.53125 1.796875 -2.328125q1.171875 -0.796875 2.6875 -0.796875q1.546875 0 2.453125 0.875q0.921875 0.875 0.921875 2.328125l-1.625 0.109375q-0.015625 -0.921875 -0.546875 -1.4375q-0.515625 -0.515625 -1.359375 -0.515625q-1.0 0 -1.734375 0.625q-0.71875 0.625 -1.140625 1.90625q-0.40625 1.28125 -0.40625 2.46875q0 1.234375 0.546875 1.859375q0.546875 0.609375 1.34375 0.609375q0.796875 0 1.53125 -0.609375q0.734375 -0.609375 1.15625 -1.859375zm4.984375 -7.953127l0.40625 -1.875l1.625 0l-0.390625 1.875l-1.640625 0zm-2.390625 11.484377l2.015625 -9.671875l1.65625 0l-2.03125 9.671875l-1.640625 0zm3.3947754 3.703125l2.796875 -13.375l1.515625 0l-0.28125 1.34375q0.84375 -0.875 1.515625 -1.21875q0.671875 -0.34375 1.421875 -0.34375q1.375 0 2.28125 1.015625q0.921875 1.0 0.921875 2.875q0 1.515625 -0.5 2.765625q-0.5 1.234375 -1.234375 2.0q-0.71875 0.75 -1.46875 1.109375q-0.75 0.34375 -1.53125 0.34375q-1.75 0 -2.703125 -1.765625l-1.09375 5.25l-1.640625 0zm3.25 -7.65625q0 1.078125 0.15625 1.5q0.234375 0.59375 0.75 0.96875q0.515625 0.359375 1.203125 0.359375q1.421875 0 2.296875 -1.59375q0.875 -1.609375 0.875 -3.28125q0 -1.21875 -0.59375 -1.890625q-0.578125 -0.671875 -1.453125 -0.671875q-0.625 0 -1.171875 0.34375q-0.53125 0.328125 -1.0 0.984375q-0.453125 0.65625 -0.765625 1.609375q-0.296875 0.953125 -0.296875 1.671875zm7.7976074 3.953125l2.796875 -13.359377l1.640625 0l-2.78125 13.359377l-1.65625 0zm11.379211 -3.28125l1.609375 0.15625q-0.34375 1.1875 -1.59375 2.265625q-1.234375 1.078125 -2.96875 1.078125q-1.0625 0 -1.96875 -0.5q-0.890625 -0.5 -1.359375 -1.4375q-0.46875 -0.953125 -0.46875 -2.15625q0 -1.59375 0.734375 -3.078125q0.734375 -1.484375 1.890625 -2.203125q1.171875 -0.734375 2.53125 -0.734375q1.734375 0 2.765625 1.078125q1.03125 1.0625 1.03125 2.921875q0 0.71875 -0.125 1.46875l-7.125 0q-0.046875 0.28125 -0.046875 0.5q0 1.359375 0.625 2.078125q0.625 0.71875 1.53125 0.71875q0.84375 0 1.65625 -0.546875q0.828125 -0.5625 1.28125 -1.609375zm-4.78125 -2.40625l5.421875 0q0.015625 -0.25 0.015625 -0.359375q0 -1.234375 -0.625 -1.890625q-0.625 -0.671875 -1.59375 -0.671875q-1.0625 0 -1.9375 0.734375q-0.859375 0.71875 -1.28125 2.1875z" fill-rule="nonzero"/><path fill="#000000" fill-opacity="0.0" d="m706.084 177.96063l117.921265 0l0 60.472443l-117.921265 0z" fill-rule="evenodd"/><path fill="#000000" d="m715.92773 215.11685l2.796875 -13.359375l8.671875 0l-0.3125 1.53125l-6.90625 0l-0.875 4.25l7.015625 0l-0.3125 1.515625l-7.015625 0l-1.28125 6.0625l-1.78125 0zm11.177246 0l2.015625 -9.671875l1.453125 0l-0.40625 1.96875q0.75 -1.109375 1.453125 -1.640625q0.71875 -0.546875 1.46875 -0.546875q0.5 0 1.21875 0.359375l-0.671875 1.53125q-0.4375 -0.3125 -0.9375 -0.3125q-0.875 0 -1.78125 0.96875q-0.90625 0.953125 -1.4375 3.46875l-0.8125 3.875l-1.5625 0zm12.7282715 -1.203125q-0.859375 0.734375 -1.65625 1.078125q-0.78125 0.34375 -1.6875 0.34375q-1.34375 0 -2.171875 -0.78125q-0.8125 -0.796875 -0.8125 -2.03125q0 -0.796875 0.375 -1.421875q0.375 -0.625 0.984375 -1.0q0.609375 -0.390625 1.484375 -0.546875q0.5625 -0.109375 2.109375 -0.171875q1.5625 -0.0625 2.234375 -0.328125q0.1875 -0.671875 0.1875 -1.125q0 -0.578125 -0.421875 -0.90625q-0.5625 -0.453125 -1.671875 -0.453125q-1.03125 0 -1.703125 0.46875q-0.65625 0.453125 -0.953125 1.296875l-1.671875 -0.140625q0.515625 -1.4375 1.609375 -2.203125q1.109375 -0.765625 2.796875 -0.765625q1.796875 0 2.84375 0.859375q0.796875 0.625 0.796875 1.65625q0 0.765625 -0.21875 1.796875l-0.53125 2.40625q-0.265625 1.140625 -0.265625 1.859375q0 0.453125 0.203125 1.3125l-1.671875 0q-0.125 -0.46875 -0.1875 -1.203125zm0.609375 -3.703125q-0.34375 0.140625 -0.75 0.21875q-0.390625 0.0625 -1.3125 0.15625q-1.4375 0.125 -2.03125 0.328125q-0.59375 0.1875 -0.90625 0.625q-0.296875 0.421875 -0.296875 0.9375q0 0.6875 0.484375 1.140625q0.484375 0.4375 1.359375 0.4375q0.828125 0 1.578125 -0.421875q0.75 -0.4375 1.1875 -1.203125q0.4375 -0.78125 0.6875 -2.21875zm3.2351074 4.90625l2.015625 -9.671875l1.65625 0l-0.34375 1.59375q0.921875 -1.03125 1.640625 -1.421875q0.734375 -0.390625 1.578125 -0.390625q0.90625 0 1.515625 0.484375q0.609375 0.46875 0.796875 1.328125q0.734375 -0.90625 1.546875 -1.359375q0.8125 -0.453125 1.71875 -0.453125q1.21875 0 1.8125 0.578125q0.609375 0.5625 0.609375 1.609375q0 0.4375 -0.203125 1.46875l-1.3125 6.234375l-1.640625 0l1.328125 -6.390625q0.171875 -0.78125 0.171875 -1.125q0 -0.46875 -0.296875 -0.734375q-0.296875 -0.28125 -0.84375 -0.28125q-0.75 0 -1.515625 0.453125q-0.765625 0.4375 -1.1875 1.171875q-0.421875 0.71875 -0.734375 2.21875l-0.984375 4.6875l-1.65625 0l1.375 -6.53125q0.140625 -0.671875 0.140625 -0.953125q0 -0.46875 -0.296875 -0.75q-0.296875 -0.296875 -0.765625 -0.296875q-0.703125 0 -1.484375 0.453125q-0.765625 0.4375 -1.25 1.234375q-0.46875 0.796875 -0.78125 2.265625l-0.953125 4.578125l-1.65625 0zm22.650208 -3.28125l1.609375 0.15625q-0.34375 1.1875 -1.59375 2.265625q-1.234375 1.078125 -2.96875 1.078125q-1.0625 0 -1.96875 -0.5q-0.890625 -0.5 -1.359375 -1.4375q-0.46875 -0.953125 -0.46875 -2.15625q0 -1.59375 0.734375 -3.078125q0.734375 -1.484375 1.890625 -2.203125q1.171875 -0.734375 2.53125 -0.734375q1.734375 0 2.765625 1.078125q1.03125 1.0625 1.03125 2.921875q0 0.71875 -0.125 1.46875l-7.125 0q-0.046875 0.28125 -0.046875 0.5q0 1.359375 0.625 2.078125q0.625 0.71875 1.53125 0.71875q0.84375 0 1.65625 -0.546875q0.828125 -0.5625 1.28125 -1.609375zm-4.78125 -2.40625l5.421875 0q0.015625 -0.25 0.015625 -0.359375q0 -1.234375 -0.625 -1.890625q-0.625 -0.671875 -1.59375 -0.671875q-1.0625 0 -1.9375 0.734375q-0.859375 0.71875 -1.28125 2.1875zm9.891296 5.6875l-1.0 -9.671875l1.578125 0l0.4375 4.34375l0.171875 2.4375q0.015625 0.28125 0.0625 1.109375q0.265625 -0.9375 0.453125 -1.421875q0.203125 -0.5 0.609375 -1.421875l2.3125 -5.046875l1.796875 0l0.3125 4.828125q0.078125 1.109375 0.09375 2.953125q0.453125 -1.21875 1.484375 -3.390625l2.078125 -4.390625l1.65625 0l-4.734375 9.671875l-1.71875 0l-0.359375 -5.671875q-0.03125 -0.53125 -0.046875 -2.0625q-0.375 0.96875 -0.890625 2.109375l-2.5625 5.625l-1.734375 0zm11.926086 -3.671875q0 -2.828125 1.671875 -4.6875q1.375 -1.53125 3.609375 -1.53125q1.75 0 2.8125 1.09375q1.078125 1.09375 1.078125 2.953125q0 1.65625 -0.671875 3.09375q-0.671875 1.4375 -1.921875 2.203125q-1.25 0.765625 -2.625 0.765625q-1.125 0 -2.046875 -0.484375q-0.921875 -0.484375 -1.421875 -1.359375q-0.484375 -0.890625 -0.484375 -2.046875zm1.65625 -0.15625q0 1.359375 0.65625 2.0625q0.65625 0.703125 1.65625 0.703125q0.53125 0 1.046875 -0.203125q0.53125 -0.21875 0.96875 -0.65625q0.453125 -0.4375 0.765625 -1.0q0.3125 -0.5625 0.5 -1.203125q0.28125 -0.90625 0.28125 -1.734375q0 -1.3125 -0.65625 -2.03125q-0.65625 -0.734375 -1.65625 -0.734375q-0.78125 0 -1.421875 0.375q-0.625 0.375 -1.140625 1.09375q-0.515625 0.703125 -0.765625 1.640625q-0.234375 0.9375 -0.234375 1.6875zm8.438232 3.828125l2.015625 -9.671875l1.453125 0l-0.40625 1.96875q0.75 -1.109375 1.453125 -1.640625q0.71875 -0.546875 1.46875 -0.546875q0.5 0 1.21875 0.359375l-0.671875 1.53125q-0.4375 -0.3125 -0.9375 -0.3125q-0.875 0 -1.78125 0.96875q-0.90625 0.953125 -1.4375 3.46875l-0.8125 3.875l-1.5625 0zm6.2282715 0l2.796875 -13.359375l1.640625 0l-1.734375 8.28125l4.8125 -4.59375l2.171875 0l-4.125 3.609375l2.5 6.0625l-1.8125 0l-1.921875 -4.96875l-2.015625 1.734375l-0.671875 3.234375l-1.640625 0z" fill-rule="nonzero"/><path fill="#000000" fill-opacity="0.0" d="m706.084 92.097115l117.921265 0l0 60.472435l-117.921265 0z" fill-rule="evenodd"/><path fill="#000000" d="m715.88086 129.25333l2.796875 -13.359367l5.578125 0q1.453125 0 2.171875 0.34375q0.71875 0.328125 1.1875 1.140625q0.484375 0.796875 0.484375 1.796875q0 0.828125 -0.34375 1.6875q-0.328125 0.859375 -0.84375 1.421875q-0.515625 0.546875 -1.046875 0.828125q-0.53125 0.28125 -1.125 0.421875q-1.28125 0.296875 -2.59375 0.296875l-3.34375 0l-1.125 5.4218674l-1.796875 0zm3.234375 -6.9374924l2.953125 0q1.703125 0 2.5 -0.359375q0.8125 -0.375 1.296875 -1.125q0.484375 -0.765625 0.484375 -1.609375q0 -0.65625 -0.265625 -1.0625q-0.25 -0.421875 -0.71875 -0.609375q-0.46875 -0.203125 -1.78125 -0.203125l-3.421875 0l-1.046875 4.96875zm15.5529785 5.7343674q-0.859375 0.734375 -1.65625 1.078125q-0.78125 0.34375 -1.6875 0.34375q-1.34375 0 -2.171875 -0.78125q-0.8125 -0.7968674 -0.8125 -2.0312424q0 -0.796875 0.375 -1.421875q0.375 -0.625 0.984375 -1.0q0.609375 -0.390625 1.484375 -0.546875q0.5625 -0.109375 2.109375 -0.171875q1.5625 -0.0625 2.234375 -0.328125q0.1875 -0.671875 0.1875 -1.125q0 -0.578125 -0.421875 -0.90625q-0.5625 -0.453125 -1.671875 -0.453125q-1.03125 0 -1.703125 0.46875q-0.65625 0.453125 -0.953125 1.296875l-1.671875 -0.140625q0.515625 -1.4375 1.609375 -2.203125q1.109375 -0.765625 2.796875 -0.765625q1.796875 0 2.84375 0.859375q0.796875 0.625 0.796875 1.65625q0 0.765625 -0.21875 1.796875l-0.53125 2.40625q-0.265625 1.140625 -0.265625 1.859375q0 0.45311737 0.203125 1.3124924l-1.671875 0q-0.125 -0.46875 -0.1875 -1.203125zm0.609375 -3.7031174q-0.34375 0.140625 -0.75 0.21875q-0.390625 0.0625 -1.3125 0.15625q-1.4375 0.125 -2.03125 0.328125q-0.59375 0.1875 -0.90625 0.625q-0.296875 0.421875 -0.296875 0.9375q0 0.6875 0.484375 1.140625q0.484375 0.43749237 1.359375 0.43749237q0.828125 0 1.578125 -0.42186737q0.75 -0.4375 1.1875 -1.203125q0.4375 -0.78125 0.6875 -2.21875zm7.0944214 3.5625l-0.265625 1.3593674q-0.59375 0.140625 -1.15625 0.140625q-0.984375 0 -1.5625 -0.46875q-0.4375 -0.375 -0.4375 -0.9999924q0 -0.3125 0.234375 -1.46875l1.171875 -5.625l-1.296875 0l0.265625 -1.265625l1.296875 0l0.5 -2.375l1.890625 -1.140625l-0.734375 3.515625l1.625 0l-0.28125 1.265625l-1.609375 0l-1.125 5.359375q-0.203125 1.015625 -0.203125 1.21875q0 0.28125 0.15625 0.4375q0.171875 0.15624237 0.5625 0.15624237q0.546875 0 0.96875 -0.10936737zm5.1833496 0l-0.265625 1.3593674q-0.59375 0.140625 -1.15625 0.140625q-0.984375 0 -1.5625 -0.46875q-0.4375 -0.375 -0.4375 -0.9999924q0 -0.3125 0.234375 -1.46875l1.171875 -5.625l-1.296875 0l0.265625 -1.265625l1.296875 0l0.5 -2.375l1.890625 -1.140625l-0.734375 3.515625l1.625 0l-0.28125 1.265625l-1.609375 0l-1.125 5.359375q-0.203125 1.015625 -0.203125 1.21875q0 0.28125 0.15625 0.4375q0.171875 0.15624237 0.5625 0.15624237q0.546875 0 0.96875 -0.10936737zm8.433289 -1.9375l1.609375 0.15625q-0.34375 1.1875 -1.59375 2.2656174q-1.234375 1.078125 -2.96875 1.078125q-1.0625 0 -1.96875 -0.5q-0.890625 -0.5 -1.359375 -1.4374924q-0.46875 -0.953125 -0.46875 -2.15625q0 -1.59375 0.734375 -3.078125q0.734375 -1.484375 1.890625 -2.203125q1.171875 -0.734375 2.53125 -0.734375q1.734375 0 2.765625 1.078125q1.03125 1.0625 1.03125 2.921875q0 0.71875 -0.125 1.46875l-7.125 0q-0.046875 0.28125 -0.046875 0.5q0 1.359375 0.625 2.078125q0.625 0.7187424 1.53125 0.7187424q0.84375 0 1.65625 -0.5468674q0.828125 -0.5625 1.28125 -1.609375zm-4.78125 -2.40625l5.421875 0q0.015625 -0.25 0.015625 -0.359375q0 -1.234375 -0.625 -1.890625q-0.625 -0.671875 -1.59375 -0.671875q-1.0625 0 -1.9375 0.734375q-0.859375 0.71875 -1.28125 2.1875zm8.063232 5.6874924l2.015625 -9.671867l1.453125 0l-0.40625 1.96875q0.75 -1.109375 1.453125 -1.640625q0.71875 -0.546875 1.46875 -0.546875q0.5 0 1.21875 0.359375l-0.671875 1.53125q-0.4375 -0.3125 -0.9375 -0.3125q-0.875 0 -1.78125 0.96875q-0.90625 0.953125 -1.4375 3.46875l-0.8125 3.8749924l-1.5625 0zm6.2126465 0l2.015625 -9.671867l1.5 0l-0.359375 1.6875q0.96875 -1.0 1.8125 -1.453125q0.859375 -0.453125 1.734375 -0.453125q1.1875 0 1.84375 0.640625q0.671875 0.625 0.671875 1.703125q0 0.53125 -0.234375 1.6875l-1.234375 5.8593674l-1.640625 0l1.28125 -6.1249924q0.1875 -0.890625 0.1875 -1.328125q0 -0.484375 -0.328125 -0.78125q-0.328125 -0.296875 -0.953125 -0.296875q-1.28125 0 -2.265625 0.90625q-0.984375 0.90625 -1.453125 3.125l-0.9375 4.4999924l-1.640625 0z" fill-rule="nonzero"/></g></svg>