<svg version="1.1" viewBox="0.0 0.0 792.0 238.0" fill="none" stroke="none" stroke-linecap="square" stroke-miterlimit="10" xmlns:xlink="http://www.w3.org/1999/xlink" xmlns="http://www.w3.org/2000/svg"><clipPath id="p.0"><path d="m0 0l792.0 0l0 238.0l-792.0 0l0 -238.0z" clip-rule="nonzero"/></clipPath><g clip-path="url(#p.0)"><path fill="#000000" fill-opacity="0.0" d="m0 0l792.0 0l0 238.0l-792.0 0z" fill-rule="evenodd"/><path fill="#d9d9d9" d="m78.16798 5.866142l563.1181 0l0 60.472443l-563.1181 0z" fill-rule="evenodd"/><path stroke="#000000" stroke-width="2.0" stroke-linejoin="round" stroke-linecap="butt" d="m78.16798 5.866142l563.1181 0l0 60.472443l-563.1181 0z" fill-rule="evenodd"/><path fill="#000000" d="m273.0096 32.02236l-5.359375 0l0 -1.390625l1.78125 0l0 -10.78125l-1.78125 0l0 -1.390625l5.359375 0l0 1.390625l-1.78125 0l0 10.78125l1.78125 0l0 1.390625zm11.430511 0l-1.703125 0l0 -5.796875q0 -0.703125 -0.09375 -1.3125q-0.078125 -0.609375 -0.296875 -0.96875q-0.21875 -0.375 -0.65625 -0.5625q-0.421875 -0.1875 -1.109375 -0.1875q-0.703125 0 -1.46875 0.34375q-0.765625 0.34375 -1.46875 0.890625l0 7.59375l-1.703125 0l0 -10.171875l1.703125 0l0 1.125q0.8125 -0.65625 1.65625 -1.03125q0.859375 -0.375 1.765625 -0.375q1.65625 0 2.515625 1.0q0.859375 0.984375 0.859375 2.84375l0 6.609375zm12.102783 -10.171875l-4.109375 10.171875l-1.734375 0l-4.078125 -10.171875l1.84375 0l3.15625 8.09375l3.125 -8.09375l1.796875 0zm10.75946 5.265625l-7.5 0q0 0.9375 0.28125 1.640625q0.28125 0.6875 0.78125 1.140625q0.46875 0.4375 1.109375 0.65625q0.65625 0.21875 1.453125 0.21875q1.03125 0 2.078125 -0.421875q1.0625 -0.421875 1.5 -0.8125l0.09375 0l0 1.859375q-0.859375 0.375 -1.765625 0.625q-0.90625 0.234375 -1.890625 0.234375q-2.53125 0 -3.953125 -1.359375q-1.421875 -1.375 -1.421875 -3.90625q0 -2.5 1.359375 -3.953125q1.359375 -1.46875 3.578125 -1.46875q2.0625 0 3.171875 1.203125q1.125 1.203125 1.125 3.40625l0 0.9375zm-1.671875 -1.3125q0 -1.34375 -0.671875 -2.078125q-0.671875 -0.75 -2.03125 -0.75q-1.375 0 -2.203125 0.8125q-0.8125 0.8125 -0.921875 2.015625l5.828125 0zm10.613586 -2.09375l-0.09375 0q-0.375 -0.09375 -0.734375 -0.125q-0.359375 -0.046875 -0.859375 -0.046875q-0.78125 0 -1.53125 0.359375q-0.734375 0.34375 -1.421875 0.90625l0 7.21875l-1.703125 0l0 -10.171875l1.703125 0l0 1.5q1.03125 -0.8125 1.796875 -1.15625q0.78125 -0.34375 1.59375 -0.34375q0.453125 0 0.65625 0.03125q0.203125 0.015625 0.59375 0.078125l0 1.75zm8.883575 5.375q0 1.390625 -1.15625 2.296875q-1.140625 0.890625 -3.140625 0.890625q-1.125 0 -2.078125 -0.265625q-0.9375 -0.28125 -1.578125 -0.59375l0 -1.921875l0.09375 0q0.8125 0.609375 1.796875 0.96875q1.0 0.359375 1.90625 0.359375q1.140625 0 1.765625 -0.359375q0.640625 -0.375 0.640625 -1.15625q0 -0.59375 -0.34375 -0.90625q-0.34375 -0.3125 -1.328125 -0.53125q-0.359375 -0.078125 -0.953125 -0.1875q-0.59375 -0.109375 -1.078125 -0.234375q-1.328125 -0.359375 -1.890625 -1.046875q-0.5625 -0.6875 -0.5625 -1.6875q0 -0.625 0.25 -1.1875q0.265625 -0.5625 0.796875 -0.984375q0.515625 -0.4375 1.296875 -0.6875q0.796875 -0.25 1.765625 -0.25q0.90625 0 1.84375 0.234375q0.9375 0.21875 1.546875 0.53125l0 1.828125l-0.078125 0q-0.65625 -0.484375 -1.59375 -0.8125q-0.9375 -0.328125 -1.84375 -0.328125q-0.9375 0 -1.59375 0.359375q-0.640625 0.359375 -0.640625 1.0625q0 0.625 0.390625 0.953125q0.390625 0.3125 1.234375 0.515625q0.484375 0.109375 1.0625 0.21875q0.59375 0.109375 0.984375 0.203125q1.1875 0.265625 1.84375 0.9375q0.640625 0.671875 0.640625 1.78125zm4.297943 -8.9375l-1.9375 0l0 -1.78125l1.9375 0l0 1.78125zm-0.109375 11.875l-1.71875 0l0 -10.171875l1.71875 0l0 10.171875zm12.057037 -5.078125q0 2.484375 -1.28125 3.921875q-1.265625 1.4375 -3.40625 1.4375q-2.171875 0 -3.4375 -1.4375q-1.265625 -1.4375 -1.265625 -3.921875q0 -2.484375 1.265625 -3.921875q1.265625 -1.453125 3.4375 -1.453125q2.140625 0 3.40625 1.453125q1.28125 1.4375 1.28125 3.921875zm-1.765625 0q0 -1.984375 -0.78125 -2.9375q-0.765625 -0.96875 -2.140625 -0.96875q-1.40625 0 -2.171875 0.96875q-0.765625 0.953125 -0.765625 2.9375q0 1.90625 0.765625 2.90625q0.78125 0.984375 2.171875 0.984375q1.359375 0 2.140625 -0.984375q0.78125 -0.984375 0.78125 -2.90625zm12.91684 5.078125l-1.703125 0l0 -5.796875q0 -0.703125 -0.09375 -1.3125q-0.078125 -0.609375 -0.296875 -0.96875q-0.21875 -0.375 -0.65625 -0.5625q-0.421875 -0.1875 -1.109375 -0.1875q-0.703125 0 -1.46875 0.34375q-0.765625 0.34375 -1.46875 0.890625l0 7.59375l-1.703125 0l0 -10.171875l1.703125 0l0 1.125q0.8125 -0.65625 1.65625 -1.03125q0.859375 -0.375 1.765625 -0.375q1.65625 0 2.515625 1.0q0.859375 0.984375 0.859375 2.84375l0 6.609375zm18.536621 -5.078125q0 2.484375 -1.28125 3.921875q-1.265625 1.4375 -3.40625 1.4375q-2.171875 0 -3.4375 -1.4375q-1.265625 -1.4375 -1.265625 -3.921875q0 -2.484375 1.265625 -3.921875q1.265625 -1.453125 3.4375 -1.453125q2.140625 0 3.40625 1.453125q1.28125 1.4375 1.28125 3.921875zm-1.765625 0q0 -1.984375 -0.78125 -2.9375q-0.765625 -0.96875 -2.140625 -0.96875q-1.40625 0 -2.171875 0.96875q-0.765625 0.953125 -0.765625 2.9375q0 1.90625 0.765625 2.90625q0.78125 0.984375 2.171875 0.984375q1.359375 0 2.140625 -0.984375q0.78125 -0.984375 0.78125 -2.90625zm9.88562 -7.4375l-0.09375 0q-0.28125 -0.078125 -0.734375 -0.15625q-0.453125 -0.09375 -0.796875 -0.09375q-1.109375 0 -1.609375 0.484375q-0.484375 0.484375 -0.484375 1.765625l0 0.34375l3.078125 0l0 1.4375l-3.03125 0l0 8.734375l-1.703125 0l0 -8.734375l-1.15625 0l0 -1.4375l1.15625 0l0 -0.34375q0 -1.8125 0.890625 -2.78125q0.90625 -0.96875 2.609375 -0.96875q0.578125 0 1.03125 0.0625q0.46875 0.046875 0.84375 0.125l0 1.5625zm18.2583 11.53125q-0.5 0.21875 -0.90625 0.421875q-0.40625 0.1875 -1.0625 0.390625q-0.546875 0.171875 -1.203125 0.296875q-0.65625 0.125 -1.4375 0.125q-1.46875 0 -2.6875 -0.40625q-1.203125 -0.421875 -2.09375 -1.3125q-0.875 -0.859375 -1.375 -2.1875q-0.484375 -1.34375 -0.484375 -3.109375q0 -1.671875 0.46875 -3.0q0.484375 -1.328125 1.375 -2.234375q0.859375 -0.875 2.078125 -1.34375q1.234375 -0.46875 2.734375 -0.46875q1.09375 0 2.171875 0.265625q1.09375 0.265625 2.421875 0.9375l0 2.140625l-0.140625 0q-1.109375 -0.953125 -2.21875 -1.375q-1.09375 -0.421875 -2.359375 -0.421875q-1.03125 0 -1.859375 0.328125q-0.8125 0.328125 -1.46875 1.03125q-0.625 0.6875 -0.984375 1.734375q-0.34375 1.03125 -0.34375 2.40625q0 1.421875 0.390625 2.453125q0.390625 1.03125 1.0 1.6875q0.640625 0.671875 1.484375 1.0q0.859375 0.3125 1.796875 0.3125q1.3125 0 2.4375 -0.4375q1.140625 -0.453125 2.140625 -1.34375l0.125 0l0 2.109375zm11.089081 -4.09375q0 2.484375 -1.28125 3.921875q-1.265625 1.4375 -3.40625 1.4375q-2.171875 0 -3.4375 -1.4375q-1.265625 -1.4375 -1.265625 -3.921875q0 -2.484375 1.265625 -3.921875q1.265625 -1.453125 3.4375 -1.453125q2.140625 0 3.40625 1.453125q1.28125 1.4375 1.28125 3.921875zm-1.765625 0q0 -1.984375 -0.78125 -2.9375q-0.765625 -0.96875 -2.140625 -0.96875q-1.40625 0 -2.171875 0.96875q-0.765625 0.953125 -0.765625 2.9375q0 1.90625 0.765625 2.90625q0.78125 0.984375 2.171875 0.984375q1.359375 0 2.140625 -0.984375q0.78125 -0.984375 0.78125 -2.90625zm12.91684 5.078125l-1.703125 0l0 -5.796875q0 -0.703125 -0.09375 -1.3125q-0.078125 -0.609375 -0.296875 -0.96875q-0.21875 -0.375 -0.65625 -0.5625q-0.421875 -0.1875 -1.109375 -0.1875q-0.703125 0 -1.46875 0.34375q-0.765625 0.34375 -1.46875 0.890625l0 7.59375l-1.703125 0l0 -10.171875l1.703125 0l0 1.125q0.8125 -0.65625 1.65625 -1.03125q0.859375 -0.375 1.765625 -0.375q1.65625 0 2.515625 1.0q0.859375 0.984375 0.859375 2.84375l0 6.609375zm8.587158 -0.09375q-0.484375 0.125 -1.0625 0.203125q-0.5625 0.09375 -1.0 0.09375q-1.5625 0 -2.375 -0.828125q-0.8125 -0.84375 -0.8125 -2.703125l0 -5.40625l-1.15625 0l0 -1.4375l1.15625 0l0 -2.921875l1.71875 0l0 2.921875l3.53125 0l0 1.4375l-3.53125 0l0 4.640625q0 0.796875 0.03125 1.25q0.03125 0.453125 0.25 0.84375q0.203125 0.359375 0.546875 0.53125q0.359375 0.171875 1.078125 0.171875q0.421875 0 0.875 -0.125q0.453125 -0.125 0.65625 -0.203125l0.09375 0l0 1.53125zm8.413879 -8.21875l-0.09375 0q-0.375 -0.09375 -0.734375 -0.125q-0.359375 -0.046875 -0.859375 -0.046875q-0.78125 0 -1.53125 0.359375q-0.734375 0.34375 -1.421875 0.90625l0 7.21875l-1.703125 0l0 -10.171875l1.703125 0l0 1.5q1.03125 -0.8125 1.796875 -1.15625q0.78125 -0.34375 1.59375 -0.34375q0.453125 0 0.65625 0.03125q0.203125 0.015625 0.59375 0.078125l0 1.75zm10.289825 3.234375q0 2.484375 -1.28125 3.921875q-1.265625 1.4375 -3.40625 1.4375q-2.171875 0 -3.4375 -1.4375q-1.265625 -1.4375 -1.265625 -3.921875q0 -2.484375 1.265625 -3.921875q1.265625 -1.453125 3.4375 -1.453125q2.140625 0 3.40625 1.453125q1.28125 1.4375 1.28125 3.921875zm-1.765625 0q0 -1.984375 -0.78125 -2.9375q-0.765625 -0.96875 -2.140625 -0.96875q-1.40625 0 -2.171875 0.96875q-0.765625 0.953125 -0.765625 2.9375q0 1.90625 0.765625 2.90625q0.78125 0.984375 2.171875 0.984375q1.359375 0 2.140625 -0.984375q0.78125 -0.984375 0.78125 -2.90625zm6.1512146 5.078125l-1.71875 0l0 -14.171875l1.71875 0l0 14.171875z" fill-rule="nonzero"/><path fill="#000000" d="m342.27914 57.77236l-2.078125 0q-1.609375 -1.84375 -2.5 -4.03125q-0.890625 -2.1875 -0.890625 -4.921875q0 -2.75 0.890625 -4.9375q0.890625 -2.1875 2.5 -4.03125l2.078125 0l0 0.09375q-0.734375 0.65625 -1.40625 1.53125q-0.65625 0.875 -1.234375 2.03125q-0.546875 1.109375 -0.890625 2.46875q-0.34375 1.34375 -0.34375 2.84375q0 1.546875 0.328125 2.84375q0.34375 1.296875 0.90625 2.453125q0.546875 1.125 1.25 2.03125q0.703125 0.90625 1.390625 1.53125l0 0.09375zm7.9562073 -3.75l-5.359375 0l0 -1.390625l1.78125 0l0 -10.78125l-1.78125 0l0 -1.390625l5.359375 0l0 1.390625l-1.78125 0l0 10.78125l1.78125 0l0 1.390625zm11.602386 -5.078125q0 2.484375 -1.28125 3.921875q-1.265625 1.4375 -3.40625 1.4375q-2.171875 0 -3.4375 -1.4375q-1.265625 -1.4375 -1.265625 -3.921875q0 -2.484375 1.265625 -3.921875q1.265625 -1.453125 3.4375 -1.453125q2.140625 0 3.40625 1.453125q1.28125 1.4375 1.28125 3.921875zm-1.765625 0q0 -1.984375 -0.78125 -2.9375q-0.765625 -0.96875 -2.140625 -0.96875q-1.40625 0 -2.171875 0.96875q-0.765625 0.953125 -0.765625 2.9375q0 1.90625 0.765625 2.90625q0.78125 0.984375 2.171875 0.984375q1.359375 0 2.140625 -0.984375q0.78125 -0.984375 0.78125 -2.90625zm15.026215 4.09375q-0.5 0.21875 -0.90625 0.421875q-0.40625 0.1875 -1.0625 0.390625q-0.546875 0.171875 -1.203125 0.296875q-0.65625 0.125 -1.4375 0.125q-1.46875 0 -2.6875 -0.40625q-1.203125 -0.421875 -2.09375 -1.3125q-0.875 -0.859375 -1.375 -2.1875q-0.484375 -1.34375 -0.484375 -3.109375q0 -1.671875 0.46875 -3.0q0.484375 -1.328125 1.375 -2.234375q0.859375 -0.875 2.078125 -1.34375q1.234375 -0.46875 2.734375 -0.46875q1.09375 0 2.171875 0.265625q1.09375 0.265625 2.421875 0.9375l0 2.140625l-0.140625 0q-1.109375 -0.953125 -2.21875 -1.375q-1.09375 -0.421875 -2.359375 -0.421875q-1.03125 0 -1.859375 0.328125q-0.8125 0.328125 -1.46875 1.03125q-0.625 0.6875 -0.984375 1.734375q-0.34375 1.03125 -0.34375 2.40625q0 1.421875 0.390625 2.453125q0.390625 1.03125 1.0 1.6875q0.640625 0.671875 1.484375 1.0q0.859375 0.3125 1.796875 0.3125q1.3125 0 2.4375 -0.4375q1.140625 -0.453125 2.140625 -1.34375l0.125 0l0 2.109375zm7.5578613 -4.21875q0 2.734375 -0.90625 4.921875q-0.890625 2.1875 -2.5 4.03125l-2.078125 0l0 -0.09375q0.703125 -0.625 1.40625 -1.53125q0.703125 -0.90625 1.234375 -2.03125q0.578125 -1.15625 0.90625 -2.453125q0.328125 -1.296875 0.328125 -2.84375q0 -1.5 -0.34375 -2.84375q-0.328125 -1.359375 -0.890625 -2.46875q-0.5625 -1.15625 -1.234375 -2.03125q-0.671875 -0.875 -1.40625 -1.53125l0 -0.09375l2.078125 0q1.609375 1.84375 2.5 4.03125q0.90625 2.1875 0.90625 4.9375z" fill-rule="nonzero"/><path fill="#d9d9d9" d="m125.80315 125.76903l204.03151 0l0 39.181107l-204.03151 0z" fill-rule="evenodd"/><path stroke="#000000" stroke-width="2.0" stroke-linejoin="round" stroke-linecap="butt" d="m125.80315 125.76903l204.03151 0l0 39.181107l-204.03151 0z" fill-rule="evenodd"/><path fill="#000000" d="m175.80717 147.89145q0 0.6875 -0.3125 1.359375q-0.3125 0.65625 -0.890625 1.109375q-0.625 0.5 -1.453125 0.796875q-0.828125 0.28125 -2.0 0.28125q-1.265625 0 -2.265625 -0.234375q-1.0 -0.25 -2.046875 -0.703125l0 -1.9375l0.109375 0q0.890625 0.734375 2.046875 1.140625q1.15625 0.390625 2.171875 0.390625q1.4375 0 2.234375 -0.53125q0.796875 -0.546875 0.796875 -1.453125q0 -0.765625 -0.375 -1.125q-0.375 -0.375 -1.15625 -0.578125q-0.578125 -0.15625 -1.265625 -0.25q-0.6875 -0.109375 -1.453125 -0.265625q-1.546875 -0.328125 -2.296875 -1.125q-0.734375 -0.796875 -0.734375 -2.0625q0 -1.46875 1.234375 -2.390625q1.234375 -0.9375 3.125 -0.9375q1.234375 0 2.25 0.234375q1.03125 0.234375 1.8125 0.578125l0 1.828125l-0.109375 0q-0.65625 -0.5625 -1.75 -0.9375q-1.078125 -0.375 -2.203125 -0.375q-1.25 0 -2.0 0.515625q-0.75 0.515625 -0.75 1.328125q0 0.734375 0.375 1.15625q0.375 0.40625 1.3125 0.625q0.5 0.109375 1.421875 0.265625q0.921875 0.15625 1.5625 0.3125q1.296875 0.34375 1.953125 1.046875q0.65625 0.6875 0.65625 1.9375zm9.671875 -0.890625l-6.421875 0q0 0.8125 0.234375 1.40625q0.25 0.59375 0.671875 0.984375q0.40625 0.375 0.953125 0.5625q0.5625 0.1875 1.234375 0.1875q0.890625 0 1.796875 -0.359375q0.90625 -0.359375 1.28125 -0.703125l0.078125 0l0 1.609375q-0.734375 0.3125 -1.515625 0.53125q-0.765625 0.203125 -1.625 0.203125q-2.171875 0 -3.390625 -1.171875q-1.21875 -1.1875 -1.21875 -3.34375q0 -2.140625 1.171875 -3.390625q1.171875 -1.265625 3.078125 -1.265625q1.765625 0 2.71875 1.03125q0.953125 1.03125 0.953125 2.921875l0 0.796875zm-1.421875 -1.125q-0.015625 -1.15625 -0.59375 -1.78125q-0.5625 -0.640625 -1.734375 -0.640625q-1.1875 0 -1.890625 0.703125q-0.6875 0.6875 -0.78125 1.71875l5.0 0zm9.09375 -1.78125l-0.078125 0q-0.328125 -0.078125 -0.640625 -0.109375q-0.296875 -0.046875 -0.71875 -0.046875q-0.6875 0 -1.328125 0.3125q-0.625 0.296875 -1.203125 0.765625l0 6.203125l-1.46875 0l0 -8.734375l1.46875 0l0 1.296875q0.875 -0.703125 1.53125 -1.0q0.671875 -0.296875 1.375 -0.296875q0.375 0 0.546875 0.03125q0.171875 0.015625 0.515625 0.0625l0 1.515625zm8.9375 -1.609375l-3.53125 8.734375l-1.484375 0l-3.5 -8.734375l1.59375 0l2.703125 6.953125l2.671875 -6.953125l1.546875 0zm3.5 -1.453125l-1.65625 0l0 -1.53125l1.65625 0l0 1.53125zm-0.09375 10.1875l-1.46875 0l0 -8.734375l1.46875 0l0 8.734375zm9.359375 -0.546875q-0.734375 0.34375 -1.40625 0.546875q-0.65625 0.203125 -1.390625 0.203125q-0.953125 0 -1.75 -0.28125q-0.78125 -0.28125 -1.34375 -0.84375q-0.5625 -0.5625 -0.875 -1.421875q-0.3125 -0.859375 -0.3125 -2.015625q0 -2.140625 1.171875 -3.359375q1.171875 -1.21875 3.109375 -1.21875q0.75 0 1.46875 0.21875q0.71875 0.203125 1.328125 0.515625l0 1.625l-0.078125 0q-0.671875 -0.515625 -1.390625 -0.796875q-0.71875 -0.28125 -1.390625 -0.28125q-1.25 0 -1.984375 0.84375q-0.71875 0.828125 -0.71875 2.453125q0 1.578125 0.703125 2.4375q0.71875 0.84375 2.0 0.84375q0.4375 0 0.890625 -0.109375q0.46875 -0.125 0.84375 -0.3125q0.3125 -0.171875 0.59375 -0.34375q0.28125 -0.1875 0.453125 -0.328125l0.078125 0l0 1.625zm9.1796875 -3.671875l-6.421875 0q0 0.8125 0.234375 1.40625q0.25 0.59375 0.671875 0.984375q0.40625 0.375 0.953125 0.5625q0.5625 0.1875 1.234375 0.1875q0.890625 0 1.796875 -0.359375q0.90625 -0.359375 1.28125 -0.703125l0.078125 0l0 1.609375q-0.734375 0.3125 -1.515625 0.53125q-0.765625 0.203125 -1.625 0.203125q-2.171875 0 -3.390625 -1.171875q-1.21875 -1.1875 -1.21875 -3.34375q0 -2.140625 1.171875 -3.390625q1.171875 -1.265625 3.078125 -1.265625q1.765625 0 2.71875 1.03125q0.953125 1.03125 0.953125 2.921875l0 0.796875zm-1.421875 -1.125q-0.015625 -1.15625 -0.59375 -1.78125q-0.5625 -0.640625 -1.734375 -0.640625q-1.1875 0 -1.890625 0.703125q-0.6875 0.6875 -0.78125 1.71875l5.0 0zm16.75 5.34375l-7.359375 0l0 -11.640625l1.546875 0l0 10.265625l5.8125 0l0 1.375zm8.875 -4.359375q0 2.125 -1.09375 3.375q-1.09375 1.234375 -2.9375 1.234375q-1.84375 0 -2.9375 -1.234375q-1.09375 -1.25 -1.09375 -3.375q0 -2.140625 1.09375 -3.375q1.09375 -1.234375 2.9375 -1.234375q1.84375 0 2.9375 1.234375q1.09375 1.234375 1.09375 3.375zm-1.515625 0q0 -1.703125 -0.671875 -2.515625q-0.65625 -0.828125 -1.84375 -0.828125q-1.1875 0 -1.859375 0.828125q-0.65625 0.8125 -0.65625 2.515625q0 1.640625 0.65625 2.484375q0.671875 0.84375 1.859375 0.84375q1.171875 0 1.84375 -0.828125q0.671875 -0.84375 0.671875 -2.5zm10.242203 3.8125q-0.734375 0.34375 -1.4062653 0.546875q-0.65625 0.203125 -1.390625 0.203125q-0.953125 0 -1.75 -0.28125q-0.78125 -0.28125 -1.34375 -0.84375q-0.5625 -0.5625 -0.875 -1.421875q-0.3125 -0.859375 -0.3125 -2.015625q0 -2.140625 1.171875 -3.359375q1.171875 -1.21875 3.109375 -1.21875q0.75 0 1.46875 0.21875q0.71876526 0.203125 1.3281403 0.515625l0 1.625l-0.078125 0q-0.671875 -0.515625 -1.3906403 -0.796875q-0.71875 -0.28125 -1.390625 -0.28125q-1.25 0 -1.984375 0.84375q-0.71875 0.828125 -0.71875 2.453125q0 1.578125 0.703125 2.4375q0.71875 0.84375 2.0 0.84375q0.4375 0 0.890625 -0.109375q0.46875 -0.125 0.84375 -0.3125q0.31251526 -0.171875 0.59376526 -0.34375q0.28125 -0.1875 0.453125 -0.328125l0.078125 0l0 1.625zm8.6640625 0.546875l-1.46875 0l0 -0.9375q-0.1875 0.140625 -0.53125 0.375q-0.328125 0.234375 -0.640625 0.375q-0.359375 0.1875 -0.84375 0.3125q-0.46875 0.125 -1.109375 0.125q-1.1875 0 -2.015625 -0.78125q-0.8125 -0.796875 -0.8125 -2.0q0 -1.0 0.421875 -1.609375q0.4375 -0.609375 1.21875 -0.96875q0.796875 -0.34375 1.90625 -0.46875q1.125 -0.125 2.40625 -0.1875l0 -0.234375q0 -0.5 -0.171875 -0.828125q-0.171875 -0.328125 -0.5 -0.515625q-0.3125 -0.171875 -0.75 -0.234375q-0.4375 -0.0625 -0.921875 -0.0625q-0.578125 0 -1.296875 0.15625q-0.703125 0.140625 -1.453125 0.4375l-0.078125 0l0 -1.5q0.421875 -0.109375 1.234375 -0.25q0.8125 -0.140625 1.609375 -0.140625q0.921875 0 1.59375 0.15625q0.6875 0.140625 1.1875 0.515625q0.5 0.359375 0.75 0.9375q0.265625 0.5625 0.265625 1.40625l0 5.921875zm-1.46875 -2.15625l0 -2.421875q-0.671875 0.03125 -1.578125 0.109375q-0.90625 0.078125 -1.4375 0.234375q-0.640625 0.171875 -1.03125 0.5625q-0.390625 0.375 -0.390625 1.03125q0 0.75 0.453125 1.140625q0.453125 0.375 1.390625 0.375q0.765625 0 1.40625 -0.296875q0.640625 -0.3125 1.1875 -0.734375zm8.828125 2.078125q-0.421875 0.109375 -0.90625 0.171875q-0.484375 0.078125 -0.875 0.078125q-1.328125 0 -2.03125 -0.71875q-0.6875 -0.71875 -0.6875 -2.3125l0 -4.640625l-1.0 0l0 -1.234375l1.0 0l0 -2.5l1.46875 0l0 2.5l3.03125 0l0 1.234375l-3.03125 0l0 3.984375q0 0.6875 0.03125 1.078125q0.03125 0.375 0.21875 0.71875q0.171875 0.3125 0.46875 0.453125q0.296875 0.140625 0.921875 0.140625q0.359375 0 0.75 -0.09375q0.390625 -0.109375 0.5625 -0.1875l0.078125 0l0 1.328125zm9.2109375 -4.28125q0 2.125 -1.09375 3.375q-1.09375 1.234375 -2.9375 1.234375q-1.84375 0 -2.9375 -1.234375q-1.09375 -1.25 -1.09375 -3.375q0 -2.140625 1.09375 -3.375q1.09375 -1.234375 2.9375 -1.234375q1.84375 0 2.9375 1.234375q1.09375 1.234375 1.09375 3.375zm-1.515625 0q0 -1.703125 -0.671875 -2.515625q-0.65625 -0.828125 -1.84375 -0.828125q-1.1875 0 -1.859375 0.828125q-0.65625 0.8125 -0.65625 2.515625q0 1.640625 0.65625 2.484375q0.671875 0.84375 1.859375 0.84375q1.171875 0 1.84375 -0.828125q0.671875 -0.84375 0.671875 -2.5zm9.2265625 -2.765625l-0.078125 0q-0.328125 -0.078125 -0.640625 -0.109375q-0.296875 -0.046875 -0.71875 -0.046875q-0.6875 0 -1.328125 0.3125q-0.625 0.296875 -1.203125 0.765625l0 6.203125l-1.46875 0l0 -8.734375l1.46875 0l0 1.296875q0.875 -0.703125 1.53125 -1.0q0.671875 -0.296875 1.375 -0.296875q0.375 0 0.546875 0.03125q0.171875 0.015625 0.515625 0.0625l0 1.515625z" fill-rule="nonzero"/><path fill="#d9d9d9" d="m355.5538 125.76904l204.03152 0l0 39.181107l-204.03152 0z" fill-rule="evenodd"/><path stroke="#000000" stroke-width="2.0" stroke-linejoin="round" stroke-linecap="butt" d="m355.5538 125.76904l204.03152 0l0 39.181107l-204.03152 0z" fill-rule="evenodd"/><path fill="#000000" d="m436.843 140.95396l-5.890625 0l0 3.28125l5.0625 0l0 1.375l-5.0625 0l0 5.609375l-1.546875 0l0 -11.640625l7.4375 0l0 1.375zm8.4296875 10.265625l-1.46875 0l0 -0.9375q-0.1875 0.140625 -0.53125 0.375q-0.328125 0.234375 -0.640625 0.375q-0.359375 0.1875 -0.84375 0.3125q-0.46875 0.125 -1.109375 0.125q-1.1875 0 -2.015625 -0.78125q-0.8125 -0.796875 -0.8125 -2.0q0 -1.0 0.421875 -1.609375q0.4375 -0.609375 1.21875 -0.96875q0.796875 -0.34375 1.90625 -0.46875q1.125 -0.125 2.40625 -0.1875l0 -0.234375q0 -0.5 -0.171875 -0.828125q-0.171875 -0.328125 -0.5 -0.515625q-0.3125 -0.171875 -0.75 -0.234375q-0.4375 -0.0625 -0.921875 -0.0625q-0.578125 0 -1.296875 0.15625q-0.703125 0.140625 -1.453125 0.4375l-0.078125 0l0 -1.5q0.421875 -0.109375 1.234375 -0.25q0.8125 -0.140625 1.609375 -0.140625q0.921875 0 1.59375 0.15625q0.6875 0.140625 1.1875 0.515625q0.5 0.359375 0.75 0.9375q0.265625 0.5625 0.265625 1.40625l0 5.921875zm-1.46875 -2.15625l0 -2.421875q-0.671875 0.03125 -1.578125 0.109375q-0.90625 0.078125 -1.4375 0.234375q-0.640625 0.171875 -1.03125 0.5625q-0.390625 0.375 -0.390625 1.03125q0 0.75 0.453125 1.140625q0.453125 0.375 1.390625 0.375q0.765625 0 1.40625 -0.296875q0.640625 -0.3125 1.1875 -0.734375zm10.75 1.609375q-0.734375 0.34375 -1.40625 0.546875q-0.65625 0.203125 -1.390625 0.203125q-0.953125 0 -1.75 -0.28125q-0.78125 -0.28125 -1.34375 -0.84375q-0.5625 -0.5625 -0.875 -1.421875q-0.3125 -0.859375 -0.3125 -2.015625q0 -2.140625 1.171875 -3.359375q1.171875 -1.21875 3.109375 -1.21875q0.75 0 1.46875 0.21875q0.71875 0.203125 1.328125 0.515625l0 1.625l-0.078125 0q-0.671875 -0.515625 -1.390625 -0.796875q-0.71875 -0.28125 -1.390625 -0.28125q-1.25 0 -1.984375 0.84375q-0.71875 0.828125 -0.71875 2.453125q0 1.578125 0.703125 2.4375q0.71875 0.84375 2.0 0.84375q0.4375 0 0.890625 -0.109375q0.46875 -0.125 0.84375 -0.3125q0.3125 -0.171875 0.59375 -0.34375q0.28125 -0.1875 0.453125 -0.328125l0.078125 0l0 1.625zm6.4140625 0.46875q-0.421875 0.109375 -0.90625 0.171875q-0.484375 0.078125 -0.875 0.078125q-1.328125 0 -2.03125 -0.71875q-0.6875 -0.71875 -0.6875 -2.3125l0 -4.640625l-1.0 0l0 -1.234375l1.0 0l0 -2.5l1.46875 0l0 2.5l3.03125 0l0 1.234375l-3.03125 0l0 3.984375q0 0.6875 0.03125 1.078125q0.03125 0.375 0.21875 0.71875q0.171875 0.3125 0.46875 0.453125q0.296875 0.140625 0.921875 0.140625q0.359375 0 0.75 -0.09375q0.390625 -0.109375 0.5625 -0.1875l0.078125 0l0 1.328125zm9.2109375 -4.28125q0 2.125 -1.09375 3.375q-1.09375 1.234375 -2.9375 1.234375q-1.84375 0 -2.9375 -1.234375q-1.09375 -1.25 -1.09375 -3.375q0 -2.140625 1.09375 -3.375q1.09375 -1.234375 2.9375 -1.234375q1.84375 0 2.9375 1.234375q1.09375 1.234375 1.09375 3.375zm-1.515625 0q0 -1.703125 -0.671875 -2.515625q-0.65625 -0.828125 -1.84375 -0.828125q-1.1875 0 -1.859375 0.828125q-0.65625 0.8125 -0.65625 2.515625q0 1.640625 0.65625 2.484375q0.671875 0.84375 1.859375 0.84375q1.171875 0 1.84375 -0.828125q0.671875 -0.84375 0.671875 -2.5zm9.2265625 -2.765625l-0.078125 0q-0.328125 -0.078125 -0.640625 -0.109375q-0.296875 -0.046875 -0.71875 -0.046875q-0.6875 0 -1.328125 0.3125q-0.625 0.296875 -1.203125 0.765625l0 6.203125l-1.46875 0l0 -8.734375l1.46875 0l0 1.296875q0.875 -0.703125 1.53125 -1.0q0.671875 -0.296875 1.375 -0.296875q0.375 0 0.546875 0.03125q0.171875 0.015625 0.515625 0.0625l0 1.515625zm8.9375 -1.609375l-5.09375 11.953125l-1.578125 0l1.625 -3.640625l-3.46875 -8.3125l1.59375 0l2.671875 6.46875l2.703125 -6.46875l1.546875 0z" fill-rule="nonzero"/><path fill="#d9d9d9" d="m236.38846 196.73538l204.0315 0l0 36.37796l-204.0315 0z" fill-rule="evenodd"/><path stroke="#000000" stroke-width="2.0" stroke-linejoin="round" stroke-linecap="butt" d="m236.38846 196.73538l204.0315 0l0 36.37796l-204.0315 0z" fill-rule="evenodd"/><path fill="#000000" d="m283.28702 220.78436l-1.640625 0l-1.140625 -3.25l-5.03125 0l-1.140625 3.25l-1.578125 0l4.234375 -11.640625l2.0625 0l4.234375 11.640625zm-3.265625 -4.578125l-2.03125 -5.703125l-2.046875 5.703125l4.078125 0zm12.59375 0.140625q0 1.09375 -0.3125 1.96875q-0.296875 0.875 -0.828125 1.46875q-0.546875 0.625 -1.21875 0.9375q-0.65625 0.3125 -1.453125 0.3125q-0.75 0 -1.3125 -0.1875q-0.546875 -0.171875 -1.078125 -0.46875l-0.09375 0.40625l-1.375 0l0 -12.15625l1.46875 0l0 4.34375q0.609375 -0.515625 1.296875 -0.828125q0.703125 -0.328125 1.578125 -0.328125q1.546875 0 2.4375 1.1875q0.890625 1.1875 0.890625 3.34375zm-1.515625 0.046875q0 -1.5625 -0.515625 -2.375q-0.515625 -0.8125 -1.65625 -0.8125q-0.640625 0 -1.296875 0.28125q-0.65625 0.28125 -1.21875 0.71875l0 5.0q0.625 0.28125 1.0625 0.390625q0.453125 0.109375 1.03125 0.109375q1.21875 0 1.90625 -0.796875q0.6875 -0.8125 0.6875 -2.515625zm10.046875 1.875q0 1.1875 -1.0 1.96875q-0.984375 0.765625 -2.6875 0.765625q-0.96875 0 -1.78125 -0.234375q-0.8125 -0.234375 -1.359375 -0.515625l0 -1.640625l0.078125 0q0.703125 0.515625 1.546875 0.828125q0.859375 0.3125 1.640625 0.3125q0.96875 0 1.515625 -0.3125q0.546875 -0.3125 0.546875 -0.984375q0 -0.515625 -0.296875 -0.78125q-0.296875 -0.265625 -1.140625 -0.453125q-0.3125 -0.078125 -0.828125 -0.171875q-0.5 -0.09375 -0.90625 -0.203125q-1.15625 -0.296875 -1.640625 -0.890625q-0.46875 -0.59375 -0.46875 -1.453125q0 -0.53125 0.21875 -1.0q0.21875 -0.484375 0.671875 -0.859375q0.4375 -0.375 1.109375 -0.578125q0.6875 -0.21875 1.515625 -0.21875q0.78125 0 1.578125 0.1875q0.8125 0.1875 1.34375 0.46875l0 1.5625l-0.078125 0q-0.5625 -0.40625 -1.375 -0.6875q-0.796875 -0.296875 -1.578125 -0.296875q-0.796875 0 -1.359375 0.3125q-0.546875 0.3125 -0.546875 0.921875q0 0.53125 0.328125 0.8125q0.328125 0.265625 1.0625 0.4375q0.40625 0.09375 0.90625 0.1875q0.515625 0.09375 0.84375 0.171875q1.03125 0.234375 1.578125 0.8125q0.5625 0.578125 0.5625 1.53125zm6.6328125 2.4375q-0.421875 0.109375 -0.90625 0.171875q-0.484375 0.078125 -0.875 0.078125q-1.328125 0 -2.03125 -0.71875q-0.6875 -0.71875 -0.6875 -2.3125l0 -4.640625l-1.0 0l0 -1.234375l1.0 0l0 -2.5l1.46875 0l0 2.5l3.03125 0l0 1.234375l-3.03125 0l0 3.984375q0 0.6875 0.03125 1.078125q0.03125 0.375 0.21875 0.71875q0.171875 0.3125 0.46875 0.453125q0.296875 0.140625 0.921875 0.140625q0.359375 0 0.75 -0.09375q0.390625 -0.109375 0.5625 -0.1875l0.078125 0l0 1.328125zm7.2109375 -7.046875l-0.078125 0q-0.328125 -0.078125 -0.640625 -0.109375q-0.296875 -0.046875 -0.71875 -0.046875q-0.6875 0 -1.328125 0.3125q-0.625 0.296875 -1.203125 0.765625l0 6.203125l-1.46875 0l0 -8.734375l1.46875 0l0 1.296875q0.875 -0.703125 1.53125 -1.0q0.671875 -0.296875 1.375 -0.296875q0.375 0 0.546875 0.03125q0.171875 0.015625 0.515625 0.0625l0 1.515625zm8.171875 7.125l-1.46875 0l0 -0.9375q-0.1875 0.140625 -0.53125 0.375q-0.328125 0.234375 -0.640625 0.375q-0.359375 0.1875 -0.84375 0.3125q-0.46875 0.125 -1.109375 0.125q-1.1875 0 -2.015625 -0.78125q-0.8125 -0.796875 -0.8125 -2.0q0 -1.0 0.421875 -1.609375q0.4375 -0.609375 1.21875 -0.96875q0.796875 -0.34375 1.90625 -0.46875q1.125 -0.125 2.40625 -0.1875l0 -0.234375q0 -0.5 -0.171875 -0.828125q-0.171875 -0.328125 -0.5 -0.515625q-0.3125 -0.171875 -0.75 -0.234375q-0.4375 -0.0625 -0.921875 -0.0625q-0.578125 0 -1.296875 0.15625q-0.703125 0.140625 -1.453125 0.4375l-0.078125 0l0 -1.5q0.421875 -0.109375 1.234375 -0.25q0.8125 -0.140625 1.609375 -0.140625q0.921875 0 1.59375 0.15625q0.6875 0.140625 1.1875 0.515625q0.5 0.359375 0.75 0.9375q0.265625 0.5625 0.265625 1.40625l0 5.921875zm-1.46875 -2.15625l0 -2.421875q-0.671875 0.03125 -1.578125 0.109375q-0.90625 0.078125 -1.4375 0.234375q-0.640625 0.171875 -1.03125 0.5625q-0.390625 0.375 -0.390625 1.03125q0 0.75 0.453125 1.140625q0.453125 0.375 1.390625 0.375q0.765625 0 1.40625 -0.296875q0.640625 -0.3125 1.1875 -0.734375zm10.75 1.609375q-0.734375 0.34375 -1.40625 0.546875q-0.65625 0.203125 -1.390625 0.203125q-0.953125 0 -1.75 -0.28125q-0.78125 -0.28125 -1.34375 -0.84375q-0.5625 -0.5625 -0.875 -1.421875q-0.3125 -0.859375 -0.3125 -2.015625q0 -2.140625 1.171875 -3.359375q1.171875 -1.21875 3.109375 -1.21875q0.75 0 1.46875 0.21875q0.71875 0.203125 1.328125 0.515625l0 1.625l-0.078125 0q-0.671875 -0.515625 -1.390625 -0.796875q-0.71875 -0.28125 -1.390625 -0.28125q-1.25 0 -1.984375 0.84375q-0.71875 0.828125 -0.71875 2.453125q0 1.578125 0.703125 2.4375q0.71875 0.84375 2.0 0.84375q0.4375 0 0.890625 -0.109375q0.46875 -0.125 0.84375 -0.3125q0.3125 -0.171875 0.59375 -0.34375q0.28125 -0.1875 0.453125 -0.328125l0.078125 0l0 1.625zm6.4140625 0.46875q-0.421875 0.109375 -0.90625 0.171875q-0.484375 0.078125 -0.875 0.078125q-1.328125 0 -2.03125 -0.71875q-0.6875 -0.71875 -0.6875 -2.3125l0 -4.640625l-1.0 0l0 -1.234375l1.0 0l0 -2.5l1.46875 0l0 2.5l3.03125 0l0 1.234375l-3.03125 0l0 3.984375q0 0.6875 0.03125 1.078125q0.03125 0.375 0.21875 0.71875q0.171875 0.3125 0.46875 0.453125q0.296875 0.140625 0.921875 0.140625q0.359375 0 0.75 -0.09375q0.390625 -0.109375 0.5625 -0.1875l0.078125 0l0 1.328125zm14.9453125 -10.1875l-5.890625 0l0 3.28125l5.0625 0l0 1.375l-5.0625 0l0 5.609375l-1.546875 0l0 -11.640625l7.4375 0l0 1.375zm8.4296875 10.265625l-1.46875 0l0 -0.9375q-0.1875 0.140625 -0.53125 0.375q-0.328125 0.234375 -0.640625 0.375q-0.359375 0.1875 -0.84375 0.3125q-0.46875 0.125 -1.109375 0.125q-1.1875 0 -2.015625 -0.78125q-0.8125 -0.796875 -0.8125 -2.0q0 -1.0 0.421875 -1.609375q0.4375 -0.609375 1.21875 -0.96875q0.796875 -0.34375 1.90625 -0.46875q1.125 -0.125 2.40625 -0.1875l0 -0.234375q0 -0.5 -0.171875 -0.828125q-0.171875 -0.328125 -0.5 -0.515625q-0.3125 -0.171875 -0.75 -0.234375q-0.4375 -0.0625 -0.921875 -0.0625q-0.578125 0 -1.296875 0.15625q-0.703125 0.140625 -1.453125 0.4375l-0.078125 0l0 -1.5q0.421875 -0.109375 1.234375 -0.25q0.8125 -0.140625 1.609375 -0.140625q0.921875 0 1.59375 0.15625q0.6875 0.140625 1.1875 0.515625q0.5 0.359375 0.75 0.9375q0.265625 0.5625 0.265625 1.40625l0 5.921875zm-1.46875 -2.15625l0 -2.421875q-0.671875 0.03125 -1.578125 0.109375q-0.90625 0.078125 -1.4375 0.234375q-0.640625 0.171875 -1.03125 0.5625q-0.390625 0.375 -0.390625 1.03125q0 0.75 0.453125 1.140625q0.453125 0.375 1.390625 0.375q0.765625 0 1.40625 -0.296875q0.640625 -0.3125 1.1875 -0.734375zm10.75 1.609375q-0.734375 0.34375 -1.40625 0.546875q-0.65625 0.203125 -1.390625 0.203125q-0.953125 0 -1.75 -0.28125q-0.78125 -0.28125 -1.34375 -0.84375q-0.5625 -0.5625 -0.875 -1.421875q-0.3125 -0.859375 -0.3125 -2.015625q0 -2.140625 1.171875 -3.359375q1.171875 -1.21875 3.109375 -1.21875q0.75 0 1.46875 0.21875q0.71875 0.203125 1.328125 0.515625l0 1.625l-0.078125 0q-0.671875 -0.515625 -1.390625 -0.796875q-0.71875 -0.28125 -1.390625 -0.28125q-1.25 0 -1.984375 0.84375q-0.71875 0.828125 -0.71875 2.453125q0 1.578125 0.703125 2.4375q0.71875 0.84375 2.0 0.84375q0.4375 0 0.890625 -0.109375q0.46875 -0.125 0.84375 -0.3125q0.3125 -0.171875 0.59375 -0.34375q0.28125 -0.1875 0.453125 -0.328125l0.078125 0l0 1.625zm6.4140625 0.46875q-0.421875 0.109375 -0.90625 0.171875q-0.484375 0.078125 -0.875 0.078125q-1.328125 0 -2.03125 -0.71875q-0.6875 -0.71875 -0.6875 -2.3125l0 -4.640625l-1.0 0l0 -1.234375l1.0 0l0 -2.5l1.46875 0l0 2.5l3.03125 0l0 1.234375l-3.03125 0l0 3.984375q0 0.6875 0.03125 1.078125q0.03125 0.375 0.21875 0.71875q0.171875 0.3125 0.46875 0.453125q0.296875 0.140625 0.921875 0.140625q0.359375 0 0.75 -0.09375q0.390625 -0.109375 0.5625 -0.1875l0.078125 0l0 1.328125zm9.2109375 -4.28125q0 2.125 -1.09375 3.375q-1.09375 1.234375 -2.9375 1.234375q-1.84375 0 -2.9375 -1.234375q-1.09375 -1.25 -1.09375 -3.375q0 -2.140625 1.09375 -3.375q1.09375 -1.234375 2.9375 -1.234375q1.84375 0 2.9375 1.234375q1.09375 1.234375 1.09375 3.375zm-1.515625 0q0 -1.703125 -0.671875 -2.515625q-0.65625 -0.828125 -1.84375 -0.828125q-1.1875 0 -1.859375 0.828125q-0.65625 0.8125 -0.65625 2.515625q0 1.640625 0.65625 2.484375q0.671875 0.84375 1.859375 0.84375q1.171875 0 1.84375 -0.828125q0.671875 -0.84375 0.671875 -2.5zm9.2265625 -2.765625l-0.078125 0q-0.328125 -0.078125 -0.640625 -0.109375q-0.296875 -0.046875 -0.71875 -0.046875q-0.6875 0 -1.328125 0.3125q-0.625 0.296875 -1.203125 0.765625l0 6.203125l-1.46875 0l0 -8.734375l1.46875 0l0 1.296875q0.875 -0.703125 1.53125 -1.0q0.671875 -0.296875 1.375 -0.296875q0.375 0 0.546875 0.03125q0.171875 0.015625 0.515625 0.0625l0 1.515625zm8.9375 -1.609375l-5.09375 11.953125l-1.578125 0l1.625 -3.640625l-3.46875 -8.3125l1.59375 0l2.671875 6.46875l2.703125 -6.46875l1.546875 0z" fill-rule="nonzero"/><path fill="#000000" fill-opacity="0.0" d="m684.0026 5.866142l101.07086 0l0 60.472443l-101.07086 0z" fill-rule="evenodd"/><path fill="#000000" d="m699.56195 43.02236l2.796875 -13.359375l5.578125 0q1.453125 0 2.171875 0.34375q0.71875 0.328125 1.1875 1.140625q0.484375 0.796875 0.484375 1.796875q0 0.828125 -0.34375 1.6875q-0.328125 0.859375 -0.84375 1.421875q-0.515625 0.546875 -1.046875 0.828125q-0.53125 0.28125 -1.125 0.421875q-1.28125 0.296875 -2.59375 0.296875l-3.34375 0l-1.125 5.421875l-1.796875 0zm3.234375 -6.9375l2.953125 0q1.703125 0 2.5 -0.359375q0.8125 -0.375 1.296875 -1.125q0.484375 -0.765625 0.484375 -1.609375q0 -0.65625 -0.265625 -1.0625q-0.25 -0.421875 -0.71875 -0.609375q-0.46875 -0.203125 -1.78125 -0.203125l-3.421875 0l-1.046875 4.96875zm9.0372925 6.9375l2.015625 -9.671875l1.453125 0l-0.40625 1.96875q0.75 -1.109375 1.453125 -1.640625q0.71875 -0.546875 1.46875 -0.546875q0.5 0 1.21875 0.359375l-0.671875 1.53125q-0.4375 -0.3125 -0.9375 -0.3125q-0.875 0 -1.78125 0.96875q-0.90625 0.953125 -1.4375 3.46875l-0.8125 3.875l-1.5625 0zm8.5408325 -11.484375l0.40625 -1.875l1.625 0l-0.390625 1.875l-1.640625 0zm-2.390625 11.484375l2.015625 -9.671875l1.65625 0l-2.03125 9.671875l-1.640625 0zm4.2073364 0l2.015625 -9.671875l1.5 0l-0.359375 1.6875q0.96875 -1.0 1.8125 -1.453125q0.859375 -0.453125 1.734375 -0.453125q1.1875 0 1.84375 0.640625q0.671875 0.625 0.671875 1.703125q0 0.53125 -0.234375 1.6875l-1.234375 5.859375l-1.640625 0l1.28125 -6.125q0.1875 -0.890625 0.1875 -1.328125q0 -0.484375 -0.328125 -0.78125q-0.328125 -0.296875 -0.953125 -0.296875q-1.28125 0 -2.265625 0.90625q-0.984375 0.90625 -1.453125 3.125l-0.9375 4.5l-1.640625 0zm17.047546 -3.53125l1.65625 0.171875q-0.625 1.8125 -1.765625 2.703125q-1.140625 0.875 -2.609375 0.875q-1.578125 0 -2.5625 -1.015625q-0.96875 -1.03125 -0.96875 -2.859375q0 -1.578125 0.625 -3.109375q0.640625 -1.53125 1.796875 -2.328125q1.171875 -0.796875 2.6875 -0.796875q1.546875 0 2.453125 0.875q0.921875 0.875 0.921875 2.328125l-1.625 0.109375q-0.015625 -0.921875 -0.546875 -1.4375q-0.515625 -0.515625 -1.359375 -0.515625q-1.0 0 -1.734375 0.625q-0.71875 0.625 -1.140625 1.90625q-0.40625 1.28125 -0.40625 2.46875q0 1.234375 0.546875 1.859375q0.546875 0.609375 1.34375 0.609375q0.796875 0 1.53125 -0.609375q0.734375 -0.609375 1.15625 -1.859375zm4.984375 -7.953125l0.40625 -1.875l1.625 0l-0.390625 1.875l-1.640625 0zm-2.390625 11.484375l2.015625 -9.671875l1.65625 0l-2.03125 9.671875l-1.640625 0zm3.3948364 3.703125l2.796875 -13.375l1.515625 0l-0.28125 1.34375q0.84375 -0.875 1.515625 -1.21875q0.671875 -0.34375 1.421875 -0.34375q1.375 0 2.28125 1.015625q0.921875 1.0 0.921875 2.875q0 1.515625 -0.5 2.765625q-0.5 1.234375 -1.234375 2.0q-0.71875 0.75 -1.46875 1.109375q-0.75 0.34375 -1.53125 0.34375q-1.75 0 -2.703125 -1.765625l-1.09375 5.25l-1.640625 0zm3.25 -7.65625q0 1.078125 0.15625 1.5q0.234375 0.59375 0.75 0.96875q0.515625 0.359375 1.203125 0.359375q1.421875 0 2.296875 -1.59375q0.875 -1.609375 0.875 -3.28125q0 -1.21875 -0.59375 -1.890625q-0.578125 -0.671875 -1.453125 -0.671875q-0.625 0 -1.171875 0.34375q-0.53125 0.328125 -1.0 0.984375q-0.453125 0.65625 -0.765625 1.609375q-0.296875 0.953125 -0.296875 1.671875zm7.7976074 3.953125l2.796875 -13.359375l1.640625 0l-2.78125 13.359375l-1.65625 0zm11.379211 -3.28125l1.609375 0.15625q-0.34375 1.1875 -1.59375 2.265625q-1.234375 1.078125 -2.96875 1.078125q-1.0625 0 -1.96875 -0.5q-0.890625 -0.5 -1.359375 -1.4375q-0.46875 -0.953125 -0.46875 -2.15625q0 -1.59375 0.734375 -3.078125q0.734375 -1.484375 1.890625 -2.203125q1.171875 -0.734375 2.53125 -0.734375q1.734375 0 2.765625 1.078125q1.03125 1.0625 1.03125 2.921875q0 0.71875 -0.125 1.46875l-7.125 0q-0.046875 0.28125 -0.046875 0.5q0 1.359375 0.625 2.078125q0.625 0.71875 1.53125 0.71875q0.84375 0 1.65625 -0.546875q0.828125 -0.5625 1.28125 -1.609375zm-4.78125 -2.40625l5.421875 0q0.015625 -0.25 0.015625 -0.359375q0 -1.234375 -0.625 -1.890625q-0.625 -0.671875 -1.59375 -0.671875q-1.0625 0 -1.9375 0.734375q-0.859375 0.71875 -1.28125 2.1875z" fill-rule="nonzero"/><path fill="#000000" fill-opacity="0.0" d="m7.3805776 93.98425l777.7008 -0.9763794" fill-rule="evenodd"/><path stroke="#000000" stroke-width="2.0" stroke-linejoin="round" stroke-linecap="butt" stroke-dasharray="8.0,6.0" d="m7.3805776 93.98425l777.7008 -0.9763794" fill-rule="evenodd"/><path fill="#d9d9d9" d="m581.04987 125.76903l204.0315 0l0 39.181107l-204.0315 0z" fill-rule="evenodd"/><path stroke="#000000" stroke-width="2.0" stroke-linejoin="round" stroke-linecap="butt" d="m581.04987 125.76903l204.0315 0l0 39.181107l-204.0315 0z" fill-rule="evenodd"/><path fill="#000000" d="m623.1711 140.95395l-4.15625 0l0 10.265625l-1.546875 0l0 -10.265625l-4.15625 0l0 -1.375l9.859375 0l0 1.375zm8.75 6.046875l-6.421875 0q0 0.8125 0.234375 1.40625q0.25 0.59375 0.671875 0.984375q0.40625 0.375 0.953125 0.5625q0.5625 0.1875 1.234375 0.1875q0.890625 0 1.796875 -0.359375q0.90625 -0.359375 1.28125 -0.703125l0.078125 0l0 1.609375q-0.734375 0.3125 -1.515625 0.53125q-0.765625 0.203125 -1.625 0.203125q-2.171875 0 -3.390625 -1.171875q-1.21875 -1.1875 -1.21875 -3.34375q0 -2.140625 1.171875 -3.390625q1.171875 -1.265625 3.078125 -1.265625q1.765625 0 2.71875 1.03125q0.953125 1.03125 0.953125 2.921875l0 0.796875zm-1.421875 -1.125q-0.015625 -1.15625 -0.59375 -1.78125q-0.5625 -0.640625 -1.734375 -0.640625q-1.1875 0 -1.890625 0.703125q-0.6875 0.6875 -0.78125 1.71875l5.0 0zm16.390625 5.34375l-1.46875 0l0 -4.96875q0 -0.5625 -0.0625 -1.078125q-0.046875 -0.53125 -0.203125 -0.84375q-0.1875 -0.34375 -0.53125 -0.515625q-0.328125 -0.171875 -0.953125 -0.171875q-0.625 0 -1.25 0.3125q-0.609375 0.3125 -1.21875 0.78125q0.015625 0.1875 0.03125 0.421875q0.015625 0.234375 0.015625 0.46875l0 5.59375l-1.46875 0l0 -4.96875q0 -0.578125 -0.046875 -1.09375q-0.046875 -0.53125 -0.21875 -0.84375q-0.171875 -0.328125 -0.515625 -0.5q-0.328125 -0.171875 -0.96875 -0.171875q-0.59375 0 -1.203125 0.296875q-0.609375 0.296875 -1.203125 0.765625l0 6.515625l-1.46875 0l0 -8.734375l1.46875 0l0 0.96875q0.6875 -0.5625 1.359375 -0.875q0.6875 -0.328125 1.46875 -0.328125q0.890625 0 1.5 0.375q0.625 0.375 0.9375 1.03125q0.890625 -0.75 1.625 -1.078125q0.734375 -0.328125 1.5625 -0.328125q1.4375 0 2.125 0.875q0.6875 0.859375 0.6875 2.421875l0 5.671875zm10.5 -4.46875q0 1.0625 -0.3125 1.9375q-0.296875 0.875 -0.84375 1.484375q-0.515625 0.578125 -1.21875 0.90625q-0.703125 0.3125 -1.484375 0.3125q-0.671875 0 -1.234375 -0.15625q-0.546875 -0.140625 -1.109375 -0.453125l0 3.65625l-1.46875 0l0 -11.953125l1.46875 0l0 0.921875q0.578125 -0.5 1.3125 -0.828125q0.734375 -0.328125 1.5625 -0.328125q1.578125 0 2.453125 1.1875q0.875 1.1875 0.875 3.3125zm-1.515625 0.03125q0 -1.578125 -0.546875 -2.359375q-0.53125 -0.78125 -1.640625 -0.78125q-0.640625 0 -1.28125 0.28125q-0.640625 0.265625 -1.21875 0.71875l0 4.9375q0.625 0.28125 1.0625 0.390625q0.453125 0.09375 1.03125 0.09375q1.21875 0 1.90625 -0.828125q0.6875 -0.828125 0.6875 -2.453125zm5.296875 4.4375l-1.46875 0l0 -12.15625l1.46875 0l0 12.15625zm9.6875 0l-1.46875 0l0 -0.9375q-0.1875 0.140625 -0.53125 0.375q-0.328125 0.234375 -0.640625 0.375q-0.359375 0.1875 -0.84375 0.3125q-0.46875 0.125 -1.109375 0.125q-1.1875 0 -2.015625 -0.78125q-0.8125 -0.796875 -0.8125 -2.0q0 -1.0 0.421875 -1.609375q0.4375 -0.609375 1.21875 -0.96875q0.796875 -0.34375 1.90625 -0.46875q1.125 -0.125 2.40625 -0.1875l0 -0.234375q0 -0.5 -0.171875 -0.828125q-0.171875 -0.328125 -0.5 -0.515625q-0.3125 -0.171875 -0.75 -0.234375q-0.4375 -0.0625 -0.921875 -0.0625q-0.578125 0 -1.296875 0.15625q-0.703125 0.140625 -1.453125 0.4375l-0.078125 0l0 -1.5q0.421875 -0.109375 1.234375 -0.25q0.8125 -0.140625 1.609375 -0.140625q0.921875 0 1.59375 0.15625q0.6875 0.140625 1.1875 0.515625q0.5 0.359375 0.75 0.9375q0.265625 0.5625 0.265625 1.40625l0 5.921875zm-1.46875 -2.15625l0 -2.421875q-0.671875 0.03125 -1.578125 0.109375q-0.90625 0.078125 -1.4375 0.234375q-0.640625 0.171875 -1.03125 0.5625q-0.390625 0.375 -0.390625 1.03125q0 0.75 0.453125 1.140625q0.453125 0.375 1.390625 0.375q0.765625 0 1.40625 -0.296875q0.640625 -0.3125 1.1875 -0.734375zm8.828125 2.078125q-0.421875 0.109375 -0.90625 0.171875q-0.484375 0.078125 -0.875 0.078125q-1.328125 0 -2.03125 -0.71875q-0.6875 -0.71875 -0.6875 -2.3125l0 -4.640625l-1.0 0l0 -1.234375l1.0 0l0 -2.5l1.46875 0l0 2.5l3.03125 0l0 1.234375l-3.03125 0l0 3.984375q0 0.6875 0.03125 1.078125q0.03125 0.375 0.21875 0.71875q0.171875 0.3125 0.46875 0.453125q0.296875 0.140625 0.921875 0.140625q0.359375 0 0.75 -0.09375q0.390625 -0.109375 0.5625 -0.1875l0.078125 0l0 1.328125zm9.0703125 -4.140625l-6.421875 0q0 0.8125 0.234375 1.40625q0.25 0.59375 0.671875 0.984375q0.40625 0.375 0.953125 0.5625q0.5625 0.1875 1.234375 0.1875q0.890625 0 1.796875 -0.359375q0.90625 -0.359375 1.28125 -0.703125l0.078125 0l0 1.609375q-0.734375 0.3125 -1.515625 0.53125q-0.765625 0.203125 -1.625 0.203125q-2.171875 0 -3.390625 -1.171875q-1.21875 -1.1875 -1.21875 -3.34375q0 -2.140625 1.171875 -3.390625q1.171875 -1.265625 3.078125 -1.265625q1.765625 0 2.71875 1.03125q0.953125 1.03125 0.953125 2.921875l0 0.796875zm-1.421875 -1.125q-0.015625 -1.15625 -0.59375 -1.78125q-0.5625 -0.640625 -1.734375 -0.640625q-1.1875 0 -1.890625 0.703125q-0.6875 0.6875 -0.78125 1.71875l5.0 0zm19.75 5.34375l-1.546875 0l0 -10.03125l-3.234375 6.828125l-0.921875 0l-3.203125 -6.828125l0 10.03125l-1.453125 0l0 -11.640625l2.109375 0l3.109375 6.484375l3.0 -6.484375l2.140625 0l0 11.640625zm10.3125 -4.21875l-6.421875 0q0 0.8125 0.234375 1.40625q0.25 0.59375 0.671875 0.984375q0.40625 0.375 0.953125 0.5625q0.5625 0.1875 1.234375 0.1875q0.890625 0 1.796875 -0.359375q0.90625 -0.359375 1.28125 -0.703125l0.078125 0l0 1.609375q-0.734375 0.3125 -1.515625 0.53125q-0.765625 0.203125 -1.625 0.203125q-2.171875 0 -3.390625 -1.171875q-1.21875 -1.1875 -1.21875 -3.34375q0 -2.140625 1.171875 -3.390625q1.171875 -1.265625 3.078125 -1.265625q1.765625 0 2.71875 1.03125q0.953125 1.03125 0.953125 2.921875l0 0.796875zm-1.421875 -1.125q-0.015625 -1.15625 -0.59375 -1.78125q-0.5625 -0.640625 -1.734375 -0.640625q-1.1875 0 -1.890625 0.703125q-0.6875 0.6875 -0.78125 1.71875l5.0 0zm8.1875 5.265625q-0.421875 0.109375 -0.90625 0.171875q-0.484375 0.078125 -0.875 0.078125q-1.328125 0 -2.03125 -0.71875q-0.6875 -0.71875 -0.6875 -2.3125l0 -4.640625l-1.0 0l0 -1.234375l1.0 0l0 -2.5l1.46875 0l0 2.5l3.03125 0l0 1.234375l-3.03125 0l0 3.984375q0 0.6875 0.03125 1.078125q0.03125 0.375 0.21875 0.71875q0.171875 0.3125 0.46875 0.453125q0.296875 0.140625 0.921875 0.140625q0.359375 0 0.75 -0.09375q0.390625 -0.109375 0.5625 -0.1875l0.078125 0l0 1.328125zm9.0703125 0.078125l-1.46875 0l0 -4.96875q0 -0.609375 -0.078125 -1.125q-0.0625 -0.53125 -0.25 -0.828125q-0.203125 -0.328125 -0.578125 -0.484375q-0.359375 -0.171875 -0.9375 -0.171875q-0.609375 0 -1.265625 0.296875q-0.65625 0.296875 -1.25 0.765625l0 6.515625l-1.46875 0l0 -12.15625l1.46875 0l0 4.390625q0.6875 -0.5625 1.421875 -0.875q0.734375 -0.328125 1.5 -0.328125q1.421875 0 2.15625 0.859375q0.75 0.84375 0.75 2.4375l0 5.671875zm10.265625 -4.359375q0 2.125 -1.09375 3.375q-1.09375 1.234375 -2.9375 1.234375q-1.84375 0 -2.9375 -1.234375q-1.09375 -1.25 -1.09375 -3.375q0 -2.140625 1.09375 -3.375q1.09375 -1.234375 2.9375 -1.234375q1.84375 0 2.9375 1.234375q1.09375 1.234375 1.09375 3.375zm-1.515625 0q0 -1.703125 -0.671875 -2.515625q-0.65625 -0.828125 -1.84375 -0.828125q-1.1875 0 -1.859375 0.828125q-0.65625 0.8125 -0.65625 2.515625q0 1.640625 0.65625 2.484375q0.671875 0.84375 1.859375 0.84375q1.171875 0 1.84375 -0.828125q0.671875 -0.84375 0.671875 -2.5zm10.8671875 4.359375l-1.46875 0l0 -0.921875q-0.640625 0.546875 -1.328125 0.859375q-0.6875 0.3125 -1.484375 0.3125q-1.5625 0 -2.484375 -1.203125q-0.921875 -1.21875 -0.921875 -3.34375q0 -1.109375 0.3125 -1.96875q0.328125 -0.875 0.859375 -1.484375q0.53125 -0.59375 1.234375 -0.90625q0.71875 -0.3125 1.46875 -0.3125q0.6875 0 1.21875 0.140625q0.53125 0.140625 1.125 0.453125l0 -3.78125l1.46875 0l0 12.15625zm-1.46875 -2.15625l0 -5.0q-0.59375 -0.265625 -1.0625 -0.359375q-0.46875 -0.109375 -1.03125 -0.109375q-1.234375 0 -1.921875 0.859375q-0.6875 0.859375 -0.6875 2.4375q0 1.546875 0.53125 2.359375q0.53125 0.8125 1.703125 0.8125q0.625 0 1.265625 -0.28125q0.640625 -0.28125 1.203125 -0.71875z" fill-rule="nonzero"/><path fill="#d9d9d9" d="m470.89502 196.7348l204.0315 0l0 36.37796l-204.0315 0z" fill-rule="evenodd"/><path stroke="#000000" stroke-width="2.0" stroke-linejoin="round" stroke-linecap="butt" d="m470.89502 196.7348l204.0315 0l0 36.37796l-204.0315 0z" fill-rule="evenodd"/><path fill="#000000" d="m548.4498 217.45566q0 0.6875 -0.3125 1.359375q-0.3125 0.65625 -0.890625 1.109375q-0.625 0.5 -1.453125 0.796875q-0.828125 0.28125 -2.0 0.28125q-1.265625 0 -2.265625 -0.234375q-1.0 -0.25 -2.046875 -0.703125l0 -1.9375l0.109375 0q0.890625 0.734375 2.046875 1.140625q1.15625 0.390625 2.171875 0.390625q1.4375 0 2.234375 -0.53125q0.796875 -0.546875 0.796875 -1.453125q0 -0.765625 -0.375 -1.125q-0.375 -0.375 -1.15625 -0.578125q-0.578125 -0.15625 -1.265625 -0.25q-0.6875 -0.109375 -1.453125 -0.265625q-1.546875 -0.328125 -2.296875 -1.125q-0.734375 -0.796875 -0.734375 -2.0625q0 -1.46875 1.234375 -2.390625q1.234375 -0.9375 3.125 -0.9375q1.234375 0 2.25 0.234375q1.03125 0.234375 1.8125 0.578125l0 1.828125l-0.109375 0q-0.65625 -0.5625 -1.75 -0.9375q-1.078125 -0.375 -2.203125 -0.375q-1.25 0 -2.0 0.515625q-0.75 0.515625 -0.75 1.328125q0 0.734375 0.375 1.15625q0.375 0.40625 1.3125 0.625q0.5 0.109375 1.421875 0.265625q0.921875 0.15625 1.5625 0.3125q1.296875 0.34375 1.953125 1.046875q0.65625 0.6875 0.65625 1.9375zm6.90625 3.25q-0.421875 0.109375 -0.90625 0.171875q-0.484375 0.078125 -0.875 0.078125q-1.328125 0 -2.03125 -0.71875q-0.6875 -0.71875 -0.6875 -2.3125l0 -4.640625l-1.0 0l0 -1.234375l1.0 0l0 -2.5l1.46875 0l0 2.5l3.03125 0l0 1.234375l-3.03125 0l0 3.984375q0 0.6875 0.03125 1.078125q0.03125 0.375 0.21875 0.71875q0.171875 0.3125 0.46875 0.453125q0.296875 0.140625 0.921875 0.140625q0.359375 0 0.75 -0.09375q0.390625 -0.109375 0.5625 -0.1875l0.078125 0l0 1.328125zm7.2109375 -7.046875l-0.078125 0q-0.328125 -0.078125 -0.640625 -0.109375q-0.296875 -0.046875 -0.71875 -0.046875q-0.6875 0 -1.328125 0.3125q-0.625 0.296875 -1.203125 0.765625l0 6.203125l-1.46875 0l0 -8.734375l1.46875 0l0 1.296875q0.875 -0.703125 1.53125 -1.0q0.671875 -0.296875 1.375 -0.296875q0.375 0 0.546875 0.03125q0.171875 0.015625 0.515625 0.0625l0 1.515625zm8.171875 7.125l-1.46875 0l0 -0.9375q-0.1875 0.140625 -0.53125 0.375q-0.328125 0.234375 -0.640625 0.375q-0.359375 0.1875 -0.84375 0.3125q-0.46875 0.125 -1.109375 0.125q-1.1875 0 -2.015625 -0.78125q-0.8125 -0.796875 -0.8125 -2.0q0 -1.0 0.421875 -1.609375q0.4375 -0.609375 1.21875 -0.96875q0.796875 -0.34375 1.90625 -0.46875q1.125 -0.125 2.40625 -0.1875l0 -0.234375q0 -0.5 -0.171875 -0.828125q-0.171875 -0.328125 -0.5 -0.515625q-0.3125 -0.171875 -0.75 -0.234375q-0.4375 -0.0625 -0.921875 -0.0625q-0.578125 0 -1.296875 0.15625q-0.703125 0.140625 -1.453125 0.4375l-0.078125 0l0 -1.5q0.421875 -0.109375 1.234375 -0.25q0.8125 -0.140625 1.609375 -0.140625q0.921875 0 1.59375 0.15625q0.6875 0.140625 1.1875 0.515625q0.5 0.359375 0.75 0.9375q0.265625 0.5625 0.265625 1.40625l0 5.921875zm-1.46875 -2.15625l0 -2.421875q-0.671875 0.03125 -1.578125 0.109375q-0.90625 0.078125 -1.4375 0.234375q-0.640625 0.171875 -1.03125 0.5625q-0.390625 0.375 -0.390625 1.03125q0 0.75 0.453125 1.140625q0.453125 0.375 1.390625 0.375q0.765625 0 1.40625 -0.296875q0.640625 -0.3125 1.1875 -0.734375zm8.828125 2.078125q-0.421875 0.109375 -0.90625 0.171875q-0.484375 0.078125 -0.875 0.078125q-1.328125 0 -2.03125 -0.71875q-0.6875 -0.71875 -0.6875 -2.3125l0 -4.640625l-1.0 0l0 -1.234375l1.0 0l0 -2.5l1.46875 0l0 2.5l3.03125 0l0 1.234375l-3.03125 0l0 3.984375q0 0.6875 0.03125 1.078125q0.03125 0.375 0.21875 0.71875q0.171875 0.3125 0.46875 0.453125q0.296875 0.140625 0.921875 0.140625q0.359375 0 0.75 -0.09375q0.390625 -0.109375 0.5625 -0.1875l0.078125 0l0 1.328125zm9.0703125 -4.140625l-6.421875 0q0 0.8125 0.234375 1.40625q0.25 0.59375 0.671875 0.984375q0.40625 0.375 0.953125 0.5625q0.5625 0.1875 1.234375 0.1875q0.890625 0 1.796875 -0.359375q0.90625 -0.359375 1.28125 -0.703125l0.078125 0l0 1.609375q-0.734375 0.3125 -1.515625 0.53125q-0.765625 0.203125 -1.625 0.203125q-2.171875 0 -3.390625 -1.171875q-1.21875 -1.1875 -1.21875 -3.34375q0 -2.140625 1.171875 -3.390625q1.171875 -1.265625 3.078125 -1.265625q1.765625 0 2.71875 1.03125q0.953125 1.03125 0.953125 2.921875l0 0.796875zm-1.421875 -1.125q-0.015625 -1.15625 -0.59375 -1.78125q-0.5625 -0.640625 -1.734375 -0.640625q-1.1875 0 -1.890625 0.703125q-0.6875 0.6875 -0.78125 1.71875l5.0 0zm10.734375 4.34375q0 2.234375 -1.015625 3.265625q-1.0 1.046875 -3.09375 1.046875q-0.703125 0 -1.359375 -0.109375q-0.65625 -0.09375 -1.296875 -0.265625l0 -1.5l0.078125 0q0.359375 0.140625 1.140625 0.34375q0.78125 0.203125 1.5625 0.203125q0.75 0 1.234375 -0.1875q0.5 -0.171875 0.765625 -0.484375q0.28125 -0.3125 0.390625 -0.75q0.125 -0.421875 0.125 -0.953125l0 -0.796875q-0.671875 0.53125 -1.28125 0.796875q-0.59375 0.25 -1.53125 0.25q-1.5625 0 -2.484375 -1.125q-0.921875 -1.125 -0.921875 -3.1875q0 -1.125 0.3125 -1.9375q0.328125 -0.8125 0.875 -1.40625q0.5 -0.5625 1.21875 -0.859375q0.734375 -0.3125 1.453125 -0.3125q0.765625 0 1.265625 0.15625q0.515625 0.140625 1.09375 0.453125l0.09375 -0.375l1.375 0l0 7.734375zm-1.46875 -1.40625l0 -4.75q-0.59375 -0.265625 -1.09375 -0.375q-0.5 -0.125 -1.0 -0.125q-1.21875 0 -1.921875 0.8125q-0.6875 0.8125 -0.6875 2.359375q0 1.46875 0.515625 2.234375q0.515625 0.75 1.71875 0.75q0.640625 0 1.28125 -0.234375q0.640625 -0.25 1.1875 -0.671875zm11.90625 -6.328125l-5.09375 11.953125l-1.578125 0l1.625 -3.640625l-3.46875 -8.3125l1.59375 0l2.671875 6.46875l2.703125 -6.46875l1.546875 0z" fill-rule="nonzero"/><path fill="#d9d9d9" d="m7.3805776 196.73491l204.0315 0l0 39.181107l-204.0315 0z" fill-rule="evenodd"/><path stroke="#000000" stroke-width="2.0" stroke-linejoin="round" stroke-linecap="butt" d="m7.3805776 196.73491l204.0315 0l0 39.181107l-204.0315 0z" fill-rule="evenodd"/><path fill="#000000" d="m33.134605 216.37296q0 1.59375 -0.6875 2.890625q-0.6875 1.28125 -1.84375 1.984375q-0.796875 0.5 -1.78125 0.71875q-0.96875 0.21875 -2.578125 0.21875l-2.9375 0l0 -11.640625l2.90625 0q1.703125 0 2.703125 0.25q1.015625 0.25 1.703125 0.671875q1.1875 0.75 1.84375 1.984375q0.671875 1.234375 0.671875 2.921875zm-1.609375 -0.015625q0 -1.375 -0.484375 -2.3125q-0.46875 -0.9375 -1.421875 -1.46875q-0.6875 -0.390625 -1.46875 -0.546875q-0.765625 -0.15625 -1.84375 -0.15625l-1.453125 0l0 8.984375l1.453125 0q1.125 0 1.953125 -0.15625q0.828125 -0.171875 1.53125 -0.625q0.859375 -0.546875 1.296875 -1.453125q0.4375 -0.90625 0.4375 -2.265625zm11.296875 1.609375l-6.421875 0q0 0.8125 0.234375 1.40625q0.25 0.59375 0.671875 0.984375q0.40625 0.375 0.953125 0.5625q0.5625 0.1875 1.234375 0.1875q0.890625 0 1.796875 -0.359375q0.90625 -0.359375 1.28125 -0.703125l0.078125 0l0 1.609375q-0.734375 0.3125 -1.515625 0.53125q-0.765625 0.203125 -1.625 0.203125q-2.171875 0 -3.390625 -1.171875q-1.21875 -1.1875 -1.21875 -3.34375q0 -2.140625 1.171875 -3.390625q1.171875 -1.265625 3.078125 -1.265625q1.765625 0 2.71875 1.03125q0.953125 1.03125 0.953125 2.921875l0 0.796875zm-1.421875 -1.125q-0.015625 -1.15625 -0.59375 -1.78125q-0.5625 -0.640625 -1.734375 -0.640625q-1.1875 0 -1.890625 0.703125q-0.6875 0.6875 -0.78125 1.71875l5.0 0zm11.328125 0.875q0 1.0625 -0.3125 1.9375q-0.296875 0.875 -0.84375 1.484375q-0.515625 0.578125 -1.21875 0.90625q-0.703125 0.3125 -1.484375 0.3125q-0.671875 0 -1.234375 -0.15625q-0.546875 -0.140625 -1.109375 -0.453125l0 3.65625l-1.46875 0l0 -11.953125l1.46875 0l0 0.921875q0.578125 -0.5 1.3125 -0.828125q0.734375 -0.328125 1.5625 -0.328125q1.578125 0 2.453125 1.1875q0.875 1.1875 0.875 3.3125zm-1.515625 0.03125q0 -1.578125 -0.546875 -2.359375q-0.53125 -0.78125 -1.640625 -0.78125q-0.640625 0 -1.28125 0.28125q-0.640625 0.265625 -1.21875 0.71875l0 4.9375q0.625 0.28125 1.0625 0.390625q0.453125 0.09375 1.03125 0.09375q1.21875 0 1.90625 -0.828125q0.6875 -0.828125 0.6875 -2.453125zm11.109375 0.21875l-6.421875 0q0 0.8125 0.234375 1.40625q0.25 0.59375 0.671875 0.984375q0.40625 0.375 0.953125 0.5625q0.5625 0.1875 1.234375 0.1875q0.890625 0 1.796875 -0.359375q0.90625 -0.359375 1.28125 -0.703125l0.078125 0l0 1.609375q-0.734375 0.3125 -1.515625 0.53125q-0.765625 0.203125 -1.625 0.203125q-2.171875 0 -3.390625 -1.171875q-1.21875 -1.1875 -1.21875 -3.34375q0 -2.140625 1.171875 -3.390625q1.171875 -1.265625 3.078125 -1.265625q1.765625 0 2.71875 1.03125q0.953125 1.03125 0.953125 2.921875l0 0.796875zm-1.421875 -1.125q-0.015625 -1.15625 -0.59375 -1.78125q-0.5625 -0.640625 -1.734375 -0.640625q-1.1875 0 -1.890625 0.703125q-0.6875 0.6875 -0.78125 1.71875l5.0 0zm10.953125 5.34375l-1.46875 0l0 -4.96875q0 -0.609375 -0.078125 -1.125q-0.0625 -0.53125 -0.25 -0.828125q-0.203125 -0.328125 -0.578125 -0.484375q-0.359375 -0.171875 -0.9375 -0.171875q-0.609375 0 -1.265625 0.296875q-0.65625 0.296875 -1.25 0.765625l0 6.515625l-1.46875 0l0 -8.734375l1.46875 0l0 0.96875q0.6875 -0.5625 1.421875 -0.875q0.734375 -0.328125 1.5 -0.328125q1.421875 0 2.15625 0.859375q0.75 0.84375 0.75 2.4375l0 5.671875zm9.90625 0l-1.46875 0l0 -0.921875q-0.640625 0.546875 -1.328125 0.859375q-0.6875 0.3125 -1.484375 0.3125q-1.5625 0 -2.484375 -1.203125q-0.921875 -1.21875 -0.921875 -3.34375q0 -1.109375 0.3125 -1.96875q0.328125 -0.875 0.859375 -1.484375q0.53125 -0.59375 1.234375 -0.90625q0.71875 -0.3125 1.46875 -0.3125q0.6875 0 1.21875 0.140625q0.53125 0.140625 1.125 0.453125l0 -3.78125l1.46875 0l0 12.15625zm-1.46875 -2.15625l0 -5.0q-0.59375 -0.265625 -1.0625 -0.359375q-0.46875 -0.109375 -1.03125 -0.109375q-1.234375 0 -1.921875 0.859375q-0.6875 0.859375 -0.6875 2.4375q0 1.546875 0.53125 2.359375q0.53125 0.8125 1.703125 0.8125q0.625 0 1.265625 -0.28125q0.640625 -0.28125 1.203125 -0.71875zm11.65625 -2.0625l-6.421875 0q0 0.8125 0.234375 1.40625q0.25 0.59375 0.671875 0.984375q0.40625 0.375 0.953125 0.5625q0.5625 0.1875 1.234375 0.1875q0.890625 0 1.796875 -0.359375q0.90625 -0.359375 1.28125 -0.703125l0.078125 0l0 1.609375q-0.734375 0.3125 -1.515625 0.53125q-0.765625 0.203125 -1.625 0.203125q-2.171875 0 -3.390625 -1.171875q-1.21875 -1.1875 -1.21875 -3.34375q0 -2.140625 1.171875 -3.390625q1.171875 -1.265625 3.078125 -1.265625q1.765625 0 2.71875 1.03125q0.953125 1.03125 0.953125 2.921875l0 0.796875zm-1.421875 -1.125q-0.015625 -1.15625 -0.59375 -1.78125q-0.5625 -0.640625 -1.734375 -0.640625q-1.1875 0 -1.890625 0.703125q-0.6875 0.6875 -0.78125 1.71875l5.0 0zm10.953125 5.34375l-1.46875 0l0 -4.96875q0 -0.609375 -0.078125 -1.125q-0.0625 -0.53125 -0.25 -0.828125q-0.203125 -0.328125 -0.578125 -0.484375q-0.359375 -0.171875 -0.9375 -0.171875q-0.609375 0 -1.265625 0.296875q-0.65625 0.296875 -1.25 0.765625l0 6.515625l-1.46875 0l0 -8.734375l1.46875 0l0 0.96875q0.6875 -0.5625 1.421875 -0.875q0.734375 -0.328125 1.5 -0.328125q1.421875 0 2.15625 0.859375q0.75 0.84375 0.75 2.4375l0 5.671875zm9.28125 -0.546875q-0.734375 0.34375 -1.40625 0.546875q-0.65625 0.203125 -1.390625 0.203125q-0.953125 0 -1.75 -0.28125q-0.78125 -0.28125 -1.34375 -0.84375q-0.5625 -0.5625 -0.875 -1.421875q-0.3125 -0.859375 -0.3125 -2.015625q0 -2.140625 1.171875 -3.359375q1.171875 -1.21875 3.109375 -1.21875q0.75 0 1.46875 0.21875q0.71875 0.203125 1.328125 0.515625l0 1.625l-0.078125 0q-0.671875 -0.515625 -1.390625 -0.796875q-0.71875 -0.28125 -1.390625 -0.28125q-1.25 0 -1.984375 0.84375q-0.71875 0.828125 -0.71875 2.453125q0 1.578125 0.703125 2.4375q0.71875 0.84375 2.0 0.84375q0.4375 0 0.890625 -0.109375q0.46875 -0.125 0.84375 -0.3125q0.3125 -0.171875 0.59375 -0.34375q0.28125 -0.1875 0.453125 -0.328125l0.078125 0l0 1.625zm9.4296875 -8.1875l-5.09375 11.953125l-1.578125 0l1.625 -3.640625l-3.46875 -8.3125l1.59375 0l2.671875 6.46875l2.703125 -6.46875l1.546875 0zm11.765633 8.734375l-4.5937576 0l0 -1.1875l1.5156326 0l0 -9.265625l-1.5156326 0l0 -1.1875l4.5937576 0l0 1.1875l-1.53125 0l0 9.265625l1.53125 0l0 1.1875zm9.8125 0l-1.46875 0l0 -4.96875q0 -0.609375 -0.078125 -1.125q-0.0625 -0.53125 -0.25 -0.828125q-0.203125 -0.328125 -0.578125 -0.484375q-0.359375 -0.171875 -0.9375 -0.171875q-0.609375 0 -1.265625 0.296875q-0.65625 0.296875 -1.25 0.765625l0 6.515625l-1.46875 0l0 -8.734375l1.46875 0l0 0.96875q0.6875 -0.5625 1.421875 -0.875q0.734375 -0.328125 1.5 -0.328125q1.421875 0 2.15625 0.859375q0.75 0.84375 0.75 2.4375l0 5.671875zm5.546875 -10.1875l-1.65625 0l0 -1.53125l1.65625 0l0 1.53125zm-0.09375 10.40625q0 1.53125 -0.78125 2.3125q-0.78125 0.78125 -2.09375 0.78125q-0.3125 0 -0.828125 -0.0625q-0.515625 -0.0625 -0.859375 -0.15625l0 -1.40625l0.078125 0q0.21875 0.09375 0.59375 0.203125q0.375 0.109375 0.71875 0.109375q0.5625 0 0.90625 -0.15625q0.34375 -0.15625 0.515625 -0.46875q0.171875 -0.3125 0.21875 -0.765625q0.0625 -0.4375 0.0625 -1.078125l0 -7.03125l-1.828125 0l0 -1.234375l3.296875 0l0 8.953125zm10.1796875 -4.4375l-6.421875 0q0 0.8125 0.234375 1.40625q0.25 0.59375 0.671875 0.984375q0.40625 0.375 0.953125 0.5625q0.5625 0.1875 1.234375 0.1875q0.890625 0 1.796875 -0.359375q0.90625 -0.359375 1.28125 -0.703125l0.078125 0l0 1.609375q-0.734375 0.3125 -1.515625 0.53125q-0.765625 0.203125 -1.625 0.203125q-2.171875 0 -3.390625 -1.171875q-1.21875 -1.1875 -1.21875 -3.34375q0 -2.140625 1.171875 -3.390625q1.171875 -1.265625 3.078125 -1.265625q1.765625 0 2.71875 1.03125q0.953125 1.03125 0.953125 2.921875l0 0.796875zm-1.421875 -1.125q-0.015625 -1.15625 -0.59375 -1.78125q-0.5625 -0.640625 -1.734375 -0.640625q-1.1875 0 -1.890625 0.703125q-0.6875 0.6875 -0.78125 1.71875l5.0 0zm10.109375 4.796875q-0.734375 0.34375 -1.40625 0.546875q-0.65625 0.203125 -1.390625 0.203125q-0.953125 0 -1.75 -0.28125q-0.78125 -0.28125 -1.34375 -0.84375q-0.5625 -0.5625 -0.875 -1.421875q-0.3125 -0.859375 -0.3125 -2.015625q0 -2.140625 1.171875 -3.359375q1.171875 -1.21875 3.109375 -1.21875q0.75 0 1.46875 0.21875q0.71875 0.203125 1.328125 0.515625l0 1.625l-0.078125 0q-0.671875 -0.515625 -1.390625 -0.796875q-0.71875 -0.28125 -1.390625 -0.28125q-1.25 0 -1.984375 0.84375q-0.71875 0.828125 -0.71875 2.453125q0 1.578125 0.703125 2.4375q0.71875 0.84375 2.0 0.84375q0.4375 0 0.890625 -0.109375q0.46875 -0.125 0.84375 -0.3125q0.3125 -0.171875 0.59375 -0.34375q0.28125 -0.1875 0.453125 -0.328125l0.078125 0l0 1.625zm6.4140625 0.46875q-0.421875 0.109375 -0.90625 0.171875q-0.484375 0.078125 -0.875 0.078125q-1.328125 0 -2.03125 -0.71875q-0.6875 -0.71875 -0.6875 -2.3125l0 -4.640625l-1.0 0l0 -1.234375l1.0 0l0 -2.5l1.46875 0l0 2.5l3.03125 0l0 1.234375l-3.03125 0l0 3.984375q0 0.6875 0.03125 1.078125q0.03125 0.375 0.21875 0.71875q0.171875 0.3125 0.46875 0.453125q0.296875 0.140625 0.921875 0.140625q0.359375 0 0.75 -0.09375q0.390625 -0.109375 0.5625 -0.1875l0.078125 0l0 1.328125zm3.3515625 -10.109375l-1.65625 0l0 -1.53125l1.65625 0l0 1.53125zm-0.09375 10.1875l-1.46875 0l0 -8.734375l1.46875 0l0 8.734375zm10.34375 -4.359375q0 2.125 -1.09375 3.375q-1.09375 1.234375 -2.9375 1.234375q-1.84375 0 -2.9375 -1.234375q-1.09375 -1.25 -1.09375 -3.375q0 -2.140625 1.09375 -3.375q1.09375 -1.234375 2.9375 -1.234375q1.84375 0 2.9375 1.234375q1.09375 1.234375 1.09375 3.375zm-1.515625 0q0 -1.703125 -0.671875 -2.515625q-0.65625 -0.828125 -1.84375 -0.828125q-1.1875 0 -1.859375 0.828125q-0.65625 0.8125 -0.65625 2.515625q0 1.640625 0.65625 2.484375q0.671875 0.84375 1.859375 0.84375q1.171875 0 1.84375 -0.828125q0.671875 -0.84375 0.671875 -2.5zm11.0859375 4.359375l-1.46875 0l0 -4.96875q0 -0.609375 -0.078125 -1.125q-0.0625 -0.53125 -0.25 -0.828125q-0.203125 -0.328125 -0.578125 -0.484375q-0.359375 -0.171875 -0.9375 -0.171875q-0.609375 0 -1.265625 0.296875q-0.65625 0.296875 -1.25 0.765625l0 6.515625l-1.46875 0l0 -8.734375l1.46875 0l0 0.96875q0.6875 -0.5625 1.421875 -0.875q0.734375 -0.328125 1.5 -0.328125q1.421875 0 2.15625 0.859375q0.75 0.84375 0.75 2.4375l0 5.671875z" fill-rule="nonzero"/><path fill="#000000" fill-opacity="0.0" d="m164.35695 67.56956l-109.92125 129.16534" fill-rule="evenodd"/><path stroke="#000000" stroke-width="2.0" stroke-linejoin="round" stroke-linecap="butt" d="m164.35695 67.56956l-102.144104 120.02665" fill-rule="evenodd"/><path fill="#000000" stroke="#000000" stroke-width="2.0" stroke-linecap="butt" d="m59.69706 185.45525l-3.366459 9.053009l8.398029 -4.7710876z" fill-rule="evenodd"/><path fill="#000000" fill-opacity="0.0" d="m214.4042 67.56956l-25.88977 56.944878" fill-rule="evenodd"/><path stroke="#000000" stroke-width="2.0" stroke-linejoin="round" stroke-linecap="butt" d="m214.4042 67.56956l-20.923233 46.02089" fill-rule="evenodd"/><path fill="#000000" stroke="#000000" stroke-width="2.0" stroke-linecap="butt" d="m190.47372 112.22322l-0.7491913 9.629585l6.7637024 -6.8951187z" fill-rule="evenodd"/><path fill="#000000" fill-opacity="0.0" d="m338.97113 67.57004l-0.56692505 129.16534" fill-rule="evenodd"/><path stroke="#000000" stroke-width="2.0" stroke-linejoin="round" stroke-linecap="butt" d="m338.97113 67.57004l-0.5142517 117.16547" fill-rule="evenodd"/><path fill="#000000" stroke="#000000" stroke-width="2.0" stroke-linecap="butt" d="m335.15344 184.721l3.2635803 9.090607l3.3432922 -9.0616z" fill-rule="evenodd"/><path fill="#000000" fill-opacity="0.0" d="m440.65616 67.56432l16.913391 58.20472" fill-rule="evenodd"/><path stroke="#000000" stroke-width="2.0" stroke-linejoin="round" stroke-linecap="butt" d="m440.65616 67.56432l13.56488 46.68138" fill-rule="evenodd"/><path fill="#000000" stroke="#000000" stroke-width="2.0" stroke-linecap="butt" d="m451.0488 115.16751l5.704895 7.793869l0.6396179 -9.637482z" fill-rule="evenodd"/><path fill="#000000" fill-opacity="0.0" d="m560.6588 67.56945l12.251953 129.16534" fill-rule="evenodd"/><path stroke="#000000" stroke-width="2.0" stroke-linejoin="round" stroke-linecap="butt" d="m560.6588 67.56945l11.118774 117.21897" fill-rule="evenodd"/><path fill="#000000" stroke="#000000" stroke-width="2.0" stroke-linecap="butt" d="m568.4889 185.10037l4.145752 8.723694l2.4316406 -9.34758z" fill-rule="evenodd"/><path fill="#000000" fill-opacity="0.0" d="m615.6247 67.56956l36.881897 59.433067" fill-rule="evenodd"/><path stroke="#000000" stroke-width="2.0" stroke-linejoin="round" stroke-linecap="butt" d="m615.6247 67.56956l30.554443 49.2368" fill-rule="evenodd"/><path fill="#000000" stroke="#000000" stroke-width="2.0" stroke-linecap="butt" d="m643.37225 118.548225l7.5926514 5.9700775l-1.9788208 -9.453812z" fill-rule="evenodd"/><path fill="#000000" fill-opacity="0.0" d="m684.0 196.73491l101.07086 0l0 36.377945l-101.07086 0z" fill-rule="evenodd"/><path fill="#000000" d="m700.59326 221.84389l2.796875 -13.359375l5.578125 0q1.453125 0 2.171875 0.34375q0.71875 0.328125 1.1875 1.140625q0.484375 0.796875 0.484375 1.796875q0 0.828125 -0.34375 1.6875q-0.328125 0.859375 -0.84375 1.421875q-0.515625 0.546875 -1.046875 0.828125q-0.53125 0.28125 -1.125 0.421875q-1.28125 0.296875 -2.59375 0.296875l-3.34375 0l-1.125 5.421875l-1.796875 0zm3.234375 -6.9375l2.953125 0q1.703125 0 2.5 -0.359375q0.8125 -0.375 1.296875 -1.125q0.484375 -0.765625 0.484375 -1.609375q0 -0.65625 -0.265625 -1.0625q-0.25 -0.421875 -0.71875 -0.609375q-0.46875 -0.203125 -1.78125 -0.203125l-3.421875 0l-1.046875 4.96875zm15.5529175 5.734375q-0.859375 0.734375 -1.65625 1.078125q-0.78125 0.34375 -1.6875 0.34375q-1.34375 0 -2.171875 -0.78125q-0.8125 -0.796875 -0.8125 -2.03125q0 -0.796875 0.375 -1.421875q0.375 -0.625 0.984375 -1.0q0.609375 -0.390625 1.484375 -0.546875q0.5625 -0.109375 2.109375 -0.171875q1.5625 -0.0625 2.234375 -0.328125q0.1875 -0.671875 0.1875 -1.125q0 -0.578125 -0.421875 -0.90625q-0.5625 -0.453125 -1.671875 -0.453125q-1.03125 0 -1.703125 0.46875q-0.65625 0.453125 -0.953125 1.296875l-1.671875 -0.140625q0.515625 -1.4375 1.609375 -2.203125q1.109375 -0.765625 2.796875 -0.765625q1.796875 0 2.84375 0.859375q0.796875 0.625 0.796875 1.65625q0 0.765625 -0.21875 1.796875l-0.53125 2.40625q-0.265625 1.140625 -0.265625 1.859375q0 0.453125 0.203125 1.3125l-1.671875 0q-0.125 -0.46875 -0.1875 -1.203125zm0.609375 -3.703125q-0.34375 0.140625 -0.75 0.21875q-0.390625 0.0625 -1.3125 0.15625q-1.4375 0.125 -2.03125 0.328125q-0.59375 0.1875 -0.90625 0.625q-0.296875 0.421875 -0.296875 0.9375q0 0.6875 0.484375 1.140625q0.484375 0.4375 1.359375 0.4375q0.828125 0 1.578125 -0.421875q0.75 -0.4375 1.1875 -1.203125q0.4375 -0.78125 0.6875 -2.21875zm7.0944824 3.5625l-0.265625 1.359375q-0.59375 0.140625 -1.15625 0.140625q-0.984375 0 -1.5625 -0.46875q-0.4375 -0.375 -0.4375 -1.0q0 -0.3125 0.234375 -1.46875l1.171875 -5.625l-1.296875 0l0.265625 -1.265625l1.296875 0l0.5 -2.375l1.890625 -1.140625l-0.734375 3.515625l1.625 0l-0.28125 1.265625l-1.609375 0l-1.125 5.359375q-0.203125 1.015625 -0.203125 1.21875q0 0.28125 0.15625 0.4375q0.171875 0.15625 0.5625 0.15625q0.546875 0 0.96875 -0.109375zm5.1832886 0l-0.265625 1.359375q-0.59375 0.140625 -1.15625 0.140625q-0.984375 0 -1.5625 -0.46875q-0.4375 -0.375 -0.4375 -1.0q0 -0.3125 0.234375 -1.46875l1.171875 -5.625l-1.296875 0l0.265625 -1.265625l1.296875 0l0.5 -2.375l1.890625 -1.140625l-0.734375 3.515625l1.625 0l-0.28125 1.265625l-1.609375 0l-1.125 5.359375q-0.203125 1.015625 -0.203125 1.21875q0 0.28125 0.15625 0.4375q0.171875 0.15625 0.5625 0.15625q0.546875 0 0.96875 -0.109375zm8.433289 -1.9375l1.609375 0.15625q-0.34375 1.1875 -1.59375 2.265625q-1.234375 1.078125 -2.96875 1.078125q-1.0625 0 -1.96875 -0.5q-0.890625 -0.5 -1.359375 -1.4375q-0.46875 -0.953125 -0.46875 -2.15625q0 -1.59375 0.734375 -3.078125q0.734375 -1.484375 1.890625 -2.203125q1.171875 -0.734375 2.53125 -0.734375q1.734375 0 2.765625 1.078125q1.03125 1.0625 1.03125 2.921875q0 0.71875 -0.125 1.46875l-7.125 0q-0.046875 0.28125 -0.046875 0.5q0 1.359375 0.625 2.078125q0.625 0.71875 1.53125 0.71875q0.84375 0 1.65625 -0.546875q0.828125 -0.5625 1.28125 -1.609375zm-4.78125 -2.40625l5.421875 0q0.015625 -0.25 0.015625 -0.359375q0 -1.234375 -0.625 -1.890625q-0.625 -0.671875 -1.59375 -0.671875q-1.0625 0 -1.9375 0.734375q-0.859375 0.71875 -1.28125 2.1875zm8.063232 5.6875l2.015625 -9.671875l1.453125 0l-0.40625 1.96875q0.75 -1.109375 1.453125 -1.640625q0.71875 -0.546875 1.46875 -0.546875q0.5 0 1.21875 0.359375l-0.671875 1.53125q-0.4375 -0.3125 -0.9375 -0.3125q-0.875 0 -1.78125 0.96875q-0.90625 0.953125 -1.4375 3.46875l-0.8125 3.875l-1.5625 0zm6.2127075 0l2.015625 -9.671875l1.5 0l-0.359375 1.6875q0.96875 -1.0 1.8125 -1.453125q0.859375 -0.453125 1.734375 -0.453125q1.1875 0 1.84375 0.640625q0.671875 0.625 0.671875 1.703125q0 0.53125 -0.234375 1.6875l-1.234375 5.859375l-1.640625 0l1.28125 -6.125q0.1875 -0.890625 0.1875 -1.328125q0 -0.484375 -0.328125 -0.78125q-0.328125 -0.296875 -0.953125 -0.296875q-1.28125 0 -2.265625 0.90625q-0.984375 0.90625 -1.453125 3.125l-0.9375 4.5l-1.640625 0zm10.531982 -3.3125l1.640625 -0.09375q0 0.703125 0.21875 1.21875q0.21875 0.5 0.796875 0.8125q0.59375 0.3125 1.375 0.3125q1.09375 0 1.640625 -0.4375q0.546875 -0.4375 0.546875 -1.015625q0 -0.4375 -0.328125 -0.8125q-0.328125 -0.390625 -1.640625 -0.953125q-1.3125 -0.5625 -1.671875 -0.78125q-0.609375 -0.375 -0.921875 -0.875q-0.3125 -0.515625 -0.3125 -1.171875q0 -1.140625 0.90625 -1.953125q0.921875 -0.828125 2.5625 -0.828125q1.828125 0 2.765625 0.84375q0.953125 0.84375 1.0 2.21875l-1.609375 0.109375q-0.046875 -0.875 -0.625 -1.390625q-0.578125 -0.515625 -1.65625 -0.515625q-0.84375 0 -1.328125 0.40625q-0.46875 0.390625 -0.46875 0.84375q0 0.453125 0.40625 0.796875q0.28125 0.234375 1.421875 0.734375q1.890625 0.8125 2.375 1.28125q0.78125 0.765625 0.78125 1.84375q0 0.71875 -0.4375 1.421875q-0.4375 0.6875 -1.34375 1.109375q-0.90625 0.40625 -2.140625 0.40625q-1.671875 0 -2.84375 -0.828125q-1.1875 -0.828125 -1.109375 -2.703125z" fill-rule="nonzero"/></g></svg>